<svg id="레이어_2" data-name="레이어 2" xmlns="http://www.w3.org/2000/svg" viewBox="0 0 537.59 497.06"><defs><style>.cls-1{font-size:13px;font-family:NotoSansCJKkr-DemiLight-KSCpc-EUC-H, Noto Sans CJK KR;}.cls-1,.cls-6,.cls-7{fill:#fff;}.cls-2,.cls-4{fill:none;}.cls-2{stroke:#c6c6c6;stroke-miterlimit:10;stroke-width:0.5px;}.cls-3,.cls-5{fill:#c6c6c6;}.cls-3{opacity:0.05;}.cls-5,.cls-6{opacity:0.1;}.cls-8{fill:#262626;}.cls-11,.cls-13,.cls-14,.cls-15,.cls-16,.cls-9{font-size:10px;fill:#adadad;font-family:Montserrat-Light, Montserrat;}.cls-12,.cls-9{letter-spacing:-0.04em;}.cls-10,.cls-13{letter-spacing:-0.04em;}.cls-11{letter-spacing:-0.06em;}.cls-14{letter-spacing:-0.08em;}.cls-15{letter-spacing:-0.08em;}</style></defs><title>graph</title><text class="cls-1" transform="translate(66.42 67.31)">DK POINT</text><text class="cls-1" transform="translate(261.48 11.44)">작업자</text><text class="cls-1" transform="translate(437.4 67.31)">시안</text><text class="cls-1" transform="translate(513.67 215.44)">수정</text><text class="cls-1" transform="translate(482.67 374.44)">기간</text><text class="cls-1" transform="translate(0 374.44)">메뉴얼북 인쇄</text><text class="cls-1" transform="translate(20.67 215.44)">명함</text><text class="cls-1" transform="translate(333.15 483.44)">응용디자인</text><text class="cls-1" transform="translate(169.88 483.44)">로고 규정집</text><polygon class="cls-2" points="278.58 25.95 134.99 78.21 58.59 210.54 85.12 361.03 202.18 459.25 354.98 459.25 472.04 361.03 498.57 210.54 422.17 78.21 278.58 25.95"/><polygon class="cls-2" points="278.58 64.53 159.79 107.77 96.59 217.24 118.54 341.73 215.38 422.99 341.79 422.99 438.62 341.73 460.57 217.24 397.37 107.77 278.58 64.53"/><polygon class="cls-3" points="278.58 64.53 159.79 107.77 96.59 217.24 118.54 341.73 215.38 422.99 341.79 422.99 438.62 341.73 460.57 217.24 397.37 107.77 278.58 64.53"/><polygon class="cls-2" points="278.58 103.75 185 137.81 135.21 224.05 152.5 322.13 228.79 386.14 328.37 386.14 404.66 322.13 421.96 224.05 372.16 137.81 278.58 103.75"/><polygon class="cls-4" points="278.58 103.75 185 137.81 135.21 224.05 152.5 322.13 228.79 386.14 328.37 386.14 404.66 322.13 421.96 224.05 372.16 137.81 278.58 103.75"/><polygon class="cls-2" points="278.58 143.44 210.51 168.21 174.29 230.95 186.87 302.28 242.36 348.84 314.8 348.84 370.29 302.28 382.87 230.95 346.65 168.21 278.58 143.44"/><polygon class="cls-5" points="278.58 143.44 210.51 168.21 174.29 230.95 186.87 302.28 242.36 348.84 314.8 348.84 370.29 302.28 382.87 230.95 346.65 168.21 278.58 143.44"/><polygon class="cls-2" points="278.58 182.85 235.84 198.4 213.11 237.79 221 282.58 255.84 311.81 301.32 311.81 336.16 282.58 344.06 237.79 321.32 198.4 278.58 182.85"/><polygon class="cls-6" points="278.58 182.85 235.84 198.4 213.11 237.79 221 282.58 255.84 311.81 301.32 311.81 336.16 282.58 344.06 237.79 321.32 198.4 278.58 182.85"/><line class="cls-2" x1="278.58" y1="26.13" x2="278.58" y2="249.19"/><line class="cls-2" x1="422.77" y1="77.3" x2="278.71" y2="249.22"/><line class="cls-2" x1="135.21" y1="77.3" x2="279.26" y2="249.22"/><line class="cls-2" x1="85.35" y1="360.72" x2="278.91" y2="248.86"/><line class="cls-2" x1="471.91" y1="361.06" x2="278.35" y2="249.19"/><line class="cls-2" x1="202.1" y1="459.31" x2="278.49" y2="249.27"/><line class="cls-2" x1="354.95" y1="459.31" x2="278.55" y2="249.27"/><line class="cls-2" x1="57.8" y1="210.26" x2="278.71" y2="248.97"/><line class="cls-2" x1="499.5" y1="210.26" x2="278.58" y2="248.97"/><path class="cls-7" d="M408.87,74.65a1,1,0,0,1,.93-1.74l13.1,4.25,6.85,11.33a1,1,0,0,1-1.72,1l-6.45-10.69-12.4-4A1.14,1.14,0,0,1,408.87,74.65Z"/><path class="cls-7" d="M265.93,31.51a1,1,0,0,1-.38-1.93l12.88-4.92,12.43,4.53a1,1,0,0,1-.68,1.88L278.44,26.8l-12.17,4.65A1,1,0,0,1,265.93,31.51Z"/><path class="cls-7" d="M129.2,90a1,1,0,0,1-1.15.08,1,1,0,0,1-.34-1.37l7-11.84,12.56-4.17a1,1,0,0,1,.63,1.9l-11.85,3.93-6.67,11.21A.92.92,0,0,1,129.2,90Z"/><path class="cls-7" d="M490.78,199.05a1,1,0,0,1,.46-1.05,1,1,0,0,1,1.38.34l7.13,11.79-2.24,13a1,1,0,1,1-2-.33l2.11-12.31-6.74-11.16A.8.8,0,0,1,490.78,199.05Z"/><path class="cls-7" d="M66.53,199.05a1,1,0,0,0-.46-1.05,1,1,0,0,0-1.38.34l-7.13,11.79,2.24,13A1,1,0,0,0,61,224a1,1,0,0,0,.81-1.15l-2.11-12.31,6.74-11.16A.8.8,0,0,0,66.53,199.05Z"/><path class="cls-7" d="M83.68,347.33a1,1,0,0,0-1.87.64L84,361.58l10.14,8.5a1,1,0,0,0,1.29-1.53l-9.57-8-2.07-12.87A1.1,1.1,0,0,0,83.68,347.33Z"/><path class="cls-7" d="M215.5,458.31a1,1,0,0,1-.36,1.93l-13.78-.13-9.92-8.76a1,1,0,0,1-.09-1.41,1,1,0,0,1,1.41-.09l9.37,8.27,13,.12A1,1,0,0,1,215.5,458.31Z"/><path class="cls-7" d="M364.94,449.64a1,1,0,0,1,1.11.28,1,1,0,0,1-.11,1.41l-10.42,9-13.24,0a1,1,0,0,1,0-2l12.49,0,9.87-8.52A.92.92,0,0,1,364.94,449.64Z"/><path class="cls-7" d="M473.52,347.25a1,1,0,0,1,1.86.66l-2.29,13.58-10.21,8.43a1,1,0,0,1-1.41-.14,1,1,0,0,1,.14-1.4l9.63-8,2.17-12.85A1,1,0,0,1,473.52,347.25Z"/><polygon class="cls-2" points="278.58 218.04 258.46 225.36 247.76 243.9 251.48 264.98 267.88 278.74 289.28 278.74 305.68 264.98 309.4 243.9 298.7 225.36 278.58 218.04"/><polygon class="cls-8" points="278.58 218.04 258.46 225.36 247.76 243.9 251.48 264.98 267.88 278.74 289.28 278.74 305.68 264.98 309.4 243.9 298.7 225.36 278.58 218.04"/><text class="cls-9" transform="translate(275.14 246.72)">0<tspan class="cls-10"><tspan x="-3.68" y="10.69">(%)</tspan></tspan></text><text class="cls-11" transform="translate(283.91 170.02)">4<tspan class="cls-12" x="5.24" y="0">0</tspan></text><text class="cls-13" transform="translate(283.91 209.31)">20</text><text class="cls-14" transform="translate(283.91 130.39)">6<tspan class="cls-10" x="5.6" y="0">0</tspan></text><text class="cls-15" transform="translate(283.91 90.89)">8<tspan class="cls-12" x="5.61" y="0">0</tspan></text><text class="cls-16" transform="translate(283.71 54.09)"><tspan class="cls-10">10</tspan><tspan x="9.97" y="0">0</tspan></text></svg>