<svg id="레이어_1" data-name="레이어 1" xmlns="http://www.w3.org/2000/svg" viewBox="0 0 364.16 96.43"><defs><style>.cls-1{fill:#fff;}</style></defs><title>대지 56</title><path class="cls-1" d="M286.5.1c-.49-.14.14.34-.35,0C286.26,0,286.39,0,286.5.1Z"/><path class="cls-1" d="M306.57,43.25c1.1-1.42,3.35-1.67,4.72-2.9.17-.12.14.4.51.11,1.28-1.29,3.88-2.15,6-2.63l-.06.16c.39-.09.66-.66,1.07-.78,0,.07-.07.15.06.21,0-.26.64-.42.73-.66.19,0,.26.19.5.2l.1-.35c.34-.86,1.5-.65,2.19-1.33,0,.08-.07.16,0,.19A28.08,28.08,0,0,1,326.7,33c0,.11,0,.3.12.35,0-.29.4-.56.78-.79.3.19.58-.55,1.12-.61V32c.22-.44.59-.07.72-.53l.32.11c0-.44.59,0,.8-.34l-.05-.07c.24-.21.46-.09.69-.26l0,0c.55-.35,1-.29.85-.58.31.15-.53.35-.06.56a39.53,39.53,0,0,1,5.85-2.76c.28,0,.44,0,.53.09.17-.14.72-.36.84-.58-.06,0,.19.1.3.07.41,0,.27-.49.72-.51-.13.14-.14.26-.05.35.25-.37.72-.52,1.09-.76-.05.08-.13.15-.08.23.33-.44.82-.26,1.14-.58l-.08.23c.71,0,0-.44.63-.53-.11.11,0,.16,0,.24.37-.51,1.22-.73,1.68-1a.1.1,0,0,0,0,.08,12.94,12.94,0,0,0,1.68-.75c.25,0,.1.45.65.16-.16-.34.92-.52.43-.78a5.65,5.65,0,0,0,1.63-.55c-.18.22.4.33,0,.52l.39.09c0,.16-.34.07-.17.21a5.59,5.59,0,0,1,.95-.47c.3-.35.5-.88,1.1-1.16-.24.25.31.32.13.46l.62-1c.19-.1.16.25.39.06-.05-.09,0-.18.05-.28s.49-.28.9,0c.21.08-.22.17.09.19.35-.13.23-.22.54-.34l.07,0c.31-.05.4-.31-.11-.34-.14,0,.36.1,0,.12-.15-.17,0-.3.25-.39,0,.05.21.09.35.15a.67.67,0,0,1,0-.52c-.41,0,.66.09.37.1.52-.06.58-.17.59-.25s0-.13.78-.23a6.81,6.81,0,0,1-.69,0c.26-.07,1.14-.12.95-.15.55,0,0-.06,0-.09h0c.11,0,.23,0,.2,0s-.06,0-.07,0c-.3,0-.84,0-1.15-.05s-.53-.07-.46-.15a11.62,11.62,0,0,1-1.24.13l.61-.12c.24-.1-.36,0,.06-.17-.41.07-.09.07.29.06s.79,0,.34,0c.38-.13-1.32.14-.49,0-.26,0-.95.1-.71-.08,0,0,.79-.18.56-.2-.42,0-.3.06-.69.06l-.3.05c-.33.16-.2-.07-.45.14.2-.15-.47,0,0-.27l.35-.23c-.19,0-.55.21-.74.3a.22.22,0,0,1,.06-.12c-.34.39-.28-.09-.58.21,0-.16-1-.19-1.09-.49a1.88,1.88,0,0,1-1.15,0c.09,0,.2,0,.24-.1-.23-.18-.32-.08-.57-.05.06-.06-.48-.35-.74-.56-.39.06-.31.32-.37.46-.25-.49-1.07.09-1.42-.38.14,0,.57-.11.29-.28-.25-.49-.73.2-1.23-.1l.07.38c-.2-.27-.83.06-.7-.3-.21.1-.61-.23-.62.13-.82-.46-2.17-.23-2.59-1-.14,0-.44-.09-.41.1s.32-.08.37.07a.18.18,0,0,0-.18.12c-.26-.13-.46-.2-.15-.44-.57-.33-.74.48-1.49.19.07-.14,0-.2-.21-.22l-.48.16c-.49-.16-.22-.39-.18-.63-.28,0-.6-.09-.76.07l-.26-.37c.19.27-.25.1-.39.14l.14,0c0-.11-.35-.11-.51-.11,0,.16.31.28.47.36-.16.08-.37,0-.57.11.11-.23-.4-.26-.61-.33s-.32.16-.39.14-.39-.1-.16-.23.16.15.32.07c-.14-.12-.08-.33-.44-.24s0,.48-.48.23c.14,0,.18-.12.29-.19l-.42-.21-.06.21c-.05-.07,0-.08,0-.11-.18.2-.7-.07-.85.16-.23,0-.44-.25-.65-.31h0a.86.86,0,0,0-.85-.07l0-.05a1.16,1.16,0,0,0-.69,0c-.32-.24.05-.85-.4-.66-.37-.07-.66.28-.54.45-.63-.29-1.45-.1-2-.57-.11.07-.07.14-.27.15-.95-.3-2.1-.19-2.77-.79.3,0,.07-.22.09-.34-.28.14-.23-.27-.39,0s-.07.29.18.43a3.63,3.63,0,0,1-1.75-.49c.14.13,0,.16-.13.19.11-.3-.3-.45-.65-.42l-.09.18-.16-.24c-.14,0-.23.37-.51.11a.4.4,0,0,0,0-.22c-.37.07-.9.23-1.22,0l-.23-.35c-.16,0-.46.09-.21.24-.57-.32-1-.44-1.09-.73a7.72,7.72,0,0,1-4-.4l.08-.13c-.3-.23-.24.2-.44,0,.14-.11-.18-.36.13-.46-.43-.27-.67.08-1,.07-.09.17.28-.06.16.16-.07.05-.61-.32-.76-.06-.09-.14.06-.32.15-.42l-.32.06c-.26-.42,1-.37.7-.87l-.28,0c-.17-.36.79-.14.15-.42-.32.06-.68.4-.45.59-.62-.08-.46.6-1.1.4-.13-.21.52.1.46-.16-.24-.31-.64,0-.89-.19.27.18-.06.4-.27.4-.29-.23.29-.21-.17-.37-.12.14-.58.14-.24.36-.27.32-.45-.24-.79,0-.07-.3.65-.46.18-.73,0,.27-.73.15-.56.6a.25.25,0,0,1,0-.44c-.24-.24-.82.25-.77-.27l-.17.23a4.61,4.61,0,0,1-.28-.39c-.25-.08-.91.11-.77-.27-.1,0-.66-.16-.52.16.31.27.47-.07.56.34-.17-.36-.53-.11-.76-.07v-.16c-.14,0-.41-.09-.54.05.12-.06.1-.17,0-.24l-.2.19c-.53-.05,0-.43-.5-.52l.42-.06c-.09,0-.19-.25-.44-.25-.15.18-.4.37-.52.51-.3,0-.05-.27-.39-.15l.43-.13c.07-.05-.13-.42-.5-.52s-.7.18-.37.4c-.18,0-.4-.25-.21-.36-.43-.06,0,.24-.41.25-.1-.18-.49-.51-.7-.8l.48-.22-.25-.08c.41-.17-.09-.26.18-.49a1,1,0,0,0-.58,0c.35.61-.75.46-.74.92-.72-.1-.09-1.16-1-.73.08.15-.35.35.11.37-.4-.18-.42.33-.86,0,.42,0-.25-.56.36-.63-.08.13.26.21.35.19-.11-.22.18-.41-.25-.55-.27,0-.63-.16-.65.07s.41.11.16.3c-.55-.09-.51-.49-.87-.13a.36.36,0,0,1,.28.51l-.42,0,.13-.13c-.57-.32-.28.23-.86,0l-.17-.41c.23-.22.82.42.87-.06-.38-.15-.59,0-.91-.2.09,0,.21,0,.3,0-.13-.06-.07-.69-.73-.54-.33,0-.13.14-.2.3-.63-.16-.87-.07-1.28-.18.2-.3-.69-.29-.13-.46a1.31,1.31,0,0,0,1.35.33c-.09-.45.47.22.73-.12-.49-.17-.33-.54-.33-.81a.65.65,0,0,0-.39,0c-.14.21,0,.27,0,.51a2.26,2.26,0,0,0-1.48-.21.2.2,0,0,1,.22-.33,10.36,10.36,0,0,1-1.95-.75c.26.52-.72-.16-.57.25.3.2.49.57.25.67-.2-.1.06-.16,0-.27-.34.11-.29-.48-.67-.25.64.1.29-.41.5-.67-.49,0,.1-.2-.32-.35a6.32,6.32,0,0,1-1.55-.19c-.48-.52-1.49-.6-2-.8-.21-.26.11-.51-.17-.69s.12.46-.34.1l.08,0c-.19,0-.86-.6-1.21-.19l.31-.29c-.09-.07-.21,0-.3,0s0-.27.16-.27c-.21-.38-.68-.25-1-.39l.14.31c-.66-.09-1-.47-1.57-.64l.11-.2-.39,0c.16-.16-.09-.42-.34-.34L288.26,1c.2.23-.37.13-.3.4a.61.61,0,0,0,.77.24c-.19-.11-.22-.07-.41-.06.06-.31.36-.17.59-.29-.11,0-.22-.19-.28-.11a1.42,1.42,0,0,1,.83.16c-.28,0,.05.23-.07.28.13-.24.49-.18.88.07.19.43.88.15,1.35.43a1.86,1.86,0,0,1-1,.25c.27.26.36.14.62.39a1.29,1.29,0,0,1,.91-.33l-.06.19c.41.06.52-.22,1,0,.77.42,1.6.75,2.21,1l0,.2c.5-.28,1.21.27,1.74.26.73.47,1.79.45,2.08.92a30.66,30.66,0,0,1,4.17,1.19l-.34.19c.33-.11.12.22.39.27-.22-.33.45-.17.68-.28a3.63,3.63,0,0,0,2.15.44l0,.2c.7-.18,1.3.35,2,.64.06.11.14.33.36.38a3.48,3.48,0,0,1,1.34-.14,7.56,7.56,0,0,1,1.49.65c1.73,0,3.3.77,5.05.95l.06.26c1.76,0,3.66.9,5.12,1l-.24.36c.41.23,1,.14,1-.16.41.23,1.15.07,1.35.46.43.18.59-.05,1,0a6.59,6.59,0,0,0,2.07.53l-.2-.07c-.11.06-.16.23.05.3s1.14.38.93-.17c.85.48,2.17.25,3,.81-.05-.14.18-.12.29-.19a7.64,7.64,0,0,0,2.27.53c.11.1-.25.18.07.26s0-.16.3-.19c1.34,0,2.57.8,3.77,1,2.15.16,4.32.73,6.35,1.06l0,.09c.74-.24,1.51.68,2.16.23.14.12.6.15.44.32.59-.16,1.47.52,2.31.33a.29.29,0,0,0-.2,0c.75.35,1.49.19,2.29.53-.09,0-.25,0-.29.12.29.25.83-.26.92.23.19,0,.18-.21.06-.21l.68.17.35.07.44.08c.77.13,1.56.25,2.39.36l5.29.71c.89.3.37.41,0,.48s-.52.06.79.12c-.12.07.6-.08.35,0,.52,0,.41.14.28.23s-.28.17.33.16a8.37,8.37,0,0,1,1.41-.1c.52.24.29.36.72.45a.63.63,0,0,0-.35.22h-.49c.25.14-.23.37-.66.58s-.84.43-.73.66l-5.28,2-2.71,1-1.12.45-.72.31c-1.93.81-3.83,1.64-5.77,2.43-3.89,1.42-7.55,3.16-11.52,4.55a2.83,2.83,0,0,0-2.06.63c0-.08.07-.12,0-.14.08.32-.69.33-.66.66-1.45.56-2.73,1.21-4.18,1.86.21-.13.22-.43-.05-.29l-.2.32-.08-.06c-.17.13-.31.37-.07.38-3.55,1.89-7.41,2.94-10.93,4.72a17.08,17.08,0,0,0-2.93,1.47,32.09,32.09,0,0,0-8.07,3.5A2.17,2.17,0,0,1,306.57,43.25Z"/><path class="cls-1" d="M287.06.31c0,.19.32.41,0,.5C287.07.66,287,.43,287.06.31Z"/><path class="cls-1" d="M295.12,5.42s.11.11.12.15-.26.06-.32-.05C295,5.55,295.05,5.47,295.12,5.42Z"/><path class="cls-1" d="M297.36,6.34c-.09.13-.61.06-.91,0Z"/><path class="cls-1" d="M299.27,7.67c.15.18.07.23-.17.14C299.1,7.73,299.2,7.72,299.27,7.67Z"/><path class="cls-1" d="M299.53,7.41a.49.49,0,0,1,.3.28C299.86,7.57,299.39,7.62,299.53,7.41Z"/><path class="cls-1" d="M304,9.37c.11,0,.39,0,.45.17C304.41,9.39,303.89,9.54,304,9.37Z"/><path class="cls-1" d="M306.27,9.83c.07,0,.09.07.19.06s-.06.16-.18.14Z"/><polygon class="cls-1" points="346.51 18.67 346.26 18.69 346.32 18.56 346.51 18.67"/><path class="cls-1" d="M353.76,21.09c.05.07-.33,0-.39,0S353.66,21.14,353.76,21.09Z"/><polygon class="cls-1" points="346.64 24.56 346.71 24.53 346.79 24.82 346.64 24.56"/><path class="cls-1" d="M357.6,23.66c1.36.12-.68-.36.9,0A1.14,1.14,0,0,1,357.6,23.66Z"/><path class="cls-1" d="M3.27,93.13a41.15,41.15,0,0,1,6.05-4.22c2.24-1.35,4.49-2.77,6.49-4.14.48-.3.09.44,1.15-.28A59.17,59.17,0,0,1,24.21,80c1.38-.75,2.81-1.49,4.21-2.19s2.85-1.25,4.16-1.81l-.25.26c1-.42,2-1.37,3.05-1.85,0,.06-.27.27,0,.24.15-.34,1.8-1.05,2.16-1.43.45-.13.49.06,1.06-.12l.47-.54c1.35-1.38,4-2,6.08-3.38-.09.11-.29.25-.08.22,3.47-2,8.06-4.09,12.08-6.11-.12.16-.2.39.08.38.09-.34,1.3-1,2.4-1.54.62.06,1.8-1,3.17-1.43l-.09.1c.85-.68,1.5-.43,2.14-1.1l.7,0c.26-.56,1.47-.39,2.19-.91l-.06-.07c.72-.41,1.18-.38,1.85-.73h.09c1.59-.78,2.62-1,2.46-1.24.67,0-1.53.77-.5.74,2.61-1.32,5.36-2.37,8.12-3.44L88,50.93a4.28,4.28,0,0,1,1.25-.17c.52-.28,2.06-.76,2.51-1.1-.18.07.41,0,.71,0,1.05-.23,1-.71,2.14-.94-.41.22-.53.37-.34.44a21.48,21.48,0,0,1,3.23-1.4c-.16.11-.42.23-.34.31,1.13-.68,2.25-.69,3.26-1.22l-.34.31c1.79-.36.38-.54,1.92-.91-.34.18-.19.2-.24.3a31.26,31.26,0,0,1,5-2c-.08.05,0,.09,0,.09,1.51-.5,3.14-.88,4.78-1.52.63-.11-.07.49,1.52-.06-.16-.34,2.7-1,1.63-1.09a39.07,39.07,0,0,0,4.51-1.27c-.58.32.8.23-.34.61l.93,0c-.09.18-.91.21-.58.31a24.76,24.76,0,0,1,2.74-.88A17.51,17.51,0,0,1,125.47,39c-.78.36.57.27,0,.48l2.25-1.33c.57-.17.2.25,1-.07-.07-.08.28-.24.52-.38s2.38-.73,2.73-.44c.29.07-.93.32-.25.28,1.07-.29,1.08-.43,2.15-.72l0,.05c.72-.14,2.05-.71,1.23-.7-.5.12.24.16-.51.25a9.12,9.12,0,0,1,2.75-1c-.35.14-.28.23-.4.36a41.14,41.14,0,0,1,4.48-1.56c0-.18-.53.45-.79.41,2.13-.25,4.21-1.33,6-1.39-.28.09-.21-.21-.18-.17,1-.21,1,.05,1.65-.2.09.13.8-.23,1.46-.44.33-.18.19,0-.39.19a36.37,36.37,0,0,1,6.84-1.59,5.49,5.49,0,0,1,1.76-.72l-.15.26c.49,0,1.67-.36,1.8-.18,1-.5-4.06,1.07-2.66.56.41.11,1.93-.77,1.68-.4a14.16,14.16,0,0,1,2.93-.65c-.29,0-.75.48,0,.3,1.42-.34.39-.19,1.53-.51l.7-.24c0-.22,1.29-.23.71-.36.21.14,2.05-.54,2-.13l-.14.32a5.53,5.53,0,0,0,1.42-.7c.09,0,.26,0,.24.1,0-.46,1.48-.23,2.16-.7,1.33-.08,3.3-.57,4-.41a13.53,13.53,0,0,1,3-.74c-.22.08-.53.15-.57.26a4.22,4.22,0,0,0,1.53-.33,18.78,18.78,0,0,0,2.29,0c1-.3.6-.47.67-.64,1,.3,2.77-.7,4-.48-.34.11-1.42.43-.58.41,1,.3,1.79-.6,3.29-.61l-.41-.31c.68.13,2.13-.53,2-.14.48-.21,1.75-.15,1.54-.47a36.08,36.08,0,0,0,4-.52,9.53,9.53,0,0,1,3.38-.08c.34-.1,1.22-.15,1-.31-.61-.12-.79.24-1,.13.31-.05.36-.15.39-.2.76,0,1.36-.07.68.31,1.71,0,1.65-.82,3.8-.95-.08.16.09.19.71.09l1.16-.4c1.38-.12.82.23.88.47a7.15,7.15,0,0,0,2-.46l.93.19c-.68-.14.59-.23.93-.32l-.34.1a5.14,5.14,0,0,0,1.42-.15,4.12,4.12,0,0,0-1.48-.1c.37-.16,1-.19,1.44-.37-.14.26,1.22,0,1.81,0s.74-.3.94-.31c0,.12,1.1-.1.59.14-.22.06-.54-.07-.9.08.45.05.42.27,1.33,0,.68-.19-.23-.46,1.1-.44a4,4,0,0,0-.65.31h1.24l0-.23c.18,0,.06.07.14.1.34-.28,1.88-.27,2.13-.57.62-.08,1.32,0,1.92,0l-.11,0a6.26,6.26,0,0,0,2.29-.34l0,0a9.31,9.31,0,0,0,1.82-.32c1,.09.41.81,1.5.44,1-.09,1.56-.54,1.13-.65,1.85,0,3.89-.54,5.62-.34.25-.11.08-.15.62-.25,2.7-.16,5.66-.7,7.84-.39-.78.14,0,.22,0,.35.63-.24.79.16,1-.2-.08-.2,0-.3-.78-.33a25.44,25.44,0,0,1,4.94-.23c-.45-.07-.11-.15.24-.24-.1.33,1.09.31,2,.14l.12-.21.59.17c.35-.09.36-.44,1.26-.29a.46.46,0,0,0,.27.19,10.81,10.81,0,0,1,3.23-.41l.84.25c.43-.05,1.15-.25.38-.3a15.71,15.71,0,0,1,3.39.29,50.46,50.46,0,0,1,10.68-.93l-.09.15c.92.11.47-.27,1.12-.19-.3.15.71.29,0,.48a7.94,7.94,0,0,0,2.55-.39c.13-.2-.68.14-.52-.11.14-.07,1.83.1,2-.19.33.11.08.32-.1.45l.81-.15c1,.32-2.24.64-1.2,1l.75-.06c.71.29-2,.38-.1.45.81-.15,1.5-.58.77-.7,1.69-.1.78-.7,2.59-.69.5.16-1.45.05-1.1.29a13.42,13.42,0,0,0,2.48-.08c-.85-.1-.14-.4.41-.46.93.13-.6.28.71.3.22-.17,1.42-.3.38-.41.47-.39,1.36.09,2.07-.21.43.26-1.34.63.1.75-.23-.25,1.77-.37,1-.74.56.07.62.27.21.43.81.15,2-.48,2.22,0l.28-.26c.25.09.61.16,1,.3.71,0,2.29-.34,2.22.06.23,0,1.85,0,1.23-.29-1-.18-1.16.19-1.72-.18a3.42,3.42,0,0,0,2-.13l.09.15c.35-.05,1.15,0,1.36-.18-.26.09-.13.19.15.23l.37-.23c1.41-.11.32.41,1.7.36l-1.05.17a8.52,8.52,0,0,0,1.35.12c.26-.21.74-.47,1-.63.78-.08.35.25,1.11,0l-1,.24c-.15.07.67.37,1.7.39.66-.06,1.69-.35.65-.49.52,0,1.24.15.83.3,1.17-.05-.15-.23.86-.34.41.15,1.7.38,2.47.61l-1.07.33.71,0c-.92.27.45.23-.07.52a6,6,0,0,0,1.53-.1c-1.39-.52,1.59-.63,1.19-1.08,1.93-.08,1.17,1.11,3.19.49-.32-.13.64-.43-.58-.35,1.19.1.83-.41,2.23-.17-1.05.14,1.11.48-.41.69.11-.14-.84-.14-1.07-.11.49.19-.12.44,1.11.49.74,0,1.76,0,1.62-.22s-1.14,0-.65-.26c1.49,0,1.72.37,2.36-.06-.94,0-1.17-.27-1.14-.44l1.09-.07-.22.16c1.75.19.53-.28,2.23-.17l.78.36c-.41.27-2.46-.22-2.18.26a19.1,19.1,0,0,1,2.51,0c-.23,0-.55,0-.78.06a3.51,3.51,0,0,0,2.35.38c.82-.1.22-.15.25-.32,1.77,0,2.31-.12,3.45-.08-.25.32,2,.13.74.41a9.2,9.2,0,0,0-3.77,0c.62.43-1.39-.13-1.79.26,1.42.08,1.33.47,1.55.74a4.11,4.11,0,0,0,1-.08c.18-.23-.33-.26-.35-.51a14.67,14.67,0,0,0,4-.1c.53.14.34.38-.28.37,1.88,0,3.89.2,5.67.38-1.13-.47,2,0,1.24-.35-1-.15-1.76-.48-1.22-.63.6.07,0,.17.21.28.78-.17,1.16.42,1.94.13-1.73,0-.37.46-.71.75,1.25-.09-.07.22,1.16.3a40.34,40.34,0,0,1,4.15-.07,42.2,42.2,0,0,0,5.89.48c.79.23.22.53,1.09.67s-.73-.45.77-.15l-.15.06c.46-.05,2.75.48,3.25,0l-.51.34a2.58,2.58,0,0,0,.79,0c0,.13.32.27-.15.31a10.76,10.76,0,0,0,3,.25l-.63-.29c1.76,0,2.9.36,4.58.47l-.07.21h1c-.27.18.63.43,1.18.32l-2.66.23c-.7-.21.82-.18.39-.45a4,4,0,0,0-2.19-.16,3.67,3.67,0,0,0,1.09,0c.16.33-.74.21-1.21.37.32,0,.75.16.83.07a9.53,9.53,0,0,1-2.27-.07c.7,0-.35-.22-.08-.28-.11.26-1.09.24-2.35,0-.86-.41-2.38,0-3.83-.25a7.4,7.4,0,0,1,2.29-.4c-.9-.23-1-.09-1.92-.31a4.39,4.39,0,0,1-2,.46l-.05-.21a10.11,10.11,0,0,1-2.49.13c-2.36-.28-4.79-.47-6.6-.64L331.8,21c-1,.37-3.36-.05-4.73.05-2.29-.36-5-.11-6.18-.51-4.07-.08-7.64-.06-11.85-.29l.72-.26c-.77.18-.49-.19-1.23-.18.84.27-1,.27-1.57.43a26.14,26.14,0,0,0-5.95.08l-.06-.2c-1.7.35-3.7-.05-5.79-.13a3,3,0,0,0-1.24-.26,20.32,20.32,0,0,1-3.41.49c-1.22,0-3.19-.11-4.43-.24-4.58.5-9.26.2-14,.6l-.35-.23c-4.6.63-10.29.3-14.21.77l.36-.42c-1.24-.07-2.81.23-2.48.5-1.24-.07-3.08.34-3.88,0a12.45,12.45,0,0,0-2.58.38,50.29,50.29,0,0,0-5.86.32h.6c.25-.1.26-.28-.33-.27-.88.17-3.28.1-2.36.53a30.3,30.3,0,0,0-4.24.24,25.74,25.74,0,0,1-4.18.24c.22.11-.4.19-.65.3a62.78,62.78,0,0,0-6.36.49c-.36,0,.55-.27-.36-.21-.53.1,0,.18-.65.3-3.59.59-7.33.51-10.6.91l-8.8,1.19-8.63,1.11.05-.1c-1.81.6-4.41.27-5.82,1-.45,0-1.68.21-1.38,0-1.44.48-4.18.38-6.27,1a1.9,1.9,0,0,0,.53-.14c-2.2.1-4.05.74-6.35,1,.22-.08.63-.19.69-.3-.91,0-2,.78-2.58.4-.5.1-.31.3,0,.23-2.5.35-5.06.84-7.65,1.36S162.55,32.41,160,33c-3.75.48-.39-.73-3.23.21-.25,0-.13.21-.19.12-1.1.36-1.87-.15-2.6.25.39.22-.48.26-.47.44-2.3.27-2.8.13-4.52.76l.1-.18c-2,.91-4.44,1.25-6.08,2.14-2.84.72-5.68,1.34-8.45,2.14l-8.29,2.33c-5.51,1.48-10.89,3.3-16.36,4.94l-4.06,1.19-4,1.34-8,2.7c-1.33.46-2.67.88-4,1.37l-4,1.47c-2.65,1-5.32,1.94-8,2.89A16.38,16.38,0,0,0,72.37,59c.08-.11.25-.19,0-.17,0,.36-1.9.83-2,1.23-3.93,1.59-7.52,3.13-11.51,4.89.61-.32.81-.71.08-.35l-.7.55-.16,0c-.49.28-1,.68-.41.54-2.45,1.22-4.92,2.37-7.4,3.5l-3.72,1.67-1.85.82-1.83.89C38,75,33.12,77.23,28.42,79.83c-2.28,1.14-5.37,3-7.74,4.48L15.28,87C13.53,88,11.85,89,10.16,90,6.79,92,3.45,94.07,0,96.43,0,96.43.45,95.14,3.27,93.13Z"/><path class="cls-1" d="M356,23.47c-.27-.2-1.21-.4-.42-.53C355.62,23.11,356.09,23.34,356,23.47Z"/><path class="cls-1" d="M330.62,19.38s-.36-.09-.44-.13c.32,0,.62-.11.87,0C330.73,19.24,330.77,19.32,330.62,19.38Z"/><path class="cls-1" d="M324.08,18.85a8.29,8.29,0,0,1,2.34-.13Z"/><path class="cls-1" d="M318,17.94c-.52-.15-.37-.21.34-.17C318.39,17.85,318.15,17.88,318,17.94Z"/><path class="cls-1" d="M317.55,18.25a2.51,2.51,0,0,1-1-.22C316.56,18.16,317.73,18,317.55,18.25Z"/><path class="cls-1" d="M304.29,17.33a3.21,3.21,0,0,1-1.31-.06C303.31,17.4,304.54,17.12,304.29,17.33Z"/><path class="cls-1" d="M298.11,17.41a1.74,1.74,0,0,0-.51,0c-.36-.08,0-.18.33-.18Z"/><polygon class="cls-1" points="186.21 25.46 186.86 25.29 186.78 25.45 186.21 25.46"/><path class="cls-1" d="M138,35.05c-.63.24-.49,0-.6,0C137.94,34.87,137.19,35.25,138,35.05Z"/><polygon class="cls-1" points="112.57 42.74 112.77 42.68 112.78 42.99 112.57 42.74"/></svg>