<svg id="레이어_1" data-name="레이어 1" xmlns="http://www.w3.org/2000/svg" viewBox="0 0 84.12 36.08"><defs><style>.cls-1{fill:#fff;}</style></defs><title>arrow1</title><path class="cls-1" d="M.22.05C-.1,0,.35.22,0,0A.16.16,0,0,1,.22.05Z"/><path class="cls-1" d="M80.4,33.26c-1.1-.13-2.15-1.09-3.28-1.39-.12-.05.13-.17-.16-.26a11.42,11.42,0,0,1-3.7-2h.1c-.21-.16-.57-.13-.81-.27,0,0,.11,0,.07-.09-.11.08-.46-.16-.6-.13s0-.17-.13-.28l-.2.06c-.53.09-.94-.48-1.54-.59,0,0,.1,0,.07-.06a25.54,25.54,0,0,1-3-1.19c.06,0,.13-.09.1-.16-.11.1-.42,0-.69-.11,0-.18-.49-.09-.76-.31h0c-.29,0-.29-.24-.55-.17l-.09-.17c-.18.14-.27-.25-.5-.24v0c-.2,0-.24-.18-.42-.22v0c-.4-.13-.57-.34-.63-.19-.08-.17.39.12.26-.14a35.86,35.86,0,0,1-3.83-1.64c-.12-.12-.2-.18-.21-.25a2.66,2.66,0,0,0-.63-.17c.05,0,0-.12-.11-.15s-.32,0-.54-.14c.12,0,.17,0,.17-.09a2.64,2.64,0,0,1-.81-.22c.05,0,.11,0,.12,0-.33,0-.49-.26-.76-.3l.12,0c-.34-.28-.19.13-.5-.09.09,0,.08,0,.11-.06a5.48,5.48,0,0,1-1.21-.37,0,0,0,0,0,0,0,9.9,9.9,0,0,0-1.09-.44c-.12-.1.13-.19-.24-.32-.07.18-.65-.2-.52.08a4.49,4.49,0,0,0-1-.48c.17,0-.05-.28.21-.18l-.15-.18c.06-.06.19.11.17,0a4.54,4.54,0,0,1-.65-.23,2.26,2.26,0,0,1-1-.06c.21,0,0-.23.11-.2l-.68.08c-.14,0,0-.15-.18-.19,0,.05-.1,0-.17.06s-.56-.2-.54-.39.22.06.11-.07-.28,0-.52-.15v0c-.15-.09-.5-.13-.37,0s0-.12.15,0a1.28,1.28,0,0,1-.68-.16c.09,0,.1,0,.15-.07A5,5,0,0,1,48,18.64c0,.07.2-.09.23,0-.41-.3-1-.25-1.33-.57.07,0,0,.12,0,.1-.22-.11-.16-.22-.32-.24,0-.07-.19,0-.35-.1s0,0,.11,0a5,5,0,0,1-1.55-.58c0,.05-.36,0-.47,0l.09-.08C44.29,17,44,17,44,16.87c-.29,0,1,.28.6.24,0-.12-.52,0-.39-.14-.22-.09-.49-.06-.66-.25.06,0,.25-.07.06-.14s-.11,0-.38-.06l-.18,0c-.05.09-.27-.14-.2,0,0-.11-.48-.15-.38-.3l.1-.12c-.14-.05-.28.05-.41.06s0-.06,0-.08c-.11.19-.32-.16-.55-.07-.26-.19-.73-.31-.81-.49a1.54,1.54,0,0,1-.71-.19c.06,0,.13,0,.16,0-.13-.13-.19-.09-.35-.11,0,0-.27-.25-.41-.4s-.22.11-.27.17c-.11-.28-.67-.12-.85-.41.09,0,.36,0,.2-.09-.11-.29-.46,0-.75-.25v.2c-.1-.16-.51-.1-.41-.26-.13,0-.36-.21-.39,0-.47-.36-1.32-.45-1.53-.87-.09,0-.27-.11-.26,0s.2,0,.22.08a.11.11,0,0,0-.12,0c-.15-.11-.27-.17-.06-.24-.33-.26-.49.12-.94-.13.05-.06,0-.1-.11-.14h-.31c-.3-.15-.11-.22-.07-.34-.17,0-.37-.13-.48-.07l-.14-.23c.1.17-.16,0-.25,0h.09c0-.06-.21-.1-.31-.13s.17.19.27.25c-.1,0-.23,0-.36,0,.08-.1-.24-.18-.36-.25s-.21,0-.25,0S31.81,12,32,12s.09.1.2.08c-.08-.08,0-.18-.26-.18s0,.24-.31,0c.08,0,.12,0,.19-.06l-.25-.16-.05.1s0,0,0-.06-.42-.13-.53,0-.26-.18-.39-.24h0a.7.7,0,0,0-.53-.15l0,0a.83.83,0,0,0-.43-.09c-.19-.17.08-.42-.22-.39s-.42.05-.36.15c-.37-.23-.89-.23-1.21-.53-.07,0,0,.06-.17,0A6.31,6.31,0,0,1,26,9.75c.19,0,.06-.1.07-.16-.17,0-.13-.16-.24,0s0,.14.1.24a3,3,0,0,1-1.08-.45c.09.08,0,.08-.09.08.08-.14-.17-.26-.39-.29l-.06.09-.09-.15c-.09,0-.16.16-.32,0a.17.17,0,0,0,0-.12,1.18,1.18,0,0,1-.76-.15L23,8.62c-.1,0-.29,0-.14.1-.35-.22-.59-.32-.67-.48a6.29,6.29,0,0,1-2.46-.59l.05-.06c-.18-.13-.15.09-.28,0,.09,0-.1-.2.09-.23-.27-.17-.42,0-.62,0s.17,0,.09.1-.38-.22-.47-.1c-.06-.08,0-.16.1-.2h-.21c-.16-.24.61-.1.45-.38l-.18,0c-.1-.2.5,0,.1-.21-.2,0-.43.15-.29.27-.38-.1-.29.26-.68.1-.09-.12.32.1.29,0s-.4-.08-.56-.18c.17.12,0,.21-.17.19s.18-.09-.1-.2c-.08.06-.37,0-.16.16-.17.14-.28-.15-.49-.07-.05-.16.4-.19.11-.36,0,.14-.46,0-.35.27-.11-.08-.09-.18,0-.23-.15-.13-.51.07-.48-.19l-.11.1a2.49,2.49,0,0,1-.17-.21c-.16-.06-.57,0-.49-.2-.06,0-.41-.13-.32,0s.29,0,.35.21c-.11-.19-.33-.09-.47-.09V6c-.08,0-.26-.07-.33,0s.06-.08,0-.12l-.12.08c-.33,0,0-.22-.32-.29h.26c-.05,0-.12-.14-.28-.16s-.24.17-.31.23,0-.14-.24-.09l.26,0s-.09-.22-.32-.3-.44.06-.23.19c-.11,0-.25-.15-.13-.2-.28,0,0,.12-.25.11-.07-.1-.33-.29-.47-.45l.3-.09-.16,0c.25-.07-.07-.14.1-.24a.76.76,0,0,0-.37-.06c.24.34-.45.2-.43.44-.45-.09-.1-.6-.65-.42,0,.08-.21.16.08.2-.26-.12-.26.14-.54,0,.26,0-.18-.3.2-.31-.05.07.17.12.23.12s.09-.21-.18-.3-.4-.11-.41,0,.26.08.11.16c-.34-.07-.34-.27-.54-.1.21,0,.22.19.19.27l-.26,0L10,4.39c-.37-.19-.16.1-.53,0l-.12-.21c.13-.11.53.24.53,0-.24-.09-.36,0-.57-.14a1.21,1.21,0,0,1,.19,0c-.09,0-.08-.36-.49-.3-.2,0-.07.06-.1.14-.41-.1-.55-.06-.81-.13.1-.14-.45-.16-.11-.23a1.07,1.07,0,0,0,.86.2c-.08-.24.3.13.45,0-.31-.11-.24-.3-.25-.44a.66.66,0,0,0-.24,0c-.08.11,0,.14,0,.26a1.73,1.73,0,0,0-.93-.14c-.1-.09,0-.2.12-.16a9.46,9.46,0,0,1-1.27-.43c.2.27-.46-.11-.34.11s.34.31.2.35,0-.08,0-.14c-.21.05-.21-.25-.43-.14.4.06.14-.21.26-.33-.3,0,0-.1-.23-.19a5.7,5.7,0,0,1-1-.12,4.17,4.17,0,0,0-1.33-.41c-.16-.13,0-.26-.17-.35s.11.23-.2.05l0,0c-.11,0-.59-.31-.77-.1l.16-.15a.41.41,0,0,0-.19,0c0-.06,0-.13.08-.14C2.65,1,2.38,1,2.14,1l.12.15a8.35,8.35,0,0,1-1-.29l0-.11H1C1.1.63.91.5.76.55L1.43.46c.15.11-.22.08-.14.21A.49.49,0,0,0,1.8.78a.4.4,0,0,0-.26,0c0-.17.2-.1.33-.17-.07,0-.16-.09-.19,0a1.09,1.09,0,0,1,.54.06c-.18,0,.06.12,0,.14s.29-.09.57,0,.57.06.89.21a1.2,1.2,0,0,1-.6.13c.19.13.23.07.42.2A.75.75,0,0,1,4,1.15l0,.1c.26,0,.31-.12.61,0,.52.22,1.07.39,1.48.53l0,.1c.3-.14.78.17,1.12.17.49.27,1.16.28,1.37.53a19.08,19.08,0,0,1,2.69.78l-.2.08c.2,0,.08.12.25.16-.15-.18.28-.07.43-.12a3.06,3.06,0,0,0,1.37.35l0,.1c.44-.06.84.26,1.29.45a.44.44,0,0,0,.24.22,2.41,2.41,0,0,1,.84,0,6.41,6.41,0,0,1,1,.45,32.76,32.76,0,0,1,3.2.91l0,.14a30,30,0,0,1,3.22,1l-.16.16c.26.16.65.18.63,0,.25.16.72.16.83.39.27.14.38,0,.62.1a5.32,5.32,0,0,0,1.29.51L26,8.26c-.08,0-.11.1,0,.16s.71.33.6,0c.51.34,1.36.39,1.84.78,0-.08.12,0,.19-.06a8,8,0,0,0,1.4.56c.07.07-.16.06,0,.15s0-.08.19-.06a24.68,24.68,0,0,1,2.31,1c1.33.4,2.66,1,3.9,1.47l0,0c.49,0,.9.57,1.33.45.08.08.37.17.26.23.38,0,.87.49,1.41.53a.27.27,0,0,0-.13,0c.44.29.91.33,1.38.63-.06,0-.16,0-.19,0,.16.17.54,0,.56.26.11.05.12-.07.05-.09a36.71,36.71,0,0,0,3.47,1.34c.76.48-.11.39.61.5,0,.07.07-.06.06,0,.28,0,.29.41.51.37,0-.17.15,0,.19-.11.46.3.51.47,1,.54l-.06.05c.55,0,1,.34,1.53.28,2.57,1.07,5,2.05,7.55,3.12s4.84,2.17,7.26,3.44a2.28,2.28,0,0,0,1.21.68s-.08,0,0,.06c.1-.14.45.19.58.08.89.47,1.74.83,2.68,1.28-.16-.05-.29,0-.11.11h.23v.06c.13,0,.29,0,.19-.08,2.4,1,4.58,2.39,6.86,3.53a16.13,16.13,0,0,0,1.91.93,29.08,29.08,0,0,0,5,2.79A1.43,1.43,0,0,1,80.4,33.26Z"/><path class="cls-1" d="M.6.14c0,.1.25.2.05.26C.65.32.56.2.6.14Z"/><path class="cls-1" d="M6.13,2.71s.07.06.09.08-.16,0-.21,0S6.09,2.73,6.13,2.71Z"/><path class="cls-1" d="M7.58,3.23c0,.07-.37,0-.56,0Z"/><path class="cls-1" d="M8.85,4c.1.1.06.12-.1.07C8.75,4,8.81,4,8.85,4Z"/><path class="cls-1" d="M9,3.84A.3.3,0,0,1,9.2,4C9.22,3.93,8.93,3.94,9,3.84Z"/><path class="cls-1" d="M11.89,5c.07,0,.25,0,.29.12C12.12,5.07,11.8,5.12,11.89,5Z"/><path class="cls-1" d="M13.3,5.4s.06,0,.11,0,0,.08-.1.07Z"/><polygon class="cls-1" points="38.08 14.49 37.92 14.46 37.97 14.41 38.08 14.49"/><path class="cls-1" d="M48.74,19c.16,0,.07.1.09.12S48.92,19.06,48.74,19Z"/><polygon class="cls-1" points="54.59 21.21 54.55 21.19 54.62 21.06 54.59 21.21"/><path class="cls-1" d="M76.64,24.46c-.08-.06-.08.12-.08,0S76.66,24.41,76.64,24.46Z"/><path class="cls-1" d="M67.24,35.5c.21-.45.71-.19,1-.5,0,0,0,.21.11.14A1.11,1.11,0,0,1,69.6,35v.06c.08,0,.14-.18.23-.17s0,.06,0,.11c0-.12.14-.08.15-.17s.06.13.11.18l0-.15c.07-.33.32,0,.47-.22,0,0,0,.06,0,.08a2.66,2.66,0,0,1,.92-.37.28.28,0,0,0,0,.18c0-.14.09-.19.17-.23.06.14.13-.15.24-.09v0c.06-.16.13.07.16-.12l.06.11c0-.21.13.09.17,0v0c0-.06.09,0,.14,0v0c.12-.07.2,0,.18-.13.06.12-.11.08,0,.25A3.16,3.16,0,0,1,73.86,34a.31.31,0,0,1,.1.13s.15,0,.18-.13,0,.08.06.08.06-.18.16-.12a.16.16,0,0,0,0,.15c.06-.13.15-.12.23-.17a.15.15,0,0,0,0,.1c.08-.15.17,0,.24-.08l0,.09c.14.1,0-.19.14-.14s0,.07,0,.11c.09-.18.26-.14.36-.21s0,0,0,0,.23,0,.35-.08,0,.23.12.18.2-.09.11-.29c.11,0,.28.07.34,0,0,.08.07.23,0,.25l.07.11c0,.07-.07,0,0,.07s.16-.1.2-.07.13-.34.25-.37c-.05.08,0,.2,0,.23l.16-.36s0,.14.07.09a.25.25,0,0,1,0-.12s.17-.06.2.12-.06,0,0,.1.08-.07.16-.08v0s.15-.09.08-.19,0,.11,0,.06a.21.21,0,0,1,.2-.15s0,.08,0,.13a.87.87,0,0,1,.32-.27c0-.09,0,.16,0,.11.16.11.3-.19.44,0,0,0,0-.12,0-.1s.08.13.13.08.06,0,.1-.05,0,0,0,.05a.48.48,0,0,1,.49-.1c0-.05.09-.19.13-.18v.11c0,.07.12,0,.13.08.07-.14-.29.14-.19,0,0,.1.14-.19.12,0,.07,0,.14-.14.21,0s0,.16,0,.15,0-.05.11-.1l0,0c0-.11.1,0,0-.11,0,.09.15-.06.15.12v.15s.07-.16.1-.23a.19.19,0,0,1,0,.07c0-.22.11,0,.15-.16.1.07.24,0,.29.13.07-.07.14-.15.22-.11s0,0,0,.08.07,0,.11,0,.11.13.14.21c0-.07,0-.19,0-.26.09.21,0-.15.15.05,0,0,0,.1,0,.16.14.21,0-.16.12-.06L80.82,33c.1.11,0-.11.13.08,0-.07.11,0,0-.12.23.14,0-.09.52.21,0,0,0,0-.08-.09s.06.07,0,0-.06-.06-.09-.08a1.08,1.08,0,0,1,.3.19c.25.1-.36-.29-.2-.22s.17.09.18.08L81.32,33c.09,0,.33.16.55.27h0s-.06-.07-.22-.15l.26.09a.41.41,0,0,1-.21-.12l.06,0c.09,0,0,0,0-.05a.81.81,0,0,0-.19,0l-.21-.12c.21.09.12,0,.13,0s-.19-.09-.19-.09,0,0,.15,0-.09,0,0,0,.24.07.09,0-.37-.11-.27-.11l.2.07h.06l-.16-.05.07,0c-.18-.06-.09-.07-.28-.12,0,0,.08,0,.09,0h0c.07,0,0,0-.11-.07h0s0,0-.12,0c.08,0,.48,0,.29-.07,0,0-.26,0-.33,0s-.16-.05,0-.17a.26.26,0,0,1-.1,0c0-.15-.33-.25-.23-.49.07,0,.09-.06.15-.1-.11,0,0-.1-.1,0s-.12.08-.13.15-.2-.21-.16-.31c0,.05-.06.05-.1,0,.14-.08.11-.16,0-.18l-.08,0,.06-.09s-.19.1-.14,0l.07-.07c-.1,0-.27,0-.24-.12l.08-.13s-.13,0-.13.06c0-.15,0-.22,0-.32a.81.81,0,0,1-.68-.47l.07,0c0-.09-.13.05-.11,0s.1-.13.2-.13-.18,0-.24-.06.08,0,0,.06,0-.15-.14-.08a.62.62,0,0,1,.19-.12h-.09c.1-.16.34,0,.47-.22l0,0c.1-.13.22,0,.19-.12a.41.41,0,0,0-.32.15c-.1-.08-.31.15-.38,0s.08.08.16,0-.12-.07-.12-.13-.16.12-.2.1.14,0,.1-.13-.18,0-.19.1c-.18.08,0-.11-.16-.07.09-.1.31-.1.31-.22-.1.09-.22,0-.35.15a.23.23,0,0,1,.17-.14c0-.09-.27,0-.07-.14l-.12.06s0-.08.08-.15-.24,0-.07-.14c0,0-.09-.1-.18,0s.13,0,0,.15c.1-.12-.07-.07-.14-.08l.06,0s0-.06-.13,0a.14.14,0,0,0,.09-.07l-.11,0c-.11,0,.15-.14.07-.2h.12s0-.09,0-.11l-.31.13c-.06,0,.09-.09,0-.07l.15,0s.11-.14.07-.2-.23,0-.23.11a.1.1,0,0,1,.08-.13c-.08-.05-.09.07-.18,0s.07-.2.13-.3l.19,0,0,0c.15,0,.07-.09.22-.15s-.07,0-.12-.05c-.14.22-.34.1-.5.24-.13-.08.39-.37,0-.29,0,.05-.22.09-.11.12s-.22.08-.2-.05.14-.2.31-.18c-.07,0,0,.08,0,.08s.19-.12.14-.19-.09-.09-.18,0,.06.06-.07.11,0-.19-.16-.1c.06.05,0,.13-.11.18l-.09,0,.08,0c0-.13-.15.06-.2,0l.1-.14c.14-.06,0,.18.23,0,0-.07-.15,0-.14-.12l.07,0s.23-.23,0-.22-.08,0-.15.08-.19-.07-.25-.13c.15-.08-.07-.13.13-.15-.06.09,0,.24.21.18s0,.1.22,0c-.06-.09.11-.2.21-.28s-.07,0-.1,0-.08.09-.19.16a.23.23,0,0,0-.28-.14c0-.07.13-.13.17-.1a.74.74,0,0,1-.22-.34c-.12.18-.12-.09-.22.05a.27.27,0,0,1-.18.23s.07-.05.1-.09c-.12,0,.09-.17-.08-.12.12.07.22-.11.36-.18-.12,0,.09-.06,0-.13a.94.94,0,0,1-.32-.14c0-.19-.17-.26-.24-.35s.2-.16.19-.23-.13.16-.12,0h0s0-.23-.24-.12l.18-.08s0,0-.07,0,.08-.08.13-.08-.09-.1-.14-.16l-.06.1c-.15-.05-.1-.18-.2-.26l.09-.06-.1,0c.1-.05.12-.14,0-.12h.33c0,.08-.15,0-.22.12s0,.15.13.1,0,0-.09,0c.12-.1.15,0,.25-.08s0-.06,0,0A.16.16,0,0,1,77,25c-.08,0-.06.08-.11.09.11-.07.19,0,.21.06s.18.08.2.19a.74.74,0,0,1-.34,0c0,.09,0,.06,0,.15s.25-.1.35-.06l-.08.06c.08,0,.21-.05.24,0a2.83,2.83,0,0,0,.22.43l-.08.06c.22-.06.2.16.33.18,0,.19.29.24.19.41a2.17,2.17,0,0,1,.58.63l-.15.05c.12,0,0,.07,0,.1s.17,0,.27,0c0,.17.18.25.33.29l-.08.06c.23,0,.17.2.23.34s-.09.12,0,.15.19,0,.34.06a.64.64,0,0,1,.1.32c.37.14.44.5.75.7l-.09.09c.4.13.44.59.71.75l-.19.09c0,.11.16.14.27,0,0,.11.2.13.1.27s.14,0,.2.08a.52.52,0,0,0,.22.36v0c-.05,0-.12.06-.11.1s.09.22.25,0c0,.12.08.19.16.27a.41.41,0,0,1,.16.33s.1,0,.16,0c.18.25.19.52.45.69,0,0-.17-.05-.12,0s.1,0,.19.06c.43.41.37.76.62,1.08a7.84,7.84,0,0,1,.68.84l-1.28,0,0,0c-.05.18-.73-.18-.67.11-.1,0-.24,0-.26-.11-.12.13-.58-.11-.77.07,0,0,0,0,0,0-.27-.1-.55.06-.68,0a.11.11,0,0,0,.05-.09c-.07-.09-.14.21-.19,0,0,0,0,.12,0,.11a3.1,3.1,0,0,0-1.11.17c-.27-.12,0-.39-.24-.21,0,0,0,.1,0,.05s-.14-.26-.19-.13,0,.08,0,.17c-.17-.08-.21-.21-.33-.09v-.08c-.14.22-.32.12-.43.38-.83.1-1.62.3-2.42.4s-1.57.23-2.4.19c-.21-.17-.22-.16-.42,0,0,0,0-.05,0-.07,0,.16-.15,0-.14.19a6.44,6.44,0,0,0-.88.13s0-.16,0-.14l0,.12,0,0s-.06.12,0,.16c-.74.26-1.54.06-2.28.25a1.26,1.26,0,0,0-.61.16,2.41,2.41,0,0,0-1.68.16S67,35.65,67.24,35.5Z"/><path class="cls-1" d="M76.72,24.55c-.06.07,0,.15-.18.17A1.45,1.45,0,0,1,76.72,24.55Z"/><path class="cls-1" d="M77.06,26.54s0,0,0,.05-.09,0-.06,0S77,26.55,77.06,26.54Z"/><path class="cls-1" d="M77.28,27c-.06,0-.17,0-.21-.05Z"/><path class="cls-1" d="M77.28,27.48c0,.07-.06.08-.09,0S77.25,27.5,77.28,27.48Z"/><path class="cls-1" d="M77.44,27.42s0,.06,0,.1S77.33,27.48,77.44,27.42Z"/><path class="cls-1" d="M77.8,28.32s.09,0,0,.08S77.7,28.36,77.8,28.32Z"/><path class="cls-1" d="M78.14,28.62s0,0,0,0-.07,0-.09,0Z"/><polygon class="cls-1" points="80.82 33.07 80.82 33.04 80.86 33.11 80.82 33.07"/><path class="cls-1" d="M77.56,33.26c0,.05,0-.06,0-.07S77.5,33.28,77.56,33.26Z"/><polygon class="cls-1" points="75.7 33.78 75.71 33.77 75.72 33.92 75.7 33.78"/></svg>