<svg id="레이어_1" data-name="레이어 1" xmlns="http://www.w3.org/2000/svg" viewBox="0 0 206.22 22.06"><defs><style>.cls-1{fill:#fff;}</style></defs><title>line6</title><path class="cls-1" d="M196.74,3.78c.1,0,.06-.08-.21-.1l-.21.07Z"/><path class="cls-1" d="M195,3.36c-.32,0-.7,0-.51.15.33,0,.4,0,.75-.07s.47.1.42.13a3.18,3.18,0,0,0,.57,0,3.63,3.63,0,0,0-1.26-.19C194.84,3.38,194.94,3.37,195,3.36Z"/><path class="cls-1" d="M168.57.68l.17,0Z"/><path class="cls-1" d="M152.13.25l.19,0C152.2.23,152.1.24,152.13.25Z"/><path class="cls-1" d="M149.32.14h.17A.51.51,0,0,0,149.32.14Z"/><path class="cls-1" d="M168.57.68l-.44,0S168.36.67,168.57.68Z"/><path class="cls-1" d="M191.3,3.1h.24l-.22,0Z"/><path class="cls-1" d="M175.81,1H176l.11,0Z"/><path class="cls-1" d="M181.37,1.45c-.13,0-.18.07-.23.1a.6.6,0,0,1,.28,0S181.41,1.48,181.37,1.45Z"/><path class="cls-1" d="M190.12,2.6h0Z"/><path class="cls-1" d="M171.84.72a.09.09,0,0,0-.05,0S171.81.71,171.84.72Z"/><path class="cls-1" d="M16.87,11.67v0S16.82,11.67,16.87,11.67Z"/><path class="cls-1" d="M10.43,12.18h.08a.17.17,0,0,0,0-.05Z"/><path class="cls-1" d="M144.18,0h0C144.34,0,144.26,0,144.18,0Z"/><path class="cls-1" d="M97.06,2.22c.54,0-.86.16,0,.19C96.93,2.38,97.73,2.23,97.06,2.22Z"/><path class="cls-1" d="M191.16,3.07l-.22,0Z"/><path class="cls-1" d="M97,2.41Z"/><path class="cls-1" d="M132.34.35l.13,0Z"/><path class="cls-1" d="M141.17.23h0Z"/><path class="cls-1" d="M127.77.6a1.13,1.13,0,0,0-.32,0h0A.71.71,0,0,1,127.77.6Z"/><path class="cls-1" d="M123,.8h0Z"/><path class="cls-1" d="M31.21,9.69l-.23,0C31.06,9.69,30.37,9.8,31.21,9.69Z"/><path class="cls-1" d="M191.31,3.06a.31.31,0,0,1-.15,0l.16,0S191.34,3.07,191.31,3.06Z"/><path class="cls-1" d="M127.6,1.27h0Z"/><path class="cls-1" d="M65.16,5.75l-.18,0Z"/><path class="cls-1" d="M124.6,1.39l-.43,0-.08,0Z"/><path class="cls-1" d="M31,9.64Z"/><path class="cls-1" d="M26.06,10.49c.72-.09.32-.15.47-.23.85-.15.4,0,.7,0,.53-.1.92-.25,1.32-.3,0,0,.11,0,0,0,.56-.16,1.68-.22,2.32-.42a.17.17,0,0,1,.09,0c-.12,0-.14-.1-.12-.14.32,0,.58-.15.71-.09a.82.82,0,0,0-.3.09l.34-.07c.31.06-.46.09-.45.17.65-.12,1.41-.3,1.91-.34.12.09-1.17.19-.49.19l-.78.06c.62.09-.47.05.1.15,1-.1,1.13-.19,2.16-.29.22-.09-.09-.08.13-.16,1.44-.28,1.18.11,2.23-.16a2.17,2.17,0,0,1,1.12-.27l-.24.15c1-.11.54-.24,1.59-.29-.18.07-.77.14-.62.13.68,0,.46-.12,1-.19l.12.09c1.05-.15,2.21-.37,3.37-.52-.06,0-.26.09,0,.09,1.47-.22,3.15-.35,4.58-.46l.53-.15c.13,0,.24,0,.11,0,.55,0,0-.06.28-.13s.42,0,.23,0a31,31,0,0,1,3.81-.51l-.2,0c.8,0,.88-.29,1.64-.28l-.14,0c1.74-.15,3.66-.44,5-.45.23-.15,1.73-.12,1.82-.31,1,0,.72,0,2.13,0,.38,0,.55-.17,1-.24l0,.09.62-.16.34.07L65,5.77c-.17,0-.37,0-.34,0a6.33,6.33,0,0,1,1.68-.06l1.6-.24a2.7,2.7,0,0,1-.51.13c.84-.18.16.08.94-.08-.11,0,.05-.06.07-.08a16.13,16.13,0,0,0,1.94-.16l-.12.08c1.19-.1,2.51-.27,3.85-.4-.49,0-.39-.1,0-.15l.16.08c.25-.08-.41,0,.1-.12s.35.08.06.14L75,4.79s-.1,0-.14.09a13.4,13.4,0,0,0,1.41-.14l0,0,3-.33c0-.09.44-.11.76-.21.81-.05,1.7-.05,2.67-.14.67-.1.19-.09.49-.16,0,.07,1,0,.52.08,1.16-.11,1.48-.14,2.94-.32-.16,0-.34,0-.25,0,.26,0,.61,0,.57,0H87c1.64-.25,3.82-.09,5.11-.35H92l1.35-.2c.63,0-.37.09.1.1C94.93,3,95.79,3.06,97,2.9c1,.16,3.32-.24,4.59-.18l-.07-.05a1.65,1.65,0,0,1,.63,0s-.35,0-.15-.07c2.75-.25,5.7-.31,8.54-.45,1,0,.57-.31,1.88-.25l-.36.12c2.08-.22,4.28-.21,6.32-.41a1,1,0,0,1-.32.07,5.65,5.65,0,0,0,1.6-.14c.32,0,.08.05.28.07.43,0,1.08-.14,1.31-.08,0,0-.12,0-.2,0,.29-.05,1.32-.06,1-.13.77,0,1.47-.11,2.08-.09.4-.11,1.32,0,1.44-.16,0,.14,1.35.05,1.84,0-.16.05.42,0,.23.09.56,0,1.07-.05,1-.12,1,.13,2-.19,2.63,0,1.65-.12,3.17-.21,4.66-.29-.05.14-1.64.06-1.58.2C135.77,1,136.58.83,138,.82c.36,0-.21.07-.33.09,1.4-.09,2.72-.06,4-.17l-.27.05c.25,0,.58,0,.55-.06l-.24,0c-.4-.09,1-.19,1-.24-.42.18,1.23.05.57.27.16,0,.37,0,.33-.08.24,0,.32,0,.07.08.89,0,.57-.1,1.37-.1,0,0-.16,0-.24.08a6.8,6.8,0,0,1,1.48-.09s0,0-.16,0c1.16,0,2-.16,3.26-.1-.38.13.43,0,.5.15l.68,0-.27-.06c.6,0,1.13-.08,1.64,0l-.44,0,1.12,0-.63,0c.6-.06-.07-.14.73-.11-.16,0,.6,0,.91.07h0a4.78,4.78,0,0,1,1.05,0c.11,0-.09.12,0,.15.29-.1,1.41,0,1.78-.13-.13,0-.13.08-.09.09l.24-.07c.28,0,.32,0,.28.08.83,0-.27-.15.73-.06a1.22,1.22,0,0,1-.21,0c1,.06,1.93,0,2.84.08.27.12-.8,0-.49.11,1.32,0,2.74-.05,4,0l-.23,0c.18-.15.95.11,1.59,0-.15,0-.21.09-.16.07.87,0,1.79,0,3.12,0l-.17,0c.51.05,1.36.06,1.91.1.17,0,.49,0,.3-.08,1.7.27,3.27.1,4.78.39-.18,0-.43,0-.29,0l1.3.06c-.1-.08-.17-.05-.43-.13a4.56,4.56,0,0,1,.85,0c-.59,0,0,.11.25.17,0,0,0,0,0-.06.67.17.13-.13,1.05,0l-.06,0c.35,0,.67,0,1,0,.14.09-.38,0-.4.07a10.67,10.67,0,0,1,1.51,0h-.77a5.34,5.34,0,0,0,.95.16h0l.89.11-.23,0a16.65,16.65,0,0,1,2.24,0c-.87.06-.15.06-.23.14.23,0,.57.1.47.12.42,0,.69.11,1.28,0,0,0,.45,0,.35.11.54,0-.12-.07-.07-.1.84,0,1.93.38,3.14.41,1,.08,1.24,0,2.21.09.31.09-.28.07-.28.07a8.55,8.55,0,0,0,1.4.19c-.1,0,0,.05.14.1.4,0,.28-.07.79,0a2.14,2.14,0,0,1-.41.06l1.42.08c.12.07-.3,0-.47.05a10.22,10.22,0,0,0,1.58.09l-.34-.08c.19,0,.09.08-.06.08-.47,0-.66-.12-.68-.15l.34,0a9.83,9.83,0,0,0-2.06-.26l.3-.08h-.72c-.15,0-.24-.13.1-.1-.48-.13-.44,0-.86-.14,0,0,0,0,0,0l-.49,0c.1,0-.07-.1.22,0-.85-.19-1.41-.1-1.72-.24h.07c-1.2-.13-.13.07-1,.06l-.58-.31-.13.07c-.12,0-.37-.06-.32-.09-.47,0,.08.05-.2.08-.59-.17-1.65-.19-1.77-.33-.22.06.57.1-.08.1-.16-.17-.74,0-1.28-.14.17-.07.69,0,.15-.1a7.76,7.76,0,0,1-1.53-.12,10.17,10.17,0,0,1-1.79-.06c.05,0-1.46-.17-2.18-.27h0a5.47,5.47,0,0,1-1.43,0c0-.06.12-.08.42-.09l-.51,0a2.61,2.61,0,0,1-.62,0l.14-.07c-.68-.05-1.38,0-2.25-.13-.05.07.68.27-.24.25,0-.05-.07-.12.18-.12a2.52,2.52,0,0,1-.45,0l.38,0c-.4-.06-.21.05-.53,0,0,0-.23-.06-.19-.1a2.41,2.41,0,0,0,.4,0,5.07,5.07,0,0,1-.93-.16s0,.08-.27.07c-.68-.05-.22-.1-.62-.14-.17,0-.6,0-.61.06A.65.65,0,0,1,170,.64c-.36,0-1.65,0-1.26.06h0c-1.15.05-2.39-.12-3.54-.12v0c-.68,0-1.52,0-2,0-.2,0-.47-.07-.39-.1a7,7,0,0,1-1.33,0c.52,0-.18,0,.54,0a8.14,8.14,0,0,0-1.57,0c.25-.07-.51-.11-.83-.1l.48.07c-.37,0-.69,0-1,0l.18-.1c-1.39-.16-2.51.11-3.57-.08-.37.07.76,0,.43.13-.64,0-1.31-.15-1.51-.15-.87-.06-.82.15-1.73.11.11,0,.22.13-.46.16s-.79-.15-.38-.17c.15,0,.22,0,.22,0,.2,0,.47,0,.22-.07l-.08,0c-.32,0-1.2,0-1-.09-.49,0-.21.06.15.08-.82,0-1.28,0-2.13,0,.13,0,.26.06.12.06-1.24,0-.54.07-1.38.08-.48,0,.17-.13-.68-.08-.51,0-.11-.1.1-.13a13.08,13.08,0,0,1-1.88,0l.4,0c-.24,0-.44,0-.64,0l.23.07c-.24,0-.44,0-.43,0-.25,0,.19.11-.3.18-.32,0-1,0-1.08-.06,1,0-.11-.09.74-.11-.17,0-.37,0-.61,0,0,0,0,0,.1,0-1-.09-.44.1-1.43.1.13-.05-.23-.1-.39-.09.4,0,.19.09-.17.13a6,6,0,0,0-1,.05h.37a5,5,0,0,1-.88.08s.4,0,.24,0c-.49.11-1.11-.07-1.8,0-.31,0,0-.1-.31-.12-.76.09-.83-.05-1.64,0,.24.06.28,0-.29.13l1.33-.09-.85.13c.4,0,.84-.07,1.08-.06-.4.07-.36,0-.17.1-.55-.09-1.08.1-1.72,0l0-.18c-1-.05-1.69.14-2.93.13l.4,0a8.36,8.36,0,0,1-1.17.07c0-.06-.21-.07-.38-.11,0,0-.91,0-1,.15L130.9.46c-1,0-1.14.2-2.1.21.29-.07-.15-.1.49-.17a1.91,1.91,0,0,0-.61.05c-.19,0-.89.11-1.18.06a1.55,1.55,0,0,1-.54.1s0,0,0,0-.56,0-.24.11c-1-.15-2.76.14-3.63,0L120.92,1s0,0,.12,0c-.88,0-.53.19-1.53.18-.51-.07.53-.08.21-.1-.15-.19-1.2.09-1.87,0L118,1c-.52,0-1.25.13-2.09.16,0,0,0,0,0,0a23.45,23.45,0,0,1-2.46.28c.25-.09.37-.06.21-.13-.36,0,.11.12-.61.18a3.27,3.27,0,0,1-.83-.12l.68,0a5.75,5.75,0,0,0-1.24.05l0-.05c-1,.06-1,.19-2.17.25l.12,0c-.61.16-.52,0-1.12.1l-.2-.11c-.4.06-1.4.21-2.12.28.4-.11,1.25-.21,1.77-.3a11.77,11.77,0,0,0-1.57.17,4.78,4.78,0,0,1,.53-.06,10.25,10.25,0,0,1-1.93.27c.13-.24-2.08.08-2.67-.06-1.4.18-2.79.16-4.43.28.59.14-.48,0-.37.21a3.29,3.29,0,0,1-.56,0l-1.17,0c-.28,0,.36-.07.32-.11-.83,0-.35,0-.91-.06.12.06-.28.12-.76.13l.67,0c-1.16.2-1-.07-2.19.13l.37-.09a22.06,22.06,0,0,0-2.81.38c-.11,0-.25,0,0-.09-1.45.1-3.2.42-4.33.43l.1-.06a3.09,3.09,0,0,1-.8.11s.11-.06,0-.05a6.52,6.52,0,0,1-1.07.14l.3-.07c-1.41.06-2.15.3-3.33.43,0-.14-1.12-.09-1.67,0l0,0c-1.65.14-2.78.37-4.29.57-1,0-3.2.25-4.72.31.23,0,0,.11-.29.15s-1,.18-.93,0h.12a5.76,5.76,0,0,0-1.57.05L68,4.86c-1.52-.1-3.9.49-4.73.37l-1.15.2V5.34c-1,.09-1.5.13-2.73.28l.25-.09c-.7.07-.85.34-1.49.41l-.21-.1c-1.21.13-2.45.15-3.63.39,0,0,0-.06.24-.08-.57,0-2.21.15-2,.3a8.07,8.07,0,0,0-1.9.26l.1-.09a6.07,6.07,0,0,1-1.32.32c-.19,0-.17-.05.07-.06-.61,0-.46.14-1.2.18L48.56,7a2.81,2.81,0,0,0-.91.2,4.57,4.57,0,0,1-1.29,0,2.13,2.13,0,0,1-.78.18c-.06,0,.08-.06.14-.08-1,.07-1.54.28-2.27.28a.21.21,0,0,0-.13,0l1.44-.16c0-.07-.68,0-.16-.18a13.51,13.51,0,0,1-2.1.4l-.09,0h.07a2.37,2.37,0,0,0-.41.06,4.91,4.91,0,0,0-.55,0,5.84,5.84,0,0,0-1.11.09c0,.09-.4.13,0,.14l.29,0,.14,0h0l.83-.11a2.9,2.9,0,0,1-.91.14l-.45.2C39.84,8,39,8.09,38.82,8a22,22,0,0,0-3,.57.72.72,0,0,1-.45,0,2.51,2.51,0,0,0,.45-.09A11,11,0,0,0,34,8.85c-.74,0,.4-.15-.6,0l.13-.05c-2,.07-3.18.68-5.4.75a.82.82,0,0,1,.26,0c-2.51.23-5.13.76-7.62.95a4.89,4.89,0,0,0-1.19.26l-.16-.06-.72.2c-1,.22-1.82,0-3.11.36l.18,0a9.79,9.79,0,0,1-1.42.17.9.9,0,0,1-.34.08l0-.05-1.14.25c-.9.1.11-.21-1.2,0-.48.09-1.36.34-1.17.35a1.28,1.28,0,0,1,.52,0l-.44.1c-.06.15-.37.34.73.27l.75-.2.25,0-.64.1a2.49,2.49,0,0,0,.85-.15,1,1,0,0,0,.33,0L13.5,12c.1,0-.32.16.19.12.34-.12-.35-.08.22-.2.37,0,.27.08.69,0,.07,0,0,.06-.19.1a9.3,9.3,0,0,0,1.19-.26c.39,0,1.28-.2,1.26-.07a7.72,7.72,0,0,1,1-.25c-.62.25,1.3-.17,1.16,0,.45-.21,1.7-.3,2.52-.5a.53.53,0,0,1-.21.06c.48-.05.62,0,.92-.05,0-.12.78-.24,1.16-.37.6,0-.33.18-.13.27,0-.09,1-.23.78-.28a1.66,1.66,0,0,1,.63,0c.06-.16.41-.08.76-.22.65,0,.18.11.88,0C26.68,10.36,26.06,10.49,26.06,10.49ZM42.74,8.12h0l-.34.05ZM44.15,8,43.54,8c-.06,0,0-.06.14-.08C43.6,8,43.93,8,44.15,8Zm-3-.23c.22,0,.3,0,.33,0l-.39,0,0,0A.16.16,0,0,1,41.1,7.73Z"/><path class="cls-1" d="M40.72,7.89h0l.08,0Z"/><path class="cls-1" d="M168.77.7h0Z"/><polygon class="cls-1" points="63.59 5.95 63.59 5.93 63.47 5.96 63.59 5.95"/><path class="cls-1" d="M176.54,1.48l.1,0Z"/><path class="cls-1" d="M179.89,1.76l.47.06Z"/><path class="cls-1" d="M182.47,2l.05,0h0Z"/><path class="cls-1" d="M141.35.79h-.1C141,.82,141.18.8,141.35.79Z"/><path class="cls-1" d="M153.6.57l-.39,0C153.43.61,153.6.61,153.6.57Z"/><polygon class="cls-1" points="127.68 1.27 127.68 1.26 127.6 1.27 127.68 1.27"/><path class="cls-1" d="M152.64.6a3.71,3.71,0,0,0,.57,0A5.42,5.42,0,0,0,152.64.6Z"/><path class="cls-1" d="M193.59,3.42l.12,0h-.12Z"/><path class="cls-1" d="M193.73,3.43h.14A.37.37,0,0,0,193.73,3.43Z"/><path class="cls-1" d="M194.16,3.46l-.29,0A1.57,1.57,0,0,0,194.16,3.46Z"/><path class="cls-1" d="M190.2,2.92l0,0S190.19,2.94,190.2,2.92Z"/><path class="cls-1" d="M189.17,2.79c.24,0,.61.15,1,.18l0,0C190,3,189.41,2.77,189.17,2.79Z"/><path class="cls-1" d="M184.9,1.83l.87.14c-.15-.05-.35-.12,0-.08C184.74,1.65,186,2,184.9,1.83Z"/><path class="cls-1" d="M182.21,1.56c.47,0,0-.05,0-.07C181.93,1.5,181.86,1.5,182.21,1.56Z"/><path class="cls-1" d="M162.67.44l.05-.08C162.35.36,162.71.39,162.67.44Z"/><polygon class="cls-1" points="158.92 0.71 159.27 0.77 159.44 0.7 158.92 0.71"/><polygon class="cls-1" points="156.72 0.09 156.88 0.09 156.27 0.11 156.72 0.09"/><path class="cls-1" d="M123.85.69l.11.08C124.21.75,124.25.64,123.85.69Z"/><path class="cls-1" d="M109.68,1.5a2.22,2.22,0,0,0-.8,0C109.2,1.51,109.52,1.53,109.68,1.5Z"/><polygon class="cls-1" points="67.26 4.81 67.54 4.75 67.01 4.83 67.26 4.81"/><path class="cls-1" d="M173.1,20c-.12.06,0,.1.3,0l.21-.16Z"/><path class="cls-1" d="M175.39,19.5c.38-.14.82-.33.54-.36-.37.19-.48.16-.87.39s-.59.13-.54.08a6.43,6.43,0,0,0-.69.24,6.36,6.36,0,0,0,1.57-.42C175.53,19.42,175.41,19.47,175.39,19.5Z"/><path class="cls-1" d="M201.47,14.83l.21.06Z"/><path class="cls-1" d="M180.75,11.68h0Z"/><path class="cls-1" d="M177.2,11.27l.21,0A.86.86,0,0,0,177.2,11.27Z"/><path class="cls-1" d="M201.47,14.83l-.54-.15C200.88,14.7,201.2,14.76,201.47,14.83Z"/><path class="cls-1" d="M179.9,18.27a1.48,1.48,0,0,0-.29.08l.27-.06S179.89,18.27,179.9,18.27Z"/><path class="cls-1" d="M199.72,16.38h-.17l-.13.05Z"/><path class="cls-1" d="M192.67,17a.39.39,0,0,0,.27-.15,1,1,0,0,1-.35.1S192.62,17,192.67,17Z"/><path class="cls-1" d="M181.53,18.33l-.2.05Z"/><path class="cls-1" d="M204.78,16.07a.08.08,0,0,0,.07,0S204.82,16.08,204.78,16.07Z"/><path class="cls-1" d="M8.22,21.12v0S8.17,21.12,8.22,21.12Z"/><path class="cls-1" d="M0,21.8l.11,0,0-.05Z"/><path class="cls-1" d="M170.67,10.7h0Z"/><path class="cls-1" d="M110.58,11c.68,0-1.1.15-.08.19C110.41,11.14,111.43,11,110.58,11Z"/><path class="cls-1" d="M180.08,18.25l.29-.05Z"/><path class="cls-1" d="M110.5,11.17Z"/><path class="cls-1" d="M155.59,10.17l.15,0Z"/><path class="cls-1" d="M166.82,10.67l-.28,0Z"/><path class="cls-1" d="M149.75,10.2a2.59,2.59,0,0,0-.41,0h.06A1.32,1.32,0,0,1,149.75,10.2Z"/><path class="cls-1" d="M143.68,10.19l.11,0h-.11Z"/><path class="cls-1" d="M26.52,18.83a.88.88,0,0,1-.28,0C26.34,18.84,25.45,19,26.52,18.83Z"/><path class="cls-1" d="M179.91,18.31a.36.36,0,0,1,.17-.06l-.2,0S179.87,18.31,179.91,18.31Z"/><path class="cls-1" d="M149.5,10.86l-1,0Z"/><path class="cls-1" d="M69.84,14.45l-.22,0Z"/><path class="cls-1" d="M145.67,10.85l-.54,0-.11,0Z"/><path class="cls-1" d="M26.23,18.79h0Z"/><path class="cls-1" d="M20,19.73c.91-.1.41-.15.6-.24,1.09-.16.51,0,.89,0,.68-.11,1.19-.27,1.7-.33,0,0,.13,0,0,0,.71-.18,2.14-.26,3-.46h.11c-.14,0-.17-.09-.14-.14a3.71,3.71,0,0,1,.91-.1,1.47,1.47,0,0,0-.38.09l.42-.08c.4.06-.58.11-.57.18.83-.13,1.8-.32,2.44-.37.15.09-1.49.21-.63.2l-1,.07c.77.08-.61.06.11.15,1.31-.12,1.45-.22,2.76-.34.28-.09-.11-.07.18-.16,1.84-.31,1.48.09,2.83-.19a3.37,3.37,0,0,1,1.44-.29l-.32.15c1.27-.13.71-.25,2-.32-.23.07-1,.15-.8.14.87,0,.6-.13,1.26-.2l.15.09,4.31-.57c-.08,0-.34.09,0,.09,1.87-.26,4-.41,5.83-.53l.69-.16c.16,0,.3,0,.13,0,.71,0,0-.06.36-.13s.54,0,.29.05a44.85,44.85,0,0,1,4.86-.55l-.25.05c1-.06,1.14-.29,2.1-.3l-.19,0c2.23-.18,4.68-.48,6.39-.5.31-.16,2.21-.15,2.33-.34,1.28,0,.92,0,2.72-.06.47,0,.7-.17,1.29-.24l0,.09.79-.17.44.08.55-.08c-.22,0-.47,0-.44,0a11.41,11.41,0,0,1,2.14-.07l2-.25a3.88,3.88,0,0,1-.65.13c1.09-.19.21.08,1.2-.09-.13,0,.07-.06.09-.08a23,23,0,0,0,2.48-.16l-.15.07,4.9-.42c-.61,0-.48-.1,0-.15l.21.08c.32-.08-.53,0,.13-.12s.44.08.07.14l.78-.09s-.14.05-.18.09c.31-.08,1.34,0,1.79-.13l0,0L88,13.09c0-.09.56-.11,1-.2,1-.05,2.16-.05,3.39-.14.87-.1.25-.09.64-.17.07.08,1.3,0,.66.08,1.48-.1,1.89-.13,3.75-.32-.2,0-.43,0-.31-.05.33,0,.77,0,.72,0l-.09,0c2.1-.24,4.86-.06,6.52-.31h-.09l1.73-.18c.8,0-.48.08.12.09,1.86-.22,3-.12,4.49-.28,1.2.17,4.23-.24,5.84-.14l-.09,0a3.06,3.06,0,0,1,.81,0s-.45,0-.2-.07c3.52-.2,7.28-.21,10.89-.24,1.33,0,.75-.3,2.42-.22l-.47.11c2.66-.2,5.45-.1,8.06-.24a2.28,2.28,0,0,1-.41.06,9.43,9.43,0,0,0,2.05-.09c.4,0,.09.05.34.08.56,0,1.39-.11,1.68,0,.05,0-.15,0-.25,0,.36,0,1.68,0,1.33-.07,1,0,1.88,0,2.66,0,.51-.1,1.68,0,1.84-.09a8.53,8.53,0,0,0,2.34,0c-.21,0,.54.05.29.1.71,0,1.36,0,1.24-.08,1.3.19,2.62-.09,3.35.13,2.1-.05,4.05,0,5.94,0-.08.13-2.09-.05-2,.09,1.8,0,2.84-.08,4.61,0,.46,0-.26.05-.42.07,1.8,0,3.46.13,5.06.15a1.21,1.21,0,0,1-.34,0c.31,0,.73.06.69,0h-.3c-.5-.12,1.25-.12,1.31-.17-.54.15,1.57.13.71.31.21,0,.47,0,.43-.06.3,0,.4.06.08.09,1.13,0,.73-.06,1.75,0,0,0-.21,0-.32.06a9.51,9.51,0,0,1,1.9,0c-.05,0,0,0-.21,0,1.47.1,2.53,0,4.14.22-.49.09.55.08.62.2l.88,0-.35-.08c.76.06,1.45,0,2.09.14l-.56,0,1.42.13-.8-.12c.77,0-.07-.15.94,0-.21,0,.76.09,1.15.19h0a8.86,8.86,0,0,1,1.33.1c.14.05-.13.11,0,.14.38,0,1.78.16,2.27.11-.16,0-.18.07-.13.08l.32,0c.35.06.4.08.34.12,1,.16-.32-.19.93.05-.1,0-.06,0-.26,0,1.25.2,2.43.29,3.58.48.33.16-1-.11-.63,0,1.67.2,3.47.34,5.06.68l-.3-.07c.25-.12,1.18.29,2,.36-.2,0-.28,0-.22,0,1.09.24,2.26.31,3.91.67h-.22c.64.18,1.68.4,2.37.58.22,0,.61.11.38,0a16.07,16.07,0,0,0,1.79.5l0-.39c-1.48.09-2.87.31-4.25.27.23,0,.55-.07.36-.06l-1.65.16a2.69,2.69,0,0,0,.58,0,8.23,8.23,0,0,1-1.08.15c.74-.1,0-.11-.34-.12,0,0-.05.05,0,.07-.87-.06-.13.15-1.31.16l.06,0c-.44,0-.84.14-1.32.17-.2-.07.47-.08.49-.15a17.18,17.18,0,0,1-1.91.24l1-.13a6.72,6.72,0,0,0-1.23,0h0l-1.14.07h.29c-.81.28-1.69.21-2.8.46,1.08-.24.17-.09.25-.19-.29,0-.73,0-.61,0-.52.14-.89.05-1.63.24,0,0-.57.07-.45,0-.69.11.16,0,.11.08-1.05.22-2.51.19-4,.55-1.31.26-1.54.37-2.74.63-.42,0,.32-.16.32-.16a13.74,13.74,0,0,0-1.78.31c.12-.05,0-.05-.21-.05a6.68,6.68,0,0,1-1,.26,2.51,2.51,0,0,1,.48-.22l-1.76.47c-.17,0,.35-.15.56-.23a11.31,11.31,0,0,0-1.94.56l.44-.08c-.25.07-.14,0,0-.09a1.47,1.47,0,0,1,.88-.14l-.43.11a15.08,15.08,0,0,0,2.6-.55l-.34.2.88-.27c.19,0,.34.05-.09.14.64,0,.55-.14,1.09-.16.07,0,0,0,0,0l.6-.14c-.12,0,.12.07-.26.11,1.1-.12,1.76-.36,2.18-.34L184,18c1.52-.27.14-.11,1.27-.39l.8.12.14-.11c.16,0,.47-.05.42,0,.58-.14-.11,0,.23-.13a15.78,15.78,0,0,1,2.28-.17c.27-.11-.73,0,.07-.12.25.13.94-.14,1.64-.14-.2.1-.86.14-.16.13a11.71,11.71,0,0,1,1.94-.2,13.45,13.45,0,0,1,2.26-.3c-.06,0,1.87-.11,2.79-.15l0,0a9.63,9.63,0,0,1,1.81-.25c0,.07-.14.1-.52.16l.65-.05a3.7,3.7,0,0,1,.78-.12l-.16.09c.86-.06,1.73-.22,2.85-.23.06-.08-.9-.16.27-.28.05,0,.1.11-.21.14a3.6,3.6,0,0,1,.56-.05l-.46.1c.51,0,.26-.08.66-.09,0,.06.31,0,.25.07s-.35,0-.51,0a8.53,8.53,0,0,1,1.2,0s0-.08.33-.1h0l1.08-.06-1.05-.24c-.8-.18-.25-.13-.73-.27-.21,0-.74-.17-.78-.09a1.31,1.31,0,0,1-.37-.15c-.45-.07-2-.46-1.58-.26l.11,0h-.07c-.73-.12-1.47-.3-2.21-.49s-1.49-.32-2.21-.43v0c-.86-.12-1.91-.32-2.53-.37-.26,0-.59-.16-.48-.17-.66-.1-.74-.1-1.68-.27.67,0-.22-.08.68.06a12,12,0,0,0-2-.27c.32,0-.63-.18-1-.22l.6.14c-.46,0-.86-.11-1.27-.18l.24-.07c-1.75-.36-3.2-.25-4.52-.57-.47,0,1,.15.53.19-.81-.1-1.64-.33-1.89-.36-1.11-.17-1.06,0-2.21-.12.14.05.27.16-.6.1s-1-.25-.47-.23c.2,0,.29,0,.28,0,.26,0,.61,0,.29,0l-.11,0c-.4-.08-1.51-.19-1.25-.22-.61,0-.26,0,.19.09-1-.15-1.63-.13-2.7-.25.17,0,.32.09.15.07a13.17,13.17,0,0,0-1.77,0c-.6-.1.23-.11-.85-.15-.65-.09-.13-.1.13-.11a22.9,22.9,0,0,1-2.38-.24h.52l-.82-.05.29.09a2.31,2.31,0,0,1-.56-.07c-.31,0,.24.13-.39.16a9.31,9.31,0,0,1-1.36-.13c1.26.1-.14-.1.94-.06-.21,0-.46,0-.77,0,0,0,.05,0,.13,0-1.21-.15-.57.08-1.83,0,.17-.05-.28-.12-.49-.12.51,0,.24.1-.23.12-.81-.08-.88,0-1.3,0l.48,0a6.27,6.27,0,0,1-1.13,0c0-.05.51,0,.31,0-.63.06-1.41-.19-2.29-.15-.4,0,0-.1-.39-.13-1,0-1.05-.11-2.09-.09.3.08.35.07-.38.11H163l-1.09.07c.51,0,1.08,0,1.38,0-.52,0-.46,0-.22.09-.7-.13-1.39,0-2.19-.08l0-.17c-1.21-.12-2.16,0-3.74-.08l.51.05c-.21.06-1,0-1.48,0,.05-.06-.27-.08-.49-.12a8.32,8.32,0,0,0-1.3.09l-.7-.09c-1.27-.05-1.46.15-2.68.11.37-.06-.19-.11.63-.14a2.93,2.93,0,0,0-.78,0c-.24,0-1.13.06-1.51,0a2.43,2.43,0,0,1-.68.07c-.05,0,0,0,0,0s-.72,0-.32.11c-1.26-.18-3.52,0-4.61-.14l-2.78,0c.05,0,0,0,.16,0-1.12-.05-.69.18-2,.13-.65-.09.68-.06.27-.09-.18-.19-1.53.05-2.39,0l.21,0c-.65,0-1.59.1-2.66.1,0,0,.05,0,0,0-.73.12-2.11.16-3.14.22.32-.09.47-.06.27-.13-.46,0,.14.12-.78.17A5.59,5.59,0,0,1,130,10.4l.86,0a8.38,8.38,0,0,0-1.58,0l.06-.05c-1.33.05-1.34.17-2.77.2l.15,0c-.78.14-.66-.05-1.43.06l-.24-.11-2.72.22c.52-.11,1.6-.19,2.26-.26a17.27,17.27,0,0,0-2,.13,3.66,3.66,0,0,1,.66,0,18.78,18.78,0,0,1-2.46.23c.17-.24-2.65,0-3.39-.11-1.8.15-3.57.11-5.66.23.75.14-.61,0-.48.21a6.17,6.17,0,0,1-.71,0l-1.49,0c-.35,0,.47-.06.42-.1-1.07,0-.45-.06-1.16-.07.15.06-.37.11-1,.12l.86,0c-1.48.17-1.3-.1-2.79.08l.47-.08c-.77.08-2.85.16-3.59.35-.14,0-.33-.05,0-.08-1.84.08-4.09.38-5.53.39l.14-.06a5.08,5.08,0,0,1-1,.11s.14-.05,0-.05a12.3,12.3,0,0,1-1.37.15l.39-.08c-1.8.06-2.75.3-4.26.43a8,8,0,0,0-2.12,0l0,0c-2.09.14-3.55.37-5.48.56-1.21-.06-4.08.25-6,.33.29,0,0,.11-.38.15s-1.25.19-1.19.06h.16a10.33,10.33,0,0,0-2,.07l-.11.17c-1.92-.08-5,.51-6,.39L66,14.14l0-.09c-1.27.09-1.91.14-3.48.3l.32-.09c-.89.08-1.1.35-1.91.43l-.26-.1c-1.55.14-3.12.17-4.64.43,0,0,.07-.06.32-.09-.73.07-2.82.19-2.54.34a12.46,12.46,0,0,0-2.43.27l.13-.09a9.65,9.65,0,0,1-1.7.33c-.23,0-.21,0,.1-.06-.78,0-.59.14-1.54.2l.35-.09a4.86,4.86,0,0,0-1.17.2,6.09,6.09,0,0,1-1.64.07,3.07,3.07,0,0,1-1,.19c-.06,0,.11-.05.19-.07-1.34.08-2,.3-2.9.31a.28.28,0,0,0-.16,0l1.83-.18c0-.07-.86,0-.19-.18a25.86,25.86,0,0,1-2.68.44l-.12,0,.09,0-.53.07-.69.05a8.86,8.86,0,0,0-1.41.12c0,.08-.52.12,0,.14-.07,0,.08,0,.36-.06l.19,0h0l1.06-.12a4.67,4.67,0,0,1-1.16.15l-.58.2c-.6,0-1.73,0-1.9,0a37.16,37.16,0,0,0-3.87.62,1.43,1.43,0,0,1-.57,0c.21,0,.47-.07.58-.11a19.2,19.2,0,0,0-2.35.4c-.94,0,.51-.17-.77,0l.17-.06c-2.55.12-4.07.75-6.89.86h.33c-3.2.28-6.55.89-9.72,1.12a7.43,7.43,0,0,0-1.52.29l-.2-.07-.92.23c-1.32.24-2.32.07-4,.43l.22,0A14.61,14.61,0,0,1,5,21a1,1,0,0,1-.42.09l0-.05-1.46.28c-1.15.12.15-.21-1.52,0A6,6,0,0,0,0,21.69a2.23,2.23,0,0,1,.67,0l-.56.11c-.09.15-.5.35.9.25l1-.21.32,0L1.51,22a3.91,3.91,0,0,0,1.08-.18,1.53,1.53,0,0,0,.41,0l.94-.26c.12,0-.42.16.23.1.43-.12-.45-.06.29-.2a2.25,2.25,0,0,0,.88-.05c.08,0,0,.06-.25.1.48-.1,1.28-.19,1.52-.29.5,0,1.64-.23,1.61-.1a11.1,11.1,0,0,1,1.28-.27c-.79.26,1.67-.21,1.48,0,.58-.22,2.17-.34,3.22-.55a1.26,1.26,0,0,1-.26.06c.6-.07.78,0,1.17-.07a8,8,0,0,1,1.49-.4c.75,0-.43.19-.19.27-.05-.09,1.27-.25,1-.3a2.67,2.67,0,0,1,.79,0c.08-.16.52-.09,1-.24.83,0,.23.12,1.12,0C20.74,19.59,20,19.73,20,19.73Zm21.3-2.66h0l-.44.05ZM43,16.88l-.78.07c-.07,0,0-.06.18-.07A3.15,3.15,0,0,0,43,16.88Zm-3.86-.18c.29,0,.38,0,.42,0l-.49.06h0Z"/><path class="cls-1" d="M38.68,16.86l-.11,0h.17l.1,0Z"/><path class="cls-1" d="M201.71,14.9h0l.07,0Z"/><polygon class="cls-1" points="67.84 14.66 67.84 14.64 67.69 14.67 67.84 14.66"/><path class="cls-1" d="M198.74,16.07h0Z"/><path class="cls-1" d="M194.46,16.42l-.61,0Z"/><path class="cls-1" d="M191.17,16.71l-.06,0h0Z"/><path class="cls-1" d="M167,11.24h0Z"/><path class="cls-1" d="M182.59,12.19h-.5C182.36,12.22,182.58,12.24,182.59,12.19Z"/><polygon class="cls-1" points="149.6 10.87 149.6 10.86 149.5 10.86 149.6 10.87"/><path class="cls-1" d="M181.36,12.1a5.39,5.39,0,0,0,.73.08C181.86,12.15,181.59,12.11,181.36,12.1Z"/><path class="cls-1" d="M177,18.86l-.16,0v0Z"/><path class="cls-1" d="M176.84,18.91l-.17.05Z"/><path class="cls-1" d="M176.31,19.07l.36-.11A1.28,1.28,0,0,0,176.31,19.07Z"/><path class="cls-1" d="M181.31,18.05l.05,0A.11.11,0,0,0,181.31,18.05Z"/><path class="cls-1" d="M182.62,17.82c-.31,0-.79.07-1.23.16l0,0C181.55,17.93,182.33,17.92,182.62,17.82Z"/><path class="cls-1" d="M188.16,17.42l-1.1.12c.2,0,.45,0-.05.09C188.42,17.55,186.72,17.59,188.16,17.42Z"/><path class="cls-1" d="M191.59,17.08c-.59.08,0,.05,0,.07C192,17.08,192,17.06,191.59,17.08Z"/><path class="cls-1" d="M194.08,13.35l.07-.06C193.69,13.22,194.14,13.32,194.08,13.35Z"/><polygon class="cls-1" points="189.31 13.06 189.74 13.17 189.96 13.13 189.31 13.06"/><polygon class="cls-1" points="186.58 12.14 186.79 12.15 186.02 12.1 186.58 12.14"/><path class="cls-1" d="M144.76,10.12l.14.09C145.21,10.19,145.27,10.09,144.76,10.12Z"/><path class="cls-1" d="M126.68,10.49a3.46,3.46,0,0,0-1,0C126.07,10.48,126.47,10.51,126.68,10.49Z"/><polygon class="cls-1" points="72.56 13.49 72.92 13.43 72.23 13.52 72.56 13.49"/></svg>