<svg id="레이어_1" data-name="레이어 1" xmlns="http://www.w3.org/2000/svg" viewBox="0 0 335.73 22.06"><defs><style>.cls-1{fill:#fff;}</style></defs><title>line8</title><path class="cls-1" d="M322,3.79c.16,0,.07-.08-.37-.11l-.32.07Z"/><path class="cls-1" d="M319.06,3.36c-.53,0-1.14,0-.81.15.53,0,.65,0,1.21-.07s.77.1.69.13a8.5,8.5,0,0,0,.93,0A9.7,9.7,0,0,0,319,3.42C318.86,3.38,319,3.37,319.06,3.36Z"/><path class="cls-1" d="M275.83.68l.28,0Z"/><path class="cls-1" d="M249,.25l.3,0C249.1.23,249,.24,249,.25Z"/><path class="cls-1" d="M244.41.14h.27A1.3,1.3,0,0,0,244.41.14Z"/><path class="cls-1" d="M275.83.68l-.72,0A3.42,3.42,0,0,0,275.83.68Z"/><path class="cls-1" d="M313.08,3.1h.39l-.36,0Z"/><polygon class="cls-1" points="287.66 1.04 287.87 1.05 288.06 1.02 287.66 1.04"/><path class="cls-1" d="M296.73,1.45a.62.62,0,0,0-.36.1,1.92,1.92,0,0,1,.45,0S296.8,1.48,296.73,1.45Z"/><path class="cls-1" d="M311.08,2.59h0Z"/><path class="cls-1" d="M281.16.72s0,0-.08,0S281.11.71,281.16.72Z"/><path class="cls-1" d="M27.58,11.67s0,0,0,0S27.51,11.67,27.58,11.67Z"/><path class="cls-1" d="M17.06,12.18h.15a.17.17,0,0,0,0-.05Z"/><path class="cls-1" d="M236,0h0C236.28,0,236.15,0,236,0Z"/><path class="cls-1" d="M159.06,2.22c.88,0-1.41.15-.1.18C158.84,2.37,160.15,2.22,159.06,2.22Z"/><path class="cls-1" d="M312.85,3.07l-.37,0Z"/><path class="cls-1" d="M159,2.4Z"/><path class="cls-1" d="M216.7.35l.2,0A.55.55,0,0,0,216.7.35Z"/><path class="cls-1" d="M231.09.23h0Z"/><path class="cls-1" d="M209.23.59a5,5,0,0,0-.53,0h.08A1.85,1.85,0,0,1,209.23.59Z"/><path class="cls-1" d="M201.45.8h0Z"/><path class="cls-1" d="M51.13,9.68a2.06,2.06,0,0,1-.36,0C50.9,9.68,49.76,9.79,51.13,9.68Z"/><path class="cls-1" d="M313.08,3.05a.46.46,0,0,1-.23,0l.26,0S313.14,3.07,313.08,3.05Z"/><path class="cls-1" d="M208.93,1.26h0Z"/><path class="cls-1" d="M106.8,5.73l-.29,0A1.23,1.23,0,0,0,106.8,5.73Z"/><path class="cls-1" d="M204,1.38c-.23,0-.46,0-.7,0l-.14,0Z"/><path class="cls-1" d="M50.77,9.63Z"/><path class="cls-1" d="M42.67,10.49c1.17-.1.54-.16.79-.24,1.4-.14.65,0,1.13.05.88-.1,1.54-.26,2.19-.31,0,0,.18,0,0,0,.92-.16,2.75-.23,3.82-.43l.14,0c-.18,0-.21-.1-.18-.14a6.85,6.85,0,0,1,1.18-.09,2.52,2.52,0,0,0-.5.09l.55-.07c.5.06-.75.09-.75.17,1.08-.12,2.32-.3,3.15-.33.18.08-1.92.18-.82.18l-1.28.06c1,.09-.77.05.14.15,1.68-.09,1.87-.19,3.55-.29.37-.08-.13-.07.24-.16,2.37-.28,1.89.11,3.63-.16a5.81,5.81,0,0,1,1.86-.27l-.41.15c1.62-.11.91-.24,2.62-.29-.3.07-1.27.14-1,.13a7.9,7.9,0,0,0,1.62-.19l.19.09,5.54-.52c-.1,0-.43.09,0,.09,2.41-.22,5.16-.35,7.5-.46l.88-.15c.21,0,.39,0,.17,0,.91,0,0-.06.47-.13s.69,0,.36,0c1.6-.19,4.56-.48,6.26-.51l-.33,0c1.32-.06,1.47-.29,2.7-.28l-.24,0c2.86-.15,6-.44,8.2-.45.41-.15,2.83-.13,3-.31,1.64,0,1.18,0,3.48,0,.61,0,.9-.17,1.66-.24l0,.09,1-.16.55.07.71-.07c-.28,0-.6,0-.56,0,.55-.06,1.23-.08,1.78-.09a6.22,6.22,0,0,1,1,0l2.63-.23a5.71,5.71,0,0,1-.84.12c1.39-.17.26.09,1.54-.07-.18,0,.09-.06.12-.09.64,0,2.1-.06,3.18-.15l-.21.08,6.3-.4c-.78,0-.61-.1,0-.15l.26.08c.42-.08-.67,0,.18-.12s.56.08.09.14l1-.1c.06,0-.17.06-.23.1.4-.08,1.72,0,2.3-.14l.06,0,5-.32a6.9,6.9,0,0,1,1.26-.21c1.31,0,2.77,0,4.35-.14,1.1-.1.32-.09.81-.16.09.07,1.67,0,.85.08,1.9-.11,2.42-.14,4.81-.32-.26,0-.55,0-.4-.05a2.72,2.72,0,0,1,.93,0h-.11c2.68-.25,6.22-.09,8.35-.35h-.12l2.22-.2c1,0-.61.09.15.1,2.39-.25,3.79-.17,5.76-.33,1.53.16,5.42-.24,7.49-.18l-.12,0a5.12,5.12,0,0,1,1,0c-.06,0-.58,0-.25-.07,4.51-.25,9.32-.3,14-.44,1.7,0,1-.31,3.1-.25l-.61.12c3.42-.23,7-.21,10.34-.41a2.62,2.62,0,0,1-.53.07,15,15,0,0,0,2.62-.14c.52,0,.12.05.45.07.71,0,1.77-.15,2.15-.09.07,0-.2,0-.33,0,.47,0,2.16-.05,1.71-.12,1.26,0,2.4-.11,3.41-.09.65-.12,2.15,0,2.35-.16a14.76,14.76,0,0,0,3,0c-.26.05.69,0,.38.09.91,0,1.74-.05,1.58-.12,1.67.13,3.36-.19,4.3,0l7.61-.28c-.09.14-2.68.06-2.57.2,2.29-.09,3.62-.23,5.9-.24.59,0-.34.07-.54.09,2.3-.09,4.44-.06,6.49-.17l-.44,0c.4,0,.94,0,.89-.05l-.39,0c-.64-.09,1.6-.19,1.67-.24-.68.18,2,.05.93.27.27,0,.6,0,.54-.08.39,0,.52,0,.12.08,1.44,0,.93-.1,2.24-.1a3.65,3.65,0,0,1-.41.08,18.24,18.24,0,0,1,2.43-.09c-.06,0,.07,0-.26,0,1.89,0,3.23-.16,5.31-.1-.61.13.71,0,.82.15l1.12,0L246,.67c1,0,1.85-.08,2.69,0l-.73,0,1.84,0-1,0c1-.06-.11-.14,1.2-.11-.27,0,1,0,1.49.07h0a12.61,12.61,0,0,1,1.71,0c.19,0-.15.12,0,.15.48-.1,2.3,0,2.91-.13-.21,0-.22.08-.15.09l.4-.07c.45,0,.52,0,.45.08,1.36,0-.44-.15,1.18-.05l-.33,0c1.63.06,3.15,0,4.64.08.44.12-1.3,0-.8.11,2.16,0,4.47-.05,6.55,0l-.38,0c.29-.15,1.55.11,2.61,0-.26,0-.35.09-.28.07,1.43,0,2.93,0,5.09,0l-.26,0c.84.05,2.21.06,3.12.1.27,0,.79,0,.48-.08,2.8.26,5.35.09,7.83.38-.3,0-.71,0-.47,0l2.12.06a2.87,2.87,0,0,0-.72-.13,12.22,12.22,0,0,1,1.39,0c-.95,0,0,.11.42.17-.07,0,.07,0,0-.06,1.1.17.19-.13,1.7,0l-.09,0c.57,0,1.09,0,1.7,0,.25.1-.6,0-.64.08.85,0,1.69-.07,2.47,0h-1.26a14.1,14.1,0,0,0,1.57.16h-.06l1.44.11-.36,0c1.08-.16,2.18.06,3.63,0-1.41.07-.24.07-.35.15.37,0,.93.1.77.12.68,0,1.13.11,2.1,0,0,0,.73,0,.57.1.89,0-.2-.07-.13-.09,1.37,0,3.2.38,5.17.41,1.7.08,2,0,3.59.09.53.09-.44.07-.44.07.85.11,1.5.16,2.3.19-.16,0,0,.05.25.1a10.24,10.24,0,0,1,1.29,0,5.08,5.08,0,0,1-.66.07l2.31.08c.21.07-.48,0-.76.05.89,0,2.3.14,2.58.09L317,3.25c.32,0,.16.08-.08.08a2.79,2.79,0,0,1-1.14-.15l.57,0A24.79,24.79,0,0,0,313,2.94l.48-.08h-1.17c-.24,0-.41-.13.15-.11-.8-.12-.72,0-1.41-.14-.07,0,0,0,0,0l-.79,0c.16,0-.13-.09.36,0-1.42-.19-2.3-.09-2.83-.23h.12c-2-.12-.2.08-1.69.06l-1-.31-.2.08c-.2,0-.6-.06-.53-.09-.76,0,.13.05-.31.07-1-.17-2.71-.18-2.92-.32-.36.05.94.1-.12.1a15.25,15.25,0,0,0-2.1-.15c.28-.07,1.13,0,.23-.1a19,19,0,0,1-2.5-.12,23.51,23.51,0,0,1-2.92-.05c.08,0-2.39-.17-3.57-.27h0a15.9,15.9,0,0,1-2.34,0c0-.07.2-.08.68-.09l-.84,0a6.62,6.62,0,0,1-1,0l.22-.07C286,1,284.85,1,283.42.87c-.08.07,1.13.26-.38.25-.06-.05-.11-.12.28-.12a6.44,6.44,0,0,1-.72,0l.61,0a7.92,7.92,0,0,0-.87,0c0-.06-.38-.06-.3-.1s.45,0,.65,0c-.59,0-1.29-.11-1.53-.16,0,0,0,.08-.43.07-1.11-.05-.38-.1-1-.14-.27,0-1,0-1,.06a1.67,1.67,0,0,1-.51-.07c-.58,0-2.69-.05-2,.06h0c-1.89.05-3.91-.13-5.79-.12v0c-1.12,0-2.49,0-3.29,0-.33,0-.77-.07-.63-.1a18.75,18.75,0,0,1-2.18,0,3.54,3.54,0,0,1,.88,0,21.55,21.55,0,0,0-2.56,0c.41-.07-.83-.11-1.36-.1l.78.07c-.59,0-1.11,0-1.64,0l.29-.1c-2.27-.16-4.1.11-5.82-.08-.6.07,1.23,0,.69.13-1,0-2.13-.15-2.46-.15-1.43-.06-1.33.15-2.83.11.19,0,.37.13-.74.16s-1.29-.15-.63-.17c.25,0,.37,0,.36,0,.34,0,.78,0,.37-.07l-.14,0A9.48,9.48,0,0,1,247.91.1c-.79,0-.34.06.24.08-1.34,0-2.09,0-3.47,0,.22,0,.42.06.2.06a19.62,19.62,0,0,0-2.26.08c-.78,0,.28-.13-1.1-.08-.84,0-.18-.1.16-.12-1.26.06-2.35,0-3.07-.06l.66,0c-.39,0-.72,0-1.05,0l.38.07a3.28,3.28,0,0,1-.71,0c-.4,0,.31.11-.49.18a14.16,14.16,0,0,1-1.76-.06c1.63,0-.18-.09,1.2-.11-.26,0-.59,0-1,0-.06,0,.06,0,.16,0a20.76,20.76,0,0,0-2.33.1c.2-.05-.38-.1-.64-.09.65,0,.31.09-.29.13a13.81,13.81,0,0,0-1.67.05h.62a10.39,10.39,0,0,1-1.45.09c-.06,0,.66,0,.4,0-.8.11-1.81-.07-2.93,0-.52,0,0-.09-.51-.11-1.25.09-1.36-.05-2.67,0,.38.06.44,0-.48.13l2.16-.09-1.39.13c.66,0,1.38-.07,1.78-.06-.67.07-.6,0-.28.1-.9-.09-1.78.09-2.81,0l0-.18C222,.22,220.8.41,218.78.4l.64,0c-.26.07-1.24,0-1.89.07.06-.06-.35-.08-.63-.11,0,0-1.48,0-1.66.14l-.91-.06c-1.63,0-1.85.2-3.42.21.47-.07-.24-.1.81-.17a5,5,0,0,0-1,.05c-.31,0-1.45.1-1.94.06a3.47,3.47,0,0,1-.87.09c-.07,0,0,0,0,0s-.92.06-.41.12c-1.61-.16-4.5.14-5.91,0L198,1c.07,0,0,0,.2,0-1.43,0-.87.2-2.5.19-.83-.08.86-.08.34-.1A27.11,27.11,0,0,0,193,1l.27,0c-.84,0-2,.14-3.41.17,0,0,.07,0,0,0-.93.12-2.7.21-4,.28.41-.09.6-.06.35-.13-.59,0,.17.12-1,.18a9,9,0,0,1-1.35-.13l1.11,0a15.17,15.17,0,0,0-2,0L183,1.3c-1.7.07-1.72.19-3.55.26l.19,0c-1,.16-.84,0-1.83.1l-.31-.1c-.66,0-2.3.2-3.48.28.66-.12,2-.22,2.9-.31-.65,0-2.22.1-2.56.17a8.11,8.11,0,0,1,.86-.05,29.86,29.86,0,0,1-3.16.26c.22-.24-3.39.09-4.34-.05-2.3.18-4.57.15-7.26.27,1,.14-.78,0-.61.22-.62,0-.86,0-.91,0l-1.9,0c-.45,0,.59-.07.53-.1a9.59,9.59,0,0,1-1.48-.07c.18.06-.48.12-1.26.13l1.11,0c-1.91.2-1.66-.07-3.59.13L153,2.4c-1,.08-3.65.18-4.61.38-.17,0-.41,0,0-.09-2.37.1-5.25.42-7.09.43l.17-.06a9.73,9.73,0,0,1-1.31.11s.17-.06,0,0a17.64,17.64,0,0,1-1.76.14l.5-.07c-2.31.05-3.53.3-5.46.43a11.83,11.83,0,0,0-2.72-.05l0,0c-2.69.14-4.55.37-7,.57-1.55-.06-5.23.24-7.71.31.38,0-.06.1-.5.14s-1.6.19-1.51.06h.2a16.83,16.83,0,0,0-2.57.06l-.14.17c-2.46-.1-6.39.48-7.73.36l-1.9.2,0-.08c-1.64.08-2.45.13-4.47.28l.41-.09c-1.14.07-1.42.34-2.47.41L95,5.83c-2,.13-4,.15-6,.39,0,0,.08-.06.4-.09-.93.06-3.61.16-3.26.31a20,20,0,0,0-3.12.26l.16-.1a13.94,13.94,0,0,1-2.18.33c-.3,0-.27,0,.13-.06-1,0-.77.14-2,.18L79.67,7a8.28,8.28,0,0,0-1.5.19,11.34,11.34,0,0,1-2.1.06,5.9,5.9,0,0,1-1.3.17c-.08,0,.13,0,.24-.07-1.71.07-2.54.28-3.72.28a.48.48,0,0,0-.21,0l2.36-.16c0-.07-1.11,0-.24-.18-.88.12-2.38.36-3.45.4l-.15,0,.11,0c-.25,0-.47,0-.67.06l-.89,0a16,16,0,0,0-1.82.1c0,.08-.67.12,0,.14l.47,0,.23,0h0l1.36-.11a8.58,8.58,0,0,1-1.49.14l-.76.2c-.76-.06-2.21,0-2.41-.07-1.68.17-4,.33-5,.57a1.87,1.87,0,0,1-.73,0c.27,0,.6-.06.75-.09a28.65,28.65,0,0,0-3,.36c-1.2,0,.67-.15-1,0l.22-.05c-3.26.07-5.25.69-8.87.75a2.21,2.21,0,0,1,.43,0c-4.11.24-8.44.77-12.5,1a11.52,11.52,0,0,0-2,.26l-.26-.07-1.19.21c-1.69.22-3,0-5.1.36l.28,0a22.52,22.52,0,0,1-2.32.17,1.58,1.58,0,0,1-.56.08l0,0-1.9.25c-1.47.1.22-.21-1.93,0a11.55,11.55,0,0,0-2,.35,3.75,3.75,0,0,1,.85,0l-.72.1c-.12.15-.67.34,1.13.27l1.24-.2.41,0-1,.09a6.55,6.55,0,0,0,1.39-.15,3.25,3.25,0,0,0,.53,0L22.08,12c.15,0-.54.16.28.12.57-.12-.56-.08.39-.2a3.38,3.38,0,0,0,1.13,0c.1,0-.05.06-.32.1.62-.1,1.65-.16,2-.26a13.74,13.74,0,0,1,2.06-.07,16.14,16.14,0,0,1,1.66-.25c-1,.25,2.15-.18,1.89,0,.76-.21,2.79-.3,4.16-.5a2.08,2.08,0,0,1-.35.06c.78-.06,1,0,1.51-.05a10.9,10.9,0,0,1,1.93-.37c1,0-.56.18-.26.26,0-.09,1.64-.22,1.31-.28a4.75,4.75,0,0,1,1,.05c.12-.15.68-.08,1.27-.22a5.31,5.31,0,0,0,1.43,0C43.69,10.35,42.67,10.49,42.67,10.49Zm27.4-2.38h0l-.56.05ZM72.38,8l-1,.07c-.09,0,0-.06.23-.08A4.34,4.34,0,0,0,72.38,8Zm-4.92-.24a1.47,1.47,0,0,1,.54,0l-.64,0,0,0Z"/><path class="cls-1" d="M66.81,7.87l-.15,0h.22l.13,0Z"/><path class="cls-1" d="M276.16.7h0Z"/><polygon class="cls-1" points="104.23 5.94 104.22 5.92 104.03 5.95 104.23 5.94"/><path class="cls-1" d="M288.87,1.48l.16,0Z"/><path class="cls-1" d="M294.36,1.76l.77.06Z"/><path class="cls-1" d="M298.58,2l.08,0h0Z"/><path class="cls-1" d="M231.39.78h0Z"/><path class="cls-1" d="M251.39.57l-.64,0A1.87,1.87,0,0,0,251.39.57Z"/><path class="cls-1" d="M209.06,1.26Z"/><path class="cls-1" d="M249.82.61c.36,0,.65,0,.93,0C250.46.6,250.11.59,249.82.61Z"/><path class="cls-1" d="M316.84,3.42l.2,0h-.2Z"/><path class="cls-1" d="M317.06,3.43h.23A1,1,0,0,0,317.06,3.43Z"/><path class="cls-1" d="M317.77,3.46l-.48,0A4.27,4.27,0,0,0,317.77,3.46Z"/><path class="cls-1" d="M311.26,2.92l-.06,0S311.26,2.93,311.26,2.92Z"/><path class="cls-1" d="M309.57,2.79c.4,0,1,.15,1.57.18l.06,0C310.93,3,310,2.77,309.57,2.79Z"/><path class="cls-1" d="M302.52,1.83l1.42.14c-.25-.06-.57-.13.08-.08C302.23,1.64,304.38,2,302.52,1.83Z"/><path class="cls-1" d="M298.11,1.56c.77,0,0-.05,0-.07C297.66,1.5,297.54,1.5,298.11,1.56Z"/><path class="cls-1" d="M266.19.44l.08-.08C265.68.36,266.26.39,266.19.44Z"/><polygon class="cls-1" points="260.08 0.71 260.65 0.77 260.93 0.7 260.08 0.71"/><polygon class="cls-1" points="256.48 0.09 256.74 0.09 255.75 0.11 256.48 0.09"/><path class="cls-1" d="M202.83.68l.18.09C203.41.74,203.49.63,202.83.68Z"/><path class="cls-1" d="M179.69,1.5a5.29,5.29,0,0,0-1.31,0C178.9,1.5,179.42,1.52,179.69,1.5Z"/><polygon class="cls-1" points="110.31 4.8 110.78 4.74 109.9 4.82 110.31 4.8"/><path class="cls-1" d="M283.34,20c-.2.06-.08.09.48,0l.38-.16Z"/><path class="cls-1" d="M287.11,19.49c.65-.15,1.39-.34,1-.37-.64.19-.81.17-1.49.39s-1,.14-.88.09a11.78,11.78,0,0,0-1.16.25,20.29,20.29,0,0,0,2.6-.43C287.35,19.41,287.15,19.46,287.11,19.49Z"/><path class="cls-1" d="M329.41,14.79l.35.06Z"/><path class="cls-1" d="M295.39,11.65a2.72,2.72,0,0,0,.38,0Z"/><path class="cls-1" d="M289.57,11.25l.34,0Z"/><path class="cls-1" d="M329.41,14.79l-.9-.16A4.62,4.62,0,0,0,329.41,14.79Z"/><path class="cls-1" d="M294.62,18.25a4.56,4.56,0,0,0-.49.08l.46-.06Z"/><polygon class="cls-1" points="327.04 16.37 326.76 16.38 326.54 16.43 327.04 16.37"/><path class="cls-1" d="M315.5,17a1,1,0,0,0,.45-.15,3.42,3.42,0,0,1-.57.09S315.42,17,315.5,17Z"/><path class="cls-1" d="M297.23,18.31l-.32.05Z"/><path class="cls-1" d="M335.3,16.07l.11,0S335.37,16.08,335.3,16.07Z"/><path class="cls-1" d="M13.42,21.12s0,0,0,0S13.34,21.12,13.42,21.12Z"/><path class="cls-1" d="M0,21.8l.18,0,0-.05Z"/><path class="cls-1" d="M278.91,10.69h0Z"/><path class="cls-1" d="M180.91,11c1.11,0-1.8.15-.13.18C180.62,11.14,182.29,11,180.91,11Z"/><path class="cls-1" d="M294.92,18.23l.47-.05Z"/><path class="cls-1" d="M180.78,11.17Z"/><path class="cls-1" d="M254.31,10.16a1.18,1.18,0,0,0,.25,0Z"/><path class="cls-1" d="M272.63,10.66l-.45,0Z"/><path class="cls-1" d="M244.79,10.2c-.24,0-.33,0-.66,0h.1A3.33,3.33,0,0,1,244.79,10.2Z"/><path class="cls-1" d="M234.89,10.19l.18,0h-.18Z"/><path class="cls-1" d="M43.43,18.83a3.37,3.37,0,0,1-.46,0C43.12,18.84,41.67,19,43.43,18.83Z"/><path class="cls-1" d="M294.63,18.29a1.53,1.53,0,0,1,.29-.06l-.33,0S294.56,18.29,294.63,18.29Z"/><path class="cls-1" d="M244.39,10.86l-1.58,0Z"/><path class="cls-1" d="M114.32,14.44l-.36,0A1.79,1.79,0,0,0,114.32,14.44Z"/><path class="cls-1" d="M238.15,10.86c-.28,0-.58,0-.89-.06l-.18,0Z"/><path class="cls-1" d="M43,18.79h0Z"/><path class="cls-1" d="M32.64,19.73c1.5-.1.7-.16,1-.24,1.78-.17.83,0,1.44,0,1.11-.11,2-.27,2.79-.33.07,0,.23,0,0,0,1.17-.17,3.5-.25,4.86-.46a.53.53,0,0,1,.18,0c-.22,0-.26-.1-.22-.14a8.76,8.76,0,0,1,1.5-.1,2.6,2.6,0,0,0-.64.09l.7-.08c.64.06-.95.1-.95.18,1.37-.13,3-.33,4-.37.23.08-2.45.2-1,.19l-1.63.08c1.25.07-1,.06.16.15,2.14-.12,2.39-.22,4.52-.34.48-.09-.16-.07.32-.16,3-.31,2.4.09,4.62-.2a9.4,9.4,0,0,1,2.38-.29l-.54.15c2.07-.12,1.17-.24,3.34-.31-.38.07-1.62.15-1.31.14a15.57,15.57,0,0,0,2.07-.2l.23.08,7.07-.57c-.14,0-.55.1,0,.09,3.08-.25,6.57-.4,9.55-.53l1.12-.16c.27,0,.5,0,.21.05,1.16,0,.06-.06.61-.13s.88,0,.46.05c2-.21,5.81-.51,8-.55l-.42.05c1.68-.06,1.88-.29,3.44-.3l-.3,0c3.64-.18,7.65-.48,10.44-.51.52-.15,3.6-.14,3.83-.33,2.08,0,1.48,0,4.41-.06.78,0,1.16-.18,2.13-.24l0,.09,1.3-.17.71.07.9-.07a2.14,2.14,0,0,1-.72,0c.71-.06,1.57-.09,2.27-.09a10.29,10.29,0,0,1,1.23,0l3.34-.25a10.43,10.43,0,0,1-1.07.13c1.78-.19.33.08,2-.09-.22,0,.11-.06.15-.08.82,0,2.68-.08,4-.17l-.26.08,8-.42c-1,0-.78-.1,0-.15l.33.08c.52-.08-.86,0,.22-.12s.71.08.11.14l1.27-.09c.07,0-.22.05-.3.09.52-.08,2.19,0,2.94-.13l.07,0,6.32-.32a10.17,10.17,0,0,1,1.6-.2c1.67-.05,3.53-.05,5.54-.14,1.41-.1.41-.09,1-.17.11.08,2.12,0,1.08.09,2.41-.11,3.08-.14,6.13-.33-.33,0-.7,0-.51-.05a4.86,4.86,0,0,1,1.18,0l-.15,0c3.43-.24,7.92-.06,10.65-.31h-.16l2.83-.18c1.3,0-.78.08.19.1,3-.23,4.82-.13,7.33-.29,2,.18,6.91-.23,9.54-.14l-.15,0a8.09,8.09,0,0,1,1.32,0c-.07,0-.74,0-.32-.07,5.75-.2,11.88-.21,17.78-.24,2.15,0,1.22-.3,3.94-.22l-.77.12c4.35-.21,8.9-.11,13.16-.25a6,6,0,0,1-.68.06c.45,0,1.29,0,2,0a8.83,8.83,0,0,0,1.34-.09c.66,0,.15.05.56.08.9,0,2.27-.11,2.75,0,.08,0-.26,0-.42,0a15.43,15.43,0,0,0,2.18-.07c1.6,0,3.06,0,4.33,0,.83-.1,2.74,0,3-.09a22.67,22.67,0,0,0,3.82,0c-.34,0,.88.05.48.1a7.54,7.54,0,0,0,2-.08c2.13.18,4.28-.09,5.47.13,3.43-.06,6.61-.05,9.69,0-.11.14-3.41-.05-3.28.1,2.93,0,4.62-.09,7.52,0,.75,0-.43.06-.68.07,2.92,0,5.65.13,8.25.15a3.15,3.15,0,0,1-.56,0,5.31,5.31,0,0,0,1.14,0h-.5c-.82-.12,2-.12,2.13-.17-.87.15,2.57.13,1.18.31.34,0,.76,0,.69-.06.5,0,.65.06.15.09,1.83,0,1.18-.06,2.84,0a4.16,4.16,0,0,1-.51.06,29.39,29.39,0,0,1,3.09,0c-.08,0,.08,0-.34,0,2.41.1,4.12,0,6.76.22-.78.09.9.08,1,.2l1.42,0-.57-.08c1.25.07,2.35,0,3.42.13H294l2.34.13L295,12c1.26,0-.13-.15,1.53,0-.34,0,1.24.08,1.89.19h0a20.18,20.18,0,0,1,2.17.09c.24.05-.2.11-.05.15.62-.06,2.92.16,3.7.11-.26,0-.28.06-.2.08l.52,0c.57.06.66.07.56.12,1.73.14-.54-.2,1.51,0h-.42c2.06.2,4,.29,5.89.48.55.16-1.66-.11-1,0,2.74.21,5.68.32,8.31.67l-.49-.07c.39-.11,2,.3,3.3.37-.32,0-.43,0-.34,0,1.8.25,3.7.31,6.44.68H328c1.06.18,2.8.41,3.94.59.35,0,1,.11.61,0,1.08.23,2.14.39,3.18.53l0-.39c-2.35.09-4.56.31-6.76.26.38,0,.9-.07.6-.06l-2.69.16a6.56,6.56,0,0,0,.92.05c-.34.06-1.1.12-1.77.15,1.21-.1,0-.11-.54-.12.09,0-.09.05,0,.07-1.42-.06-.23.15-2.16.16l.1,0c-.72.05-1.38.14-2.15.17-.33-.07.76-.08.81-.15-1.09.06-2.15.26-3.14.24l1.59-.13a18.13,18.13,0,0,0-2,0h.08l-1.85.07h.47c-1.35.29-2.77.21-4.6.47,1.78-.25.29-.1.42-.2-.47,0-1.19,0-1,0-.87.13-1.46,0-2.67.24-.06,0-.93.06-.74,0-1.13.11.27,0,.18.08-1.74.22-4.1.19-6.59.55-2.15.26-2.54.37-4.53.63-.67,0,.54-.16.54-.16-1.09.07-1.9.17-2.92.31.2-.05,0-.05-.33-.05-.82.1-.54.17-1.63.26a6.87,6.87,0,0,1,.81-.22l-2.91.47c-.27,0,.59-.15.94-.23a30.89,30.89,0,0,0-3.24.56l.73-.07c-.41.06-.22,0,.08-.1a3.9,3.9,0,0,1,1.45-.14l-.71.11a43.23,43.23,0,0,0,4.29-.54l-.58.19,1.46-.27c.31,0,.54.05-.17.14,1,0,.91-.14,1.8-.16.1,0,.05,0,0,0l1-.14c-.2,0,.17.07-.45.12,1.81-.12,2.91-.37,3.6-.35l-.15,0c2.5-.28.23-.12,2.1-.4l1.29.13.24-.12c.26,0,.77,0,.68,0,1-.14-.17,0,.39-.13,1.25,0,3.44-.3,3.73-.18.44-.1-1.2,0,.13-.11a25.31,25.31,0,0,0,2.68-.14c-.34.1-1.43.13-.28.13a28.54,28.54,0,0,1,3.18-.21c0-.11,2.09-.16,3.71-.29-.1,0,3-.11,4.54-.15l0,0a25.68,25.68,0,0,1,3-.25c-.05.07-.25.11-.86.16l1.06-.05a12.24,12.24,0,0,1,1.27-.12l-.26.09c1.41-.06,2.84-.21,4.66-.23.1-.08-1.46-.16.47-.28.07,0,.14.11-.36.14.16,0,.59-.05.92-.05l-.77.1c.83,0,.43-.07,1.1-.09,0,.06.49,0,.4.08s-.58,0-.84,0c.75,0,1.65,0,1.95,0-.05,0,0-.07.41-.1l0-.3-.13,0c-1.41-.19-.47-.14-1.29-.28a6.67,6.67,0,0,0-1.27-.09,2.38,2.38,0,0,1-.63-.16c-.73-.06-3.39-.46-2.59-.26l.19,0-.12,0h0c-1.19-.12-2.43-.31-3.66-.49s-2.46-.32-3.65-.43v0c-1.42-.12-3.15-.32-4.17-.37-.41,0-1-.16-.79-.17-1.09-.1-1.21-.09-2.77-.26a5.41,5.41,0,0,1,1.12,0c-1.41-.14-1.72-.21-3.24-.26.52,0-1.05-.19-1.72-.22l1,.14-2.08-.18.37-.07c-2.87-.37-5.21-.24-7.39-.57-.77,0,1.56.15.88.19-1.33-.1-2.7-.33-3.12-.36-1.81-.17-1.7,0-3.6-.12.24,0,.46.16-1,.1s-1.62-.25-.78-.22c.32,0,.47,0,.45.05.43,0,1,0,.47,0l-.17,0a18,18,0,0,1-2.05-.22c-1,0-.43,0,.31.1-1.7-.14-2.66-.13-4.42-.25.28,0,.54.09.26.07-2.57-.16-1.14,0-2.88-.05-1-.1.36-.11-1.4-.15-1.07-.08-.22-.1.21-.11-1.6,0-3-.19-3.9-.24H283l-1.33,0,.47.09a7.82,7.82,0,0,1-.9-.07c-.51,0,.39.13-.63.16-.66-.06-2,0-2.23-.13,2.07.1-.23-.1,1.53-.06-.34,0-.75,0-1.25,0-.07,0,.07,0,.21,0-2-.15-.92.08-3,0,.27,0-.47-.12-.81-.12.83,0,.4.1-.36.12-1.32-.09-1.44,0-2.13,0l.79,0a15.18,15.18,0,0,1-1.85,0c-.08,0,.84,0,.51,0-1,.07-2.31-.18-3.73-.13-.66,0-.06-.1-.64-.14-1.6,0-1.73-.11-3.41-.08.48.08.57.06-.61.11h2.76l-1.78.07c.84,0,1.76,0,2.26,0-.85,0-.76,0-.36.1-1.14-.13-2.26,0-3.58-.08l.05-.18c-2-.12-3.52,0-6.09-.08l.83.05c-.35.06-1.59,0-2.42,0,.07-.06-.45-.09-.8-.13,0,.05-1.88,0-2.12.1l-1.14-.09c-2.08-.05-2.37.15-4.37.11.6-.06-.3-.11,1-.14a6.55,6.55,0,0,0-1.27,0c-.39,0-1.85.06-2.46,0a6.41,6.41,0,0,1-1.12.07c-.08,0,0,0,0,0s-1.17,0-.52.11c-2.05-.18-5.73,0-7.52-.14l-4.52,0c.08,0,0,0,.25,0-1.82-.05-1.12.18-3.19.13-1.06-.08,1.1-.06.44-.09-.29-.19-2.5.05-3.89,0l.33,0c-1.06,0-2.59.1-4.34.1,0,0,.09,0,0,0-1.19.12-3.44.16-5.11.22.52-.09.76-.05.44-.13-.75,0,.22.12-1.28.17a12.56,12.56,0,0,1-1.71-.13l1.41,0a24.55,24.55,0,0,0-2.57,0l.09-.05c-2.16.05-2.19.17-4.52.2l.24,0c-1.27.14-1.07-.05-2.33.06l-.39-.11-4.44.22c.85-.1,2.61-.19,3.7-.26-.83,0-2.83.07-3.26.14.33,0,.76-.06,1.09-.05-1,.12-2.36.19-4,.23.29-.24-4.32,0-5.53-.11-2.93.15-5.82.11-9.24.23,1.22.14-1,0-.78.21a11.4,11.4,0,0,1-1.17,0l-2.41,0c-.58,0,.75-.06.68-.1a13.8,13.8,0,0,1-1.89-.07c.24.06-.6.11-1.6.12l1.4,0c-2.43.17-2.1-.1-4.56.09l.78-.09c-1.26.08-4.65.16-5.88.35-.22,0-.51-.05,0-.08-3,.08-6.69.38-9,.39l.23-.06a13.52,13.52,0,0,1-1.68.11s.23-.05,0-.05-1.49.14-2.24.15l.64-.08c-2.94.06-4.5.3-7,.43a21.24,21.24,0,0,0-3.46,0l0,0c-3.42.14-5.8.37-9,.56-2-.06-6.66.25-9.82.33.49,0-.07.1-.63.14-.74,0-2,.2-1.93.07h.26a25.6,25.6,0,0,0-3.27.07l-.19.16c-3.12-.07-8.14.52-9.84.4l-2.42.2,0-.08c-2.08.08-3.11.13-5.68.3l.52-.09c-1.45.07-1.82.34-3.15.42l-.41-.1c-2.53.15-5.09.17-7.58.44a1.29,1.29,0,0,1,.52-.09c-1.19.06-4.6.19-4.16.33a33.79,33.79,0,0,0-4,.28l.21-.1a24.67,24.67,0,0,1-2.79.34c-.38,0-.34,0,.17-.06-1.27,0-1,.14-2.53.19l.57-.09a12.39,12.39,0,0,0-1.91.21,18.79,18.79,0,0,1-2.68.07,9.83,9.83,0,0,1-1.66.19c-.1,0,.18-.06.32-.08-2.19.08-3.24.3-4.75.32a.49.49,0,0,0-.26,0l3-.17c0-.08-1.4,0-.29-.18-1.13.12-3,.38-4.41.43H67l.14,0c-.32,0-.6,0-.86.07l-1.14.05c-.16-.06-1.61.07-2.31.11.07.08-.85.13,0,.14l.6-.05.3,0h-.05l1.74-.12a13.66,13.66,0,0,1-1.9.16l-1,.2c-1-.06-2.81,0-3.07-.06-2.13.19-5,.38-6.36.63a3.57,3.57,0,0,1-.93,0c.35,0,.77-.07,1-.1-1.21.12-3.59.26-3.88.39-1.53.05.86-.16-1.24,0l.28-.05c-4.15.12-6.7.75-11.29.86a2.89,2.89,0,0,1,.54,0c-5.23.28-10.75.88-15.91,1.12a17.81,17.81,0,0,0-2.51.29l-.33-.07-1.52.22c-2.16.25-3.77.08-6.5.44l.36,0c-1,.07-3.11.29-3,.21a3.66,3.66,0,0,1-.71.08l0,0L5,21.3c-1.87.12.28-.21-2.45,0a16.24,16.24,0,0,0-2.5.39,5,5,0,0,1,1.08,0l-.93.11c-.15.15-.85.35,1.44.26l1.58-.22.52,0L2.42,22a10.43,10.43,0,0,0,1.78-.18,4,4,0,0,0,.67,0l1.55-.26c.19,0-.69.16.36.11.72-.13-.71-.07.49-.21a6,6,0,0,0,1.44-.05c.13,0-.06.06-.41.1.79-.1,2.1-.19,2.51-.29a24.62,24.62,0,0,1,2.61-.1c.25-.05,1.39-.21,2.12-.28-1.32.27,2.74-.2,2.4,0,1-.22,3.56-.34,5.31-.56a3.71,3.71,0,0,1-.44.07c1-.07,1.27,0,1.91-.07a19.27,19.27,0,0,1,2.47-.4c1.21,0-.73.19-.34.27-.07-.09,2.09-.25,1.67-.3a7.07,7.07,0,0,1,1.29,0c.15-.16.85-.09,1.61-.24a8.68,8.68,0,0,0,1.82,0C33.94,19.59,32.64,19.73,32.64,19.73Zm34.91-2.67h0l-.72.06Zm2.94-.19L69.21,17c-.1,0,0-.06.3-.08A8.43,8.43,0,0,0,70.49,16.87Zm-6.25-.18a3.26,3.26,0,0,1,.68,0l-.81.06,0,0Z"/><path class="cls-1" d="M63.41,16.86l-.19,0h.28l.16,0Z"/><path class="cls-1" d="M329.82,14.86h-.06l.13,0Z"/><polygon class="cls-1" points="111.05 14.66 111.05 14.64 110.79 14.67 111.05 14.66"/><path class="cls-1" d="M325.46,16.06h0Z"/><path class="cls-1" d="M318.47,16.4l-1,0Z"/><path class="cls-1" d="M313.09,16.69l-.1,0h0Z"/><path class="cls-1" d="M273,11.23h0Z"/><path class="cls-1" d="M298.43,12.17h-.82A2.94,2.94,0,0,0,298.43,12.17Z"/><path class="cls-1" d="M244.56,10.86Z"/><path class="cls-1" d="M296.42,12.08l1.19.08C297.24,12.13,296.8,12.09,296.42,12.08Z"/><path class="cls-1" d="M289.85,18.84l-.26,0s0,0,0,0Z"/><path class="cls-1" d="M289.57,18.89l-.29.05Z"/><path class="cls-1" d="M288.68,19.05l.6-.11A5.49,5.49,0,0,0,288.68,19.05Z"/><path class="cls-1" d="M296.94,18l.08,0A.14.14,0,0,0,296.94,18Z"/><path class="cls-1" d="M299.09,17.8c-.51,0-1.29.07-2,.16L297,18C297.35,17.91,298.61,17.89,299.09,17.8Z"/><path class="cls-1" d="M308.13,17.41l-1.81.11c.32,0,.74,0-.08.1C308.52,17.53,305.76,17.58,308.13,17.41Z"/><path class="cls-1" d="M313.74,17.07c-1,.08,0,0,0,.07C314.32,17.07,314.47,17.05,313.74,17.07Z"/><path class="cls-1" d="M317.22,13.31l.11-.06C316.58,13.17,317.32,13.27,317.22,13.31Z"/><polygon class="cls-1" points="309.44 13.03 310.17 13.14 310.52 13.1 309.44 13.03"/><polygon class="cls-1" points="304.91 12.11 305.24 12.12 303.99 12.07 304.91 12.11"/><path class="cls-1" d="M236.65,10.12l.23.09C237.39,10.19,237.49,10.09,236.65,10.12Z"/><path class="cls-1" d="M207.17,10.49a9.14,9.14,0,0,0-1.66,0C206.17,10.48,206.84,10.51,207.17,10.49Z"/><polygon class="cls-1" points="118.82 13.49 119.41 13.43 118.29 13.51 118.82 13.49"/></svg>