<svg version="1.1" id="line_item" xmlns="http://www.w3.org/2000/svg" xmlns:xlink="http://www.w3.org/1999/xlink" x="0px" y="0px" viewBox="0 0 116 101" style="enable-background:new 0 0 116 101;" xml:space="preserve">
<style>
.fill_item{fill:#fff}
.line_item_path{stroke-dasharray:400;stroke-dashoffset:400;animation:dash-ani 3.5s linear forwards;stroke:#fff}
@keyframes dash-ani {
	to {
		stroke-dashoffset:179;
	}
}
</style>
<path class="fill_item" d="M57.3,50.4c2.2-0.1-1.2,0,1.4-0.1C58.2,50.4,57.8,50.4,57.3,50.4z"/>
<path class="fill_item" d="M58.6,50.4c-0.5,0-2-0.1-0.8-0.2C58,50.3,58.8,50.3,58.6,50.4z"/>
<path class="fill_item" d="M58,50.4c0,0-0.5-0.3-0.6-0.4c0.4,0.3,0.8,0.5,1.2,0.7C58.4,50.6,58.2,50.5,58,50.4z"/>
<path class="fill_item" d="M56.5,49.3c0.1,0,0.5,0.4,1.1,0.9s1.3,0.9,1.8,1.3l-1.5-1L56.5,49.3z"/>
<path class="fill_item" d="M57.9,50.4c-0.5-0.7-0.4-0.5,0.4,0.4C58.4,50.8,58.1,50.5,57.9,50.4z"/>
<path class="fill_item" d="M58.4,51c-0.5-0.6-0.7-1-0.9-1.3C57.6,49.7,58.7,51.2,58.4,51z"/>
<path class="fill_item" d="M58.1,51.3c-0.1-0.7-0.2-1.3-0.2-2c0,0.3,0,0.9,0.1,1.4S58.1,51.5,58.1,51.3z"/>
<path class="fill_item" d="M57.9,50.9c0-0.3,0.1-0.4,0.1-0.8c0.1-0.6,0,0,0,0.5L57.9,50.9z"/>
<polygon points="105.7,64.9 106.1,64 106.1,64.1 "/>
<path class="fill_item" d="M58.4,50.5c-1-0.2-0.7-0.2-0.9-0.3C58.5,50.4,57.3,50.2,58.4,50.5z"/>
<polygon points="58,50.2 58.1,50.5 57.9,50.4 "/>
<g>
	<g>
		<g>
			<g>
				<g>
					<path class="fill_item" d="M66.8,99.7c2.2-0.1-1.2,0,1.4-0.1C67.9,99.7,67.5,99.7,66.8,99.7z"/>
					<path class="line_item_path" pathLength="400" d="M103.7,77.1c1.7-3.1,3.6-6.7,5.3-10.5c1.7-3.8,3.2-7.8,4.1-11.5c0.2-0.9,0.1,0.3,0.5-1.7
						c0.8-3.6,1.5-8.4,1.1-13.4c-0.2-2.5-0.7-5-1.5-7.4c-0.9-2.3-2-4.5-3.4-6.3l0.4,0.4c-1-1.4-2.5-2.9-3.9-4.2c0,0,0.5,0.3,0.2,0.1
						c-0.4-0.2-2.6-2.1-3.3-2.4c-0.6-0.4-0.5-0.4-1.3-1c-0.3-0.2-0.6-0.3-1-0.5c-2.6-1.3-6.4-3.1-10.2-4.3c0.2,0,0.6,0.2,0.3,0
						c-3-1-6.5-1.9-10.1-2.6c-3.6-0.7-7.4-1.1-11-1.1c0.3,0,0.5-0.1,0.1-0.1c-0.2,0-0.8,0-1.7,0.1c-0.8,0-1.9,0-2.8,0.1
						c-0.9-0.1-3.3,0.2-5.5,0.5l0.2,0c-1.6,0.3-2.4,0.3-3.8,0.6l-1,0.1c-0.7,0.2-2.4,0.4-3.7,0.8l0,0c-1.2,0.4-1.9,0.5-3,0.8l-0.1,0
						C46,14.4,44.4,15,44.5,15c-1,0.3,2.5-1,1.1-0.5c-8.7,3.1-16.9,8.4-23.5,14.9c-0.8,0.7-1.3,1.2-1.4,1.3
						c-0.6,0.7-2.4,2.6-2.8,3.3c0.2-0.2-0.4,0.4-0.7,0.8c-1,1.3-1.1,1.5-2.2,3c0.4-0.6,0.5-0.8,0.3-0.7c-0.8,1.3-2,3.1-2.9,4.8
						c0.1-0.3,0.3-0.7,0.3-0.6c-0.5,0.9-0.9,1.7-1.3,2.6c-0.2,0.4-0.4,0.8-0.6,1.2c-0.2,0.4-0.3,0.8-0.5,1.2l0.2-0.6
						c-1.1,2.7-0.2,0.8-1,3.2c0.2-0.6,0.1-0.4,0.1-0.5c-0.6,2.2-1.4,6-1.3,8.3c0-0.1,0-0.1,0-0.1c-0.1,2.5,0.1,5.2,0.8,7.9
						C9.1,65,9,64.9,9,65c0,0.1,0,0.5,0.5,1.7c0.1-0.1,0.4,1,0.7,1.9c0.4,0.9,0.7,1.6,0.4,0.8c0.2,0.5,0.5,1.1,0.7,1.8
						c0.3,0.6,0.6,1.3,0.9,1.9c0.6,1.3,1.3,2.3,1.7,3c-0.6-0.9,0.5,1-0.5-0.6l0.7,1.3c-0.2-0.2-0.8-1.3-0.6-0.9
						c0.3,0.4,0.7,1.2,1.3,2c0.6,0.7,1.1,1.5,1.3,1.8c0.5,0.7,1.2,1.3,1.9,2c0.3,0.4,0.7,0.7,1.1,1.2c0.4,0.4,0.9,0.8,1.4,1.3
						c-1-0.9,0.5,0.6-0.2,0c0.5,0.4,1,0.9,1.6,1.3l1.6,1.1c0.8,0.6,0.1,0.2,1.2,1c0-0.1,0.5,0.2,0.8,0.4c0.2,0.1,1,0.6,1.8,1.2
						c0.9,0.5,1.8,0.9,1.9,1.1c0.4,0.2-1.4-0.7-0.5-0.2c0.8,0.4,1.2,0.6,1.6,0.8c0.4,0.2,0.9,0.3,1.7,0.7l0,0
						c0.5,0.2,1.3,0.6,1.9,0.7c0.5,0.2,0.8,0.2,0.2,0c-0.8-0.3,0.3,0.2-0.8-0.3c0.4,0.1,1.1,0.3,1.9,0.6c0.8,0.2,1.7,0.6,2.5,0.7
						c-0.6-0.1-0.5-0.1-0.8-0.1c1.2,0.2,2.3,0.5,3.6,0.8c1.2,0.2,2.5,0.4,3.8,0.6c0,0-1,0-1.4-0.1c0.8,0.2,1.7,0.3,2.5,0.3
						c0.9,0.1,1.7,0.2,2.5,0.2c1.7,0,3.3,0.1,4.7,0.1c-0.5,0-0.3-0.1-0.2-0.1c1.6,0,1.6,0.1,2.6,0c0.1,0,1.3-0.1,2.4-0.2
						c0.6-0.1,0.3,0-0.7,0.1c0.4,0,1-0.1,1.9-0.2c0.8-0.1,1.8-0.3,2.9-0.5c2.1-0.4,4.5-0.9,6.1-1.3c-0.1,0,2.1-0.6,2.8-0.9l-0.3,0.2
						c0.7-0.2,2.6-0.9,2.7-0.8c0.8-0.3-0.8,0.2-2.3,0.7c-1.5,0.6-3,0.9-1.8,0.6c0.6-0.1,3.1-1.1,2.6-0.8c1.6-0.5,3-1.1,4.4-1.6
						c-0.4,0.2-1.2,0.6,0,0.1c2.1-0.9,0.6-0.3,2.3-1.1l1.1-0.5c0,0,0.5-0.3,0.9-0.4c0.4-0.2,0.6-0.3,0.2-0.1
						c0.3-0.1,2.9-1.6,2.8-1.4L83,86.7c0.9-0.5,1.4-0.9,2-1.3c0.1-0.1,0.3-0.2,0.3-0.1c0.1-0.2,2.1-1.2,2.9-2
						c1.8-1.1,4.2-3.2,5.1-3.7c0.6-0.5,1.1-1.1,1.7-1.6c0.3-0.3,0.6-0.5,0.9-0.8c0.3-0.3,0.6-0.6,0.9-0.9c-0.2,0.3-0.6,0.6-0.6,0.7
						c0.8-0.8,1-1,1.7-1.8c-0.1,0.1,0.4-0.3,0.9-0.8c0.5-0.6,1.2-1.3,1.6-1.7c1-1.2,0.6-0.9,0.7-1c0.5-0.5,1.1-1.5,1.8-2.4
						c0.4-0.5,0.7-1,1-1.5c0.3-0.5,0.6-0.9,0.9-1.3c-0.3,0.5-1.2,2-0.5,0.9c0.4-0.6,0.8-1.2,1.2-1.9c0.4-0.8,0.8-1.6,1.4-2.7
						l-0.4,0.5c0.6-0.9,1.4-3.1,1.4-2.9c0.3-0.7,1.1-2.5,0.9-2.3c0.3-0.9,0.7-1.9,1-2.9c0.3-1,0.6-2.1,0.8-3.2c0.3-1,0.4-2.1,0.6-3
						c0.2-0.9,0.3-1.7,0.4-2.3c0-0.6,0.2-1.9,0.1-1.6c-0.1,0.9-0.1,1.3-0.1,1.6c0-0.5,0-0.6,0-0.7c0.1-1.2,0.2-2.1,0.2-1
						c0.2-1.3,0-2,0-2.8c-0.1-0.8-0.1-1.6-0.3-3.3c0.1,0.1,0-0.1-0.1-1.1c-0.1-0.6-0.3-1.2-0.4-1.8c-0.4-2.1-0.1-1.2-0.1-1.3
						c-0.3-1.1-0.7-2.5-0.9-3c-0.1-0.5-0.2-0.9-0.4-1.4c0.3,1-0.4-0.9-0.6-1.4l0.2,0.5c0-0.2-0.6-1.5-0.9-2.1c0,0.1,0.2,0.4,0.4,0.8
						c0.2,0.4,0.4,0.9,0.5,1.3c-0.1-0.3-0.3-0.6-0.4-1c-0.2-0.4-0.4-0.7-0.6-1.1c0.1,0.1-0.1-0.3-0.4-0.9c-0.1-0.3-0.3-0.6-0.4-0.9
						c-0.2-0.3-0.3-0.5-0.5-0.7c-0.6-0.9-0.7-1-0.9-1.2c0,0-0.2-0.4-0.4-0.7c-0.2-0.3-0.3-0.4-0.1-0.1c0.2,0.3,0.4,0.7,0.8,1.2
						c-0.2-0.3-0.2-0.5-0.4-0.7c-0.1-0.2-0.3-0.5-0.8-1.1c-0.7-0.9,0.1,0.3-1.2-1.4c0.3,0.4,0.4,0.5,0.7,0.8
						c-0.4-0.5-0.7-1.1-1.2-1.6l-0.1,0c-0.2-0.2,0-0.1-0.1-0.2c-0.4-0.4-2-2.2-2.4-2.4c-0.7-0.7-1.4-1.5-2.2-2.1l0.1,0.1
						c-0.9-0.8-2-1.8-2.9-2.3l0.1,0c-0.5-0.4-1.7-1.3-2.4-1.6c-1.3-0.9-0.3-0.5-1.8-1.4c-1.4-0.8-2.3-1.1-1.7-0.8
						c-2.5-1.5-5.6-2.7-8-3.7c-0.4-0.1-0.2,0-1-0.3c-4-1.5-8.7-2.4-12-3c1.2,0.2,0.1-0.1,0.1-0.1c-1-0.1-1.2-0.2-1.6-0.2
						c0.1,0.1,0,0.1,1.2,0.3c-2.5-0.3-6.4-0.7-7.8-0.7c0.7,0,0.2,0.1-0.4,0.1c0.2-0.1-1.7-0.2-3.1-0.1l-0.2,0.1l-0.9,0
						c-0.5,0-0.6,0.1-2,0.1c-0.1,0-0.2,0-0.4,0c-0.7,0.1-1.6,0.2-2.5,0.3c-0.9,0.1-1.8,0.3-2.6,0.3l-1.3,0.1
						c-0.7,0.1-1.8,0.4-0.6,0.2C45.9,2.8,44.8,3,44,3.2c-0.9,0.2-1.5,0.3-1.9,0.4c-2.3,0.6-5,1.6-7.7,2.7c-2.7,1.2-5.5,2.4-7.8,3.8
						l0.1-0.1c-1.3,0.7-0.6,0.4-1.5,0.9c0.4-0.3-1,0.5,0-0.1c-1.8,1.1-2.2,1.5-3.3,2.3c-0.1,0.2,0.9-0.7,0.7-0.5
						c-0.2,0.1-2.3,1.7-2.5,2c-0.4,0.3-0.2,0,0-0.2c-0.3,0.3-0.6,0.6-1,0.8c-0.6,0.5,0-0.1,0.7-0.8c0.7-0.6,1.3-1.1,0.6-0.7
						c-0.3,0.2-0.6,0.5-0.9,0.7c-1,0.6,2.4-2,0-0.2c-1,0.9-1.7,1.7-0.8,1c-2,1.8-0.8,0.9-2.9,2.9c-0.6,0.5,1.6-1.6,1.2-1.3
						c-1,0.9-1.9,1.9-2.7,2.8c0.9-1,0.2-0.1-0.3,0.6c-1,1,0.6-0.8-0.8,0.8c-0.2,0.3-1.3,1.8-0.3,0.5c-0.4,0.7-1.4,1.6-2,2.6
						c-0.5,0.5,1.1-1.8-0.3,0c0.3-0.2-1.5,2.3-0.7,1.4c-0.5,0.7-0.6,0.8-0.3,0.2c-0.7,1-1.5,2.7-1.8,3l-0.1,0.4
						C7.3,29.5,7,30,6.6,30.5c-0.5,1-1.5,3.3-1.5,3.2C5,34,4.1,36.4,4.5,35.5c0.6-1.4,0.6-1.7,1.1-2.5c-0.6,1-0.8,2.1-1.2,3
						l-0.1,0.1c-0.2,0.5-0.6,1.7-0.6,2c0.1-0.4,0-0.2-0.1,0.2l-0.1,0.6c-0.5,2.1-0.2,0.5-0.8,2.6L3,39.9c-0.1,0.4-0.4,1-0.5,2.1
						c0,0.4-0.1,1.2-0.1,1.5c-0.2,1.2-0.2,0.5-0.3,1.7c0-0.5,0.1-1,0.2-1.6c0-0.1-0.1,0.1-0.2,0.6c-0.1,0.5-0.2,1.2-0.3,2
						c-0.1,1-0.1,2.6,0,1c0,0.8-0.2,1.9-0.2,1.3c-0.1,1.8,0.1-0.2,0,1.3c0,0.6-0.1,2.7-0.1,3.9c-0.1-0.5-0.2-1.1-0.2-1.7
						c0,0.4,0,0.7,0.1,1.1c-0.2-1.4,0,0.7-0.2-0.1c0.1,0.8,0.1,1.7,0.2,2.4c-0.1-2.2,0.5,2.4,0.6,1.8c0.3,1.5,0.3,1.9,0.4,2.4
						c0,0.5,0.1,1,0.7,2.5c-0.1-0.5,0.4,0.9-0.2-0.9c0.5,1.8,0.4,1.2,1.1,3.3c-0.6-1.5,0.5,1.7-0.4-0.5c0.1,0.1-0.4-1.2-0.5-1.6
						c0.2,0.8-0.2-0.1,0.4,1.7c0.2,0.5,0.4,1.2,0.7,1.7c0.2,0.5,0.4,0.8,0.4,0.7c0,0-0.2-0.4-0.3-0.8c-0.1-0.3-0.2-0.6-0.1-0.2
						c1,2.1,1,2.5,1.6,3.3c-0.4-0.6-0.5-1.1-0.6-1.3c-0.1-0.3-0.1-0.4-0.1-0.3c0.2,0.5,0.5,1,0.8,1.5l-0.2-0.3
						c0.6,1.2,0.8,1.4,0.9,1.5c0.1,0.2,0.2,0.3,0.9,1.4l0.6,1.1c-0.2-0.2-0.7-1.1-1.2-1.8c-0.4-0.7-0.7-1.3-0.7-1.1
						c0.4,0.8,0.7,1.3,1,1.7C7.7,71.9,8,72.4,8.5,73c-0.2-0.3-0.5-0.7-0.7-1c0.2,0.3,0.3,0.6,0.6,1c0.3,0.5,0.7,1.1,1.5,2
						c0.8,1,0.3,0.2,0.3,0.2c0.9,1,1.5,1.7,2.1,2.3c0.6,0.5,1,1,1.7,1.6c-0.4-0.1,2.4,2.1,0.8,0.9c-0.7-0.6-3.5-3.5-4.2-4.2
						c0.3,0.4-0.1,0-0.6-0.6c-0.4-0.6-1-1.4-1.2-1.6c1.3,1.8,1.2,1.8,1.4,2.1c0.4,0.5,0.8,0.9,1.1,1.2c0.2,0.1-0.3-0.5-0.3-0.5
						c1.6,1.9,3.4,3.5,4.6,4.3c0.6,0.6,0.4,0.5-0.4-0.2c1.1,1,2.3,1.9,3.5,2.9c1.2,0.9,2.5,1.8,3.6,2.6c-0.7-0.6-0.1-0.1,0.6,0.4
						c0.7,0.5,1.5,0.9,1,0.6c-0.7-0.4-1.2-0.8-1.5-1.1c-0.3-0.3-0.4-0.4,0-0.1c0.8,0.6-0.1,0,0.3,0.3c0.5,0.3,0.9,0.6,1.3,0.9
						c0.4,0.3,0.8,0.5,1.3,0.8c-2.4-1.4-0.5-0.1-1-0.3c1.7,1-0.1,0,1.6,1c0.9,0.5,1.8,1.1,2.8,1.5c1,0.5,2,1,3,1.5
						c2.4,1.3,6.4,2.8,8.7,3.5c1.2,0.5,0.3,0.3,1.7,0.7c1.6,0.4-1.1-0.4,1.2,0.3l-0.2,0c0.4,0.1,1.4,0.4,2.5,0.7
						c1.1,0.3,2.2,0.5,2.5,0.5L47,97.1c0.4,0.1,0.9,0.2,1.2,0.3c0,0,0.5,0.2-0.2,0.1c1.4,0.4,3.1,0.6,4.7,0.9l-1-0.3
						c1.4,0.2,2.5,0.4,3.6,0.6c1.1,0.2,2.3,0.3,3.6,0.4l-0.1,0.1l1.6,0.1c-0.4,0,1.1,0.2,1.9,0.2l-2.1,0l-2.1-0.1
						c-1.1-0.1,1.3,0,0.5-0.1c-0.6-0.1-3.1-0.4-3.5-0.4c0.9,0.1,1,0.1,1.7,0.2c0.3,0.1-1.1-0.1-1.8-0.1c0.5,0.1,1.2,0.2,1.3,0.2
						c-1-0.1-2-0.2-3.6-0.5c1.1,0.2-0.6-0.2-0.2-0.1c-0.1,0-1.7-0.2-3.7-0.6c-0.7-0.2-1.6-0.4-2.7-0.6c-1-0.2-2.2-0.5-3.3-0.9
						c0.9,0.2,2.1,0.5,3.5,0.8c-1.4-0.4-1.6-0.4-3-0.8c-0.7-0.2-1.2-0.1-3.1-0.7l-0.1-0.1c-1.6-0.5-1.7-0.5-3.8-1.2
						c-1.7-0.8-3.5-1.5-5.2-2.3c-1.6-0.8-3.1-1.6-4.4-2.3l-0.1-0.1c-1.4-0.7-4.7-2.7-6.4-4c-0.7-0.5-1.5-1.1-2.3-1.7
						c-0.8-0.6-1.5-1.2-2.1-1.8c-1.3-1.2-2.6-2.1-3.2-2.8c-2.4-2.2-4.3-4.6-6-7.2c-1.7-2.6-3.1-5.4-4.1-8.6l0.5,1
						c-0.5-1.1-0.3-0.7-0.6-1.9C3.1,64,2.2,61.2,2,60.3c-0.7-2.9-1.1-6.8-1.2-9.5l0.1-0.1c-0.1-2.7,0.3-5.9,1-9.2
						c0.1-0.4,0.3-0.9,0.6-1.9c0.2-0.9,0.4-1.6,0.6-2.3c0.2-0.8,0.5-1.6,1-2.9c0.7-1.8,2.1-4.7,3.2-6.4c3.6-6.4,8.9-12,15.1-16.4
						l0.5-0.2c3-2.2,6.6-4.2,10.4-5.7c3.7-1.5,7.4-2.6,10.5-3.3l-0.6,0.3c1-0.2,2.1-0.4,2.9-0.6c0.8-0.2,1.3-0.3,1-0.3
						c2-0.3,4.9-0.8,6.2-0.7c2-0.2,2.5-0.2,4.2-0.3c4.1,0,5.6,0.1,9.4,0.4c-0.3,0-0.6-0.1-0.9-0.1c-0.4,0-0.5,0,0.5,0.1
						c0.7,0.1,2,0.2,3,0.4c0.9,0.1,1.5,0.2,0.9,0c4,0.7,9.4,1.9,13.1,3.5c-0.3-0.2,0.6,0.2,1,0.3c3.4,1.3,6.7,3.1,9.2,4.6
						c0.5,0.3-0.8-0.4,0.4,0.4c0.7,0.5,0,0,1,0.5c4.9,3.2,9.2,7.5,12.1,12c2.6,3.9,4.5,8.5,5.4,13.2c0.9,4.7,0.7,9.5-0.2,14l0-0.1
						c-0.1,0.4-0.1,0.8-0.2,1.2c-0.1,0.4-0.2,0.8-0.3,1.2c-0.2,0.8-0.4,1.7-0.7,2.5c-0.6,1.6-1.1,3.1-1.5,4.3
						c-0.3,0.6-1.1,2.5-0.9,2c-0.4,1.1-1.3,2.6-2.1,4.2c-0.4,0.8-1,1.6-1.5,2.4c-0.2,0.4-0.5,0.8-0.7,1.2c-0.3,0.4-0.5,0.7-0.8,1.1
						c0.2-0.3,0.3-0.4,0.5-0.7c-1.1,1.4-2,2.8-3.1,4c-0.5,0.6-1.1,1.3-1.7,1.9c-0.6,0.6-1.2,1.2-1.9,1.9c0.3-0.3,0.7-0.8,0.8-0.9
						c-0.5,0.5-1.1,1.1-1.6,1.7c-0.6,0.5-1.1,1-1.4,1.2c-0.6,0.5-0.4,0.4,0,0.1c-6.1,5.4-13.7,9.8-21.6,12.7c-2.9,0.9-3,0.9-2.9,0.8
						c0-0.1,0.3-0.1-2,0.6c-0.4,0.1-0.3,0.1-0.3,0.1c-1.8,0.5-2.8,0.5-4.1,0.9c0.5,0-0.8,0.2-0.9,0.3c-3.7,0.6-4.4,0.6-7.3,0.9
						l0.2-0.1c-3.4,0.4-7.4,0.3-10.3,0.1c-9.4-0.9-18.5-4.3-25.4-10.5c-3.5-3.1-6.3-6.8-8.5-10.8c-2.2-4-3.7-8.5-4.2-13.1
						c-0.5-4.6,0.2-9.2,1.6-13.6C10.7,43,13,39,15.8,35.4c2.7-3.6,6-6.9,9.4-9.8c3.5-2.9,7.3-5.6,11.4-7.8c1.9-1,3-1.4,4.1-1.9
						c1.1-0.5,2.3-1,4.5-1.8c-0.2,0.1-0.5,0.2-0.1,0.1c0.2-0.2,3.2-1.1,3.6-1.3c6.5-1.9,12.8-2.9,19.9-3c-1.1,0-1.7,0.1-0.3,0.1
						l1.4-0.1l0.2,0c0.9,0,1.9,0,1-0.1c8.9,0.3,17.5,2.4,25.5,5.9c4,1.7,7.9,3.9,11.1,6.9c3.2,3,5.6,6.9,6.8,11.1
						c0.4,1,0.5,2.1,0.8,3.3c0.1,0.6,0.2,1.2,0.2,1.8c0.1,0.6,0.2,1.3,0.2,1.9l0.1,1.9c0,0.6,0,1.3-0.1,1.9c0,1.3-0.2,2.4-0.3,3.6
						c-1,6.6-3,12.6-5.6,18.3c-2.6,5.7-5.6,11.3-9.4,16.8c0,0,0.2-0.4,0.8-1.4C101.4,81,102.3,79.4,103.7,77.1z"/>
					<path class="fill_item" d="M64.2,99.7c-0.5-0.1-2-0.1-0.8-0.2C63.5,99.6,64.3,99.6,64.2,99.7z"/>
					<path class="fill_item" d="M25.6,88.2c-0.1,0-0.5-0.3-0.6-0.4c0.4,0.3,0.9,0.5,1.2,0.7C25.7,88.2,25.8,88.3,25.6,88.2z"/>
					<path class="fill_item" d="M17.1,82.2c0.1,0,0.5,0.4,1.1,0.9c0.6,0.5,1.3,0.9,1.8,1.3l-1.5-1L17.1,82.2z"/>
					<path class="fill_item" d="M10.3,75.4c-0.5-0.7-0.4-0.5,0.4,0.4C10.8,75.8,10.5,75.5,10.3,75.4z"/>
					<path class="fill_item" d="M9.8,74.9c-0.5-0.6-0.7-1-0.9-1.3C8.9,73.7,10.1,75.1,9.8,74.9z"/>
					<path class="fill_item" d="M2,55.9c-0.1-0.5-0.2-1.6-0.2-2c0,0.3,0.1,0.9,0.1,1.4C2,55.7,2.1,56.1,2,55.9z"/>
					<path class="fill_item" d="M1.9,46.3C1.9,46,2,45.8,2,45.5c0.1-0.6,0,0,0,0.5L1.9,46.3z"/>
					<polygon points="105.8,64.6 106.2,63.7 106.2,63.8 					"/>
					<path class="fill_item" d="M38.8,93.4c-1-0.2-0.7-0.2-0.9-0.3C38.9,93.3,37.6,93.1,38.8,93.4z"/>
					<polygon points="9.4,66.3 9.5,66.6 9.4,66.5 					"/>
				</g>
			</g>
		</g>
	</g>
</g>
</svg>
