<svg id="레이어_1" data-name="레이어 1" xmlns="http://www.w3.org/2000/svg" viewBox="0 0 374.65 97.97"><defs><style>.cls-1{fill:#fff;}</style></defs><title>line9</title><path class="cls-1" d="M11.48,97.91c1.43,0-.75-.31.94,0A1.26,1.26,0,0,1,11.48,97.91Z"/><path class="cls-1" d="M361.24,22c-4.51,1.07-10.57.74-15.53,1.62-.58.08.12-.43-1.2-.22-4.79,1-12.44,1.26-18.37,1.34l.34-.15c-1.13,0-2.46.53-3.65.58,0-.07.37-.14.08-.22-.28.26-2.14.3-2.63.53-.48-.05-.45-.24-1.06-.29l-.66.34c-1.83.81-4.6.39-7.14,1,.11-.08.36-.15.15-.19-4.1.8-9.28,1.26-13.89,1.9.17-.11.32-.31,0-.38-.2.31-1.62.53-2.85.72-.59-.23-2.1.5-3.57.5l.12-.08c-1,.43-1.61,0-2.44.47l-.71-.15c-.43.46-1.58,0-2.44.27l0,.08c-.83.2-1.29,0-2.06.2l-.07,0c-1.81.31-2.89.21-2.81.53-.67-.18,1.75-.33.7-.58-5.94,1-12.1,1.73-18.11,2.51a4.85,4.85,0,0,1-1.3-.12,24,24,0,0,0-2.78.59c.2,0-.41-.12-.73-.09-1.11,0-1.14.51-2.36.53.46-.15.61-.28.44-.37a26.27,26.27,0,0,1-3.57.77c.18-.08.47-.15.41-.24-1.28.46-2.42.27-3.55.6l.41-.24c-1.9,0-.5.46-2.13.55.38-.11.23-.16.29-.25a47.68,47.68,0,0,1-5.39,1.1c.09,0,.06-.08.06-.08-1.63.27-3.36.41-5.13.82-.67,0,.15-.48-1.57-.16.12.36-2.91.59-1.83.85a44,44,0,0,0-4.81.64c.65-.24-.78-.34.44-.55l-1-.09c.11-.17,1-.09.64-.23-.62.1-2.39.52-2.94.54a19.66,19.66,0,0,1-3.92,1.32c.84-.28-.56-.33,0-.49l-2.46,1.11c-.61.11-.18-.27-1.05,0,.06.09-.31.21-.57.33s-2.53.5-2.86.18c-.29-.1,1-.23.29-.25-1.13.18-1.16.31-2.29.5l0,0c-.76.06-2.18.51-1.33.58.52-.08-.24-.19.55-.21a11.24,11.24,0,0,1-2.93.76c.38-.13.32-.22.46-.34a45.41,45.41,0,0,1-4.75,1.29c0,.17.58-.42.85-.37-2.21.12-4.43,1.08-6.3,1,.29-.08.2.21.18.17-1.05.16-1.05-.1-1.72.11-.09-.14-.84.19-1.54.36-.34.17-.19,0,.42-.16a49.1,49.1,0,0,1-7.12,1.38,6,6,0,0,1-1.85.68l.17-.26c-.5-.05-1.74.33-1.86.15-1.06.47,4.23-1,2.76-.51-.42-.12-2,.73-1.75.36a14.22,14.22,0,0,1-3,.6c.3,0,.79-.46-.05-.29-1.47.3-.4.18-1.58.47l-.74.23c0,.23-1.33.22-.73.36-.22-.15-2.13.51-2,.11l.15-.32a6.49,6.49,0,0,0-1.47.72c-.08,0-.26,0-.24-.09,0,.45-1.53.24-2.23.72-1.37.1-3.41.63-4.09.48a14.15,14.15,0,0,1-3.11.8c.23-.09.55-.16.6-.27a4.47,4.47,0,0,0-1.59.37,19.32,19.32,0,0,0-2.37,0c-1,.33-.6.5-.67.66-1-.25-2.83.85-4.08.69.34-.13,1.45-.51.58-.45-1-.24-1.82.69-3.37.79l.44.28c-.71-.09-2.17.65-2.09.26-.48.23-1.8.24-1.56.55-2.54.21-6,1.41-7.62,1.11-.34.13-1.24.25-1,.4.63.07.79-.31,1-.23-.32.08-.37.19-.39.24-.78.08-1.39.19-.73-.26-1.75.15-1.64,1-3.84,1.29.07-.17-.1-.19-.73,0l-1.16.51c-1.41.24-.86-.16-.95-.4a7.52,7.52,0,0,0-2,.65l-1-.11c.71.08-.59.28-.93.42l.34-.14a5.12,5.12,0,0,0-1.44.31,4.67,4.67,0,0,0,1.53-.07c-.36.19-1,.29-1.45.53.12-.27-1.25.1-1.85.21s-.73.38-.93.42c0-.13-1.12.22-.62-.07.22-.09.55,0,.92-.19-.48,0-.47-.22-1.37.14-.68.28.29.43-1.08.58a3.85,3.85,0,0,0,.63-.39l-1.28.15v.23c-.18,0-.07-.06-.16-.07-.32.31-1.89.49-2.11.81-.63.17-1.36.15-2,.26l.11,0a6.61,6.61,0,0,0-2.3.63l0,0a8.36,8.36,0,0,0-1.82.56c-1,.07-.53-.74-1.59-.2-1,.24-1.52.77-1.07.81-1.89.28-3.9,1.12-5.69,1.19-.24.15-.06.17-.6.35-2.73.56-5.66,1.62-7.91,1.72.76-.28,0-.22,0-.34-.6.35-.83,0-1,.37.11.18.07.29.85.19a28.2,28.2,0,0,1-5,1.14c.47,0,.14.13-.2.27,0-.34-1.16-.09-2,.25l-.08.22-.63,0c-.33.15-.28.49-1.22.54a.39.39,0,0,0-.31-.14A11.66,11.66,0,0,1,91.46,66L90.57,66c-.42.14-1.11.49-.33.38a17.27,17.27,0,0,1-3.48.44,64.7,64.7,0,0,1-10.53,3.4l.06-.17c-1,.11-.41.37-1.08.45.26-.22-.78-.1-.1-.46a8.3,8.3,0,0,0-2.47,1c-.08.22.65-.3.55,0-.13.1-1.86.35-2,.69-.36,0-.16-.3,0-.46l-.77.36c-1.08-.06,2.08-1.21.94-1.32l-.73.24c-.79-.09,1.87-.87,0-.46-.77.36-1.35,1-.6.89-1.66.54-.59.88-2.4,1.36-.54,0,1.43-.44,1-.57-.91,0-1.67.6-2.45.73.87-.13.24.35-.29.56-1,.13.52-.43-.79-.1-.17.23-1.33.69-.26.5-.37.5-1.38.29-2,.77-.5-.13,1.17-1-.3-.7.3.19-1.66.84-.8,1-.58.09-.7-.09-.33-.36-.85.07-1.81,1-2.21.59l-.2.34c-.28,0-.65,0-1.1,0-.71.2-2.17,1-2.21.6-.22.11-1.83.56-1.13.64,1.05-.13,1.09-.53,1.75-.33a3.54,3.54,0,0,0-2,.73l-.14-.12c-.33.15-1.13.36-1.29.58.23-.16.07-.22-.22-.18l-.29.33c-1.36.53-.44-.29-1.78.18l1-.48a8.65,8.65,0,0,0-1.37.29c-.19.28-.59.67-.76.9-.73.32-.41-.13-1.09.31l.91-.55c.12-.11-.77-.14-1.79.18-.63.27-1.55.87-.49.67-.51.16-1.26.25-.9,0-1.13.42.22.17-.74.61-.45,0-1.78.18-2.61.22l.94-.66-.69.21c.81-.55-.52-.07-.11-.51a6.38,6.38,0,0,0-1.46.59c1.53,0-1.35,1.12-.82,1.41-1.85.71-1.5-.65-3.26.64.35,0-.47.62.68.12-1.19.33-.67.68-2.11.94,1-.5-1.23-.07.17-.79-.06.17.86-.16,1.07-.28-.53,0,0-.45-1.23-.07-.72.28-1.73.61-1.51.79s1.11-.39.72,0c-1.43.56-1.79.27-2.26.9.91-.34,1.22-.16,1.26,0l-1,.44.16-.22c-1.76.44-.42.45-2.09,1L30.29,84c.3-.4,2.45-.68,2-1a23.28,23.28,0,0,1-2.43.9l.74-.34a3.56,3.56,0,0,0-2.4.51c-.75.4-.16.23-.12.4-1.72.63-2.17,1-3.28,1.38.12-.4-2,.65-.86-.1a10,10,0,0,0,3.63-1.39c-.76-.17,1.38-.41,1.63-.91-1.4.45-1.46,0-1.76-.12a4,4,0,0,0-.95.46c-.09.29.42.11.52.34a15.3,15.3,0,0,0-3.79,1.62c-.55.07-.47-.22.14-.45-1.82.7-3.79,1.36-5.55,1.92,1.25,0-1.91.79-1,.82,1-.25,1.85-.27,1.4.08-.59.19,0-.17-.31-.16-.66.47-1.27.09-1.88.67,1.63-.73.16-.57.36-1-1.14.61,0-.23-1.21.21-1.14.61-2.56,1.28-3.86,1.86A32.67,32.67,0,0,0,5.64,92c-.82.18-.45-.37-1.3-.06s.87,0-.62.52l.11-.12c-.24.15-.75.31-1.3.59s-1,.6-.69.76a1,1,0,0,1-.29-.33.56.56,0,0,0-.3.26.27.27,0,0,0,0,.22c-.21,0-.47.29-.52-.16a.6.6,0,0,0-.12.71,1.43,1.43,0,0,0,.5.6,9,9,0,0,0,1.49.65,2.29,2.29,0,0,1-.32-.41c.38.14.71.23,1,.34l1,.29a14,14,0,0,0,2.28.49l-.09.21,1,0c-.28.17.64.45,1.21.33-.91.07-1.83.12-2.76.14-.72-.27.86-.12.43-.42a4.83,4.83,0,0,0-2.25-.39,3.2,3.2,0,0,0,1.12.15c.14.35-.78.14-1.29.22.32.07.76.27.85.18a4.87,4.87,0,0,1-1-.1,8.82,8.82,0,0,1-1.55-.49c.89.23-.3-.32.08-.26a1.36,1.36,0,0,1-1-.21A2.31,2.31,0,0,1,0,94.41,3.86,3.86,0,0,1,0,94a1,1,0,0,0,0-.25,1.07,1.07,0,0,1,.13-.21,7.76,7.76,0,0,1,1.12-1,9.46,9.46,0,0,1,1.82-1c-.61.58-1.24,1.12-1.89,1.64a18.54,18.54,0,0,1,1.92-.85,4.36,4.36,0,0,1,1.6-1.42L4.9,91c1-.54.89-.82,2.24-1.31l6.47-2.38.14.17c.83-.78,3.22-1.36,4.48-2,2.32-.63,4.85-1.91,6.13-2C28.31,82,31.77,80.66,36,79.4l-.61.5c.68-.44.53,0,1.25-.27-.91.05.92-.61,1.39-.95a30.09,30.09,0,0,0,5.83-2.06l.13.17c1.56-.88,3.65-1.17,5.75-1.73A3,3,0,0,0,51,74.93a20.3,20.3,0,0,1,3.24-1.49c1.22-.36,3.21-.86,4.48-1.09,4.45-1.77,9.21-2.8,13.9-4.37l.41.14c4.5-1.76,10.32-2.82,14.22-4.1l-.29.49c1.28-.2,2.81-.83,2.42-1,1.28-.2,3.06-1,3.94-.86a16.83,16.83,0,0,0,2.56-.9,59.16,59.16,0,0,0,5.93-1.42l-.61.12c-.24.15-.22.33.38.2.87-.33,3.34-.7,2.33-.95,2.64-.36,5.95-1.68,8.55-1.9-.24-.08.38-.25.63-.4,2.26-.54,4.7-.83,6.46-1.47.38,0-.52.35.4.15.54-.17,0-.17.63-.39,3.62-1.09,7.5-1.44,10.83-2.25,5.89-1.56,12.13-2.76,17.84-4l-.05.1c1.84-.76,4.57-.54,6-1.4.48,0,1.74-.31,1.44-.06,1.48-.56,4.32-.61,6.46-1.37a2.16,2.16,0,0,0-.54.16c2.27-.23,4.18-.9,6.57-1.16-.23.08-.66.2-.71.31,1,0,2.08-.82,2.67-.46.52-.1.33-.3,0-.22,5.19-.81,10.64-2.13,16-3.2,3.9-.41.37.74,3.35-.15.27.05.15-.21.21-.12,1.15-.34,1.92.2,2.7-.19-.39-.23.51-.26.51-.43,2.38-.23,2.9-.05,4.73-.59l-.12.17c2.11-.79,4.68-1,6.44-1.79,12-2.11,23.56-4.18,35.34-5.93,11.66-1.58,23.06-3.32,35-4.51a21.75,21.75,0,0,0,6.07-.5c-.12.08-.31.12-.1.16.12-.35,2.15-.28,2.41-.63,4.39-.45,8.43-1,12.95-1.49-.71.12-1,.42-.2.31l.87-.31.15.08c.58-.11,1.2-.34.58-.38,11.33-1.51,22.58-1.93,33.72-3,2.66-.1,6.41-.54,9.28-.84,8.57-.25,16.28-.47,24.92-1.36C365.87,20.65,364.8,21.58,361.24,22Z"/><path class="cls-1" d="M9.76,97.78c-.29-.19-1.27-.39-.46-.52C9.38,97.42,9.88,97.65,9.76,97.78Z"/><path class="cls-1" d="M15.53,88.44c0-.06.38-.07.47-.07-.31.12-.55.36-.82.37C15.49,88.61,15.41,88.55,15.53,88.44Z"/><path class="cls-1" d="M21.93,86.25a8.73,8.73,0,0,1-2.17,1.06Z"/><path class="cls-1" d="M28.09,84.78c.56-.06.43,0-.26.28C27.75,85,28,84.89,28.09,84.78Z"/><path class="cls-1" d="M28.41,84.32a2.77,2.77,0,0,1,1-.17C29.39,84,28.32,84.61,28.41,84.32Z"/><path class="cls-1" d="M41.56,80.51a3.39,3.39,0,0,1,1.3-.37C42.5,80.13,41.39,80.79,41.56,80.51Z"/><path class="cls-1" d="M47.58,78.43a1.86,1.86,0,0,0,.51-.16c.38,0,0,.17-.28.28Z"/><polygon class="cls-1" points="159.98 50.1 159.31 50.3 159.39 50.14 159.98 50.1"/><path class="cls-1" d="M210,41c.66-.21.49.05.61.06C210,41.18,210.8,40.85,210,41Z"/><polygon class="cls-1" points="236.97 36.08 236.76 36.11 236.79 35.81 236.97 36.08"/><path class="cls-1" d="M297,.1c-.49-.14.14.34-.35,0C296.75,0,296.88,0,297,.1Z"/><path class="cls-1" d="M317.07,43.25c1.09-1.42,3.34-1.67,4.71-2.9.18-.12.14.4.52.11,1.28-1.29,3.87-2.15,5.95-2.63l-.06.16c.39-.09.67-.66,1.07-.78,0,.07-.07.15.06.21,0-.26.65-.42.73-.66.19,0,.26.19.5.2l.1-.35c.34-.86,1.5-.65,2.19-1.33,0,.08-.07.16,0,.19A28.56,28.56,0,0,1,337.19,33c0,.11,0,.3.12.35,0-.29.4-.56.78-.79.3.19.58-.55,1.12-.61V32c.23-.44.59-.07.73-.53l.31.11c0-.44.59,0,.8-.34l0-.07c.23-.21.45-.09.68-.26l0,0c.55-.35,1-.29.85-.58.31.15-.53.35-.06.56a39.64,39.64,0,0,1,5.86-2.76c.27,0,.43,0,.52.09.18-.14.73-.36.85-.58-.07,0,.19.1.3.07.4,0,.26-.49.71-.51-.13.14-.14.26,0,.35.24-.37.71-.52,1.08-.76,0,.08-.13.15-.08.23.33-.43.82-.26,1.14-.58l-.08.23c.71,0,0-.44.63-.53-.11.11,0,.16,0,.24.37-.51,1.22-.73,1.68-1,0,0,0,.08,0,.08a13.46,13.46,0,0,0,1.67-.75c.25,0,.1.45.65.16-.16-.34.92-.52.43-.78a5.65,5.65,0,0,0,1.63-.55c-.17.22.4.33,0,.52l.39.09c0,.16-.34.07-.17.21a6,6,0,0,1,.95-.47c.3-.35.5-.88,1.1-1.16-.24.25.31.32.14.46l.61-1c.19-.1.16.25.39.06-.05-.09,0-.18,0-.28s.49-.28.9,0c.21.08-.22.17.09.19.35-.13.23-.22.55-.34l.06,0c.31-.05.4-.31-.11-.34-.14,0,.36.1,0,.12-.15-.17,0-.3.26-.39,0,.05.2.09.34.15a.72.72,0,0,1,0-.52c-.41,0,.66.09.38.1.52-.06.58-.17.58-.25s0-.13.78-.23a6.81,6.81,0,0,1-.69,0c.26-.07,1.14-.12.95-.15.55,0,0-.06,0-.09h0c.11,0,.23,0,.2,0s-.06,0-.06,0c-.31,0-.85,0-1.16-.05s-.53-.07-.46-.15a11.75,11.75,0,0,1-1.23.13l.6-.12c.25-.1-.36,0,.06-.17-.41.07-.08.07.29.06s.79,0,.34,0c.39-.13-1.32.14-.49,0-.26,0-.95.1-.71-.08,0,0,.8-.18.56-.2-.42,0-.3.06-.69.06l-.3.05c-.33.16-.2-.07-.45.14.2-.15-.47,0,0-.27l.35-.23c-.19,0-.55.21-.74.3a.33.33,0,0,1,.06-.12c-.34.39-.28-.09-.58.21,0-.16-1-.19-1.09-.49a1.88,1.88,0,0,1-1.15,0c.09,0,.2,0,.25-.1-.24-.18-.33-.08-.58-.05.07-.06-.48-.35-.74-.56-.39.06-.3.32-.37.46-.25-.49-1.07.09-1.42-.38.14,0,.57-.11.29-.28-.25-.49-.73.2-1.22-.1l.06.38c-.2-.27-.83.06-.7-.3-.21.1-.61-.23-.62.13-.82-.46-2.17-.23-2.59-1-.13,0-.44-.09-.41.1s.32-.08.37.07c-.11,0-.15.08-.18.12-.25-.13-.46-.2-.15-.44-.57-.33-.74.48-1.49.19.07-.14,0-.2-.21-.22l-.48.16c-.49-.16-.22-.39-.18-.63-.28,0-.6-.09-.76.07l-.26-.37c.19.27-.25.1-.39.14l.14,0c0-.11-.35-.11-.51-.11,0,.16.31.28.47.36-.16.08-.36,0-.57.11.11-.23-.4-.26-.61-.33s-.32.16-.38.14-.4-.1-.17-.23.16.15.32.07c-.14-.12-.08-.33-.44-.24s0,.48-.48.23c.14,0,.18-.12.3-.19l-.42-.21-.07.21c-.05-.07,0-.08,0-.11-.18.2-.7-.07-.85.16-.23,0-.44-.25-.65-.31h0a.89.89,0,0,0-.85-.07l0-.05a1.19,1.19,0,0,0-.7,0c-.32-.24.06-.85-.4-.66-.37-.07-.66.28-.54.45-.63-.29-1.45-.1-2-.57-.11.07-.06.14-.27.15-.95-.3-2.1-.19-2.77-.79.3,0,.07-.22.09-.34-.28.14-.23-.27-.39,0s-.07.29.19.43a3.57,3.57,0,0,1-1.75-.49c.13.13,0,.16-.14.19.11-.3-.3-.45-.65-.42l-.09.18-.16-.24c-.14,0-.23.37-.5.11a.33.33,0,0,0-.05-.22c-.37.07-.9.23-1.22,0l-.23-.35c-.16,0-.46.09-.21.24-.57-.32-1-.44-1.09-.73a7.72,7.72,0,0,1-4-.4l.08-.13c-.3-.23-.24.2-.44,0,.14-.11-.17-.36.13-.46-.43-.27-.67.08-1,.07-.09.17.28-.06.16.16-.07.05-.61-.32-.76-.06-.09-.14.06-.32.15-.42L325,12c-.26-.42,1-.37.7-.87l-.28,0c-.17-.36.79-.14.16-.42-.33.06-.69.4-.46.59-.62-.08-.46.6-1.1.4-.13-.21.53.1.47-.16-.25-.31-.65,0-.9-.19.27.18-.06.4-.27.4-.29-.23.29-.21-.16-.37-.13.14-.59.14-.25.36-.27.32-.45-.24-.78,0-.08-.3.64-.46.17-.73,0,.27-.72.15-.56.6a.25.25,0,0,1,0-.44c-.24-.24-.82.25-.77-.27l-.17.23c-.06-.11-.17-.21-.28-.39s-.91.11-.77-.27c-.09,0-.66-.16-.52.16.31.27.47-.07.56.35-.16-.37-.52-.12-.76-.08v-.16c-.14,0-.41-.09-.54.05.12-.06.1-.17,0-.24l-.2.19c-.53-.05,0-.43-.5-.52l.42-.06c-.09,0-.19-.25-.44-.25-.15.18-.4.37-.52.51-.3,0-.05-.27-.39-.15l.43-.13c.07-.05-.13-.42-.5-.52s-.7.18-.37.4c-.18,0-.4-.25-.21-.36-.43-.06,0,.24-.41.25-.1-.18-.49-.51-.7-.8l.48-.22-.25-.08c.41-.17-.09-.26.18-.49a1,1,0,0,0-.58,0c.35.61-.75.46-.74.92-.72-.1-.09-1.16-1-.73.07.15-.36.35.1.38-.4-.19-.42.32-.86,0,.43,0-.25-.56.36-.63-.08.13.26.21.36.19-.12-.22.17-.41-.26-.55-.27,0-.63-.16-.65.07s.41.11.16.3c-.55-.09-.51-.49-.87-.13a.36.36,0,0,1,.28.51l-.42,0,.13-.13c-.57-.32-.28.23-.86,0l-.17-.41c.24-.22.82.42.87-.06-.38-.15-.59,0-.91-.2.09,0,.21,0,.3,0-.13-.06-.07-.69-.73-.54-.33,0-.13.14-.2.3-.63-.16-.87-.07-1.28-.18.2-.3-.68-.29-.13-.46a1.31,1.31,0,0,0,1.35.33c-.09-.45.47.22.73-.12-.49-.17-.33-.54-.33-.81a.65.65,0,0,0-.39,0c-.14.21,0,.27,0,.51a2.26,2.26,0,0,0-1.48-.21.2.2,0,0,1,.22-.33,10.36,10.36,0,0,1-2-.75c.26.52-.72-.16-.56.25.3.2.48.57.24.67-.2-.1.06-.16,0-.27-.34.11-.29-.48-.67-.25.64.1.29-.41.51-.67-.49,0,.09-.2-.33-.35a6.32,6.32,0,0,1-1.55-.19c-.48-.52-1.49-.6-2-.8-.22-.26.1-.51-.18-.69s.12.46-.34.1l.08,0c-.19,0-.86-.6-1.21-.19l.31-.29c-.09-.07-.21,0-.3,0s0-.27.16-.27c-.21-.38-.68-.25-1-.39l.13.31c-.66-.09-1-.47-1.57-.64l.11-.2-.39,0c.17-.16-.09-.42-.34-.34l1.1-.12c.19.23-.38.13-.31.4a.61.61,0,0,0,.77.24c-.19-.11-.22-.07-.41-.06.06-.31.36-.17.59-.29-.11,0-.22-.19-.28-.11a1.42,1.42,0,0,1,.83.16c-.28,0,.05.23-.07.28.13-.24.49-.18.89.07.18.43.88.15,1.34.43a1.85,1.85,0,0,1-1,.25c.26.26.35.14.61.39a1.31,1.31,0,0,1,.91-.33l-.05.19c.41.06.52-.22,1,0a23.51,23.51,0,0,0,2.2,1l-.05.2c.5-.28,1.21.27,1.74.26.73.47,1.79.45,2.08.92A31.72,31.72,0,0,1,313.7,6.2l-.34.19c.33-.11.12.22.39.27-.22-.33.45-.17.69-.28a3.58,3.58,0,0,0,2.14.44l0,.2c.7-.18,1.3.35,2,.64.06.11.14.33.36.38a3.48,3.48,0,0,1,1.34-.14,7.91,7.91,0,0,1,1.5.65c1.73,0,3.29.77,5.05.95l.06.26c1.75,0,3.65.9,5.11,1l-.24.36c.41.23,1,.14,1-.16.41.23,1.15.07,1.35.46.43.18.59-.05,1,0a6.64,6.64,0,0,0,2.08.53l-.21-.07c-.11.06-.16.23,0,.3s1.14.38.93-.17c.85.48,2.17.25,3,.81-.05-.14.18-.12.29-.19a7.64,7.64,0,0,0,2.27.53c.11.1-.25.18.07.26s0-.16.3-.19c1.35,0,2.57.8,3.77,1,2.15.16,4.32.73,6.35,1.06l0,.09c.74-.24,1.51.68,2.16.23.14.12.6.15.45.32.58-.16,1.46.52,2.3.33a.29.29,0,0,0-.2,0c.75.35,1.49.19,2.29.54-.09,0-.25,0-.29.11.29.25.83-.26.93.23.18,0,.17-.21.05-.21l.68.17.35.07.44.08c.77.13,1.56.25,2.39.36l5.29.71c.89.3.37.41.06.48s-.53.06.78.12c-.12.07.6-.08.35,0,.53,0,.41.14.28.23s-.28.17.33.16a8.48,8.48,0,0,1,1.42-.1c.51.24.28.36.71.45a.63.63,0,0,0-.35.22h-.49c.25.14-.23.37-.66.58s-.83.43-.72.66l-5.29,2-2.71,1-1.11.45-.73.31c-1.92.81-3.83,1.64-5.77,2.43-3.89,1.42-7.55,3.16-11.52,4.55a2.85,2.85,0,0,0-2.06.63c0-.08.07-.12,0-.14.08.32-.69.33-.66.66-1.45.56-2.73,1.21-4.18,1.86.21-.13.22-.43,0-.29l-.21.32-.08-.06c-.17.13-.31.37-.07.38-3.55,1.89-7.41,2.94-10.93,4.72a16.65,16.65,0,0,0-2.92,1.47,32.14,32.14,0,0,0-8.07,3.5A2.17,2.17,0,0,1,317.07,43.25Z"/><path class="cls-1" d="M297.56.31c0,.19.31.41,0,.5C297.56.66,297.46.43,297.56.31Z"/><path class="cls-1" d="M305.61,5.42s.11.11.13.15-.27.06-.33-.05C305.53,5.55,305.54,5.47,305.61,5.42Z"/><path class="cls-1" d="M307.85,6.34c-.09.13-.61.06-.91,0Z"/><path class="cls-1" d="M309.76,7.67c.15.18.08.23-.17.14C309.59,7.73,309.69,7.72,309.76,7.67Z"/><path class="cls-1" d="M310,7.41a.5.5,0,0,1,.29.28C310.36,7.57,309.89,7.62,310,7.41Z"/><path class="cls-1" d="M314.53,9.37c.12,0,.4,0,.45.17C314.9,9.39,314.38,9.54,314.53,9.37Z"/><path class="cls-1" d="M316.77,9.83a.21.21,0,0,0,.18.06c.11.1-.06.16-.17.14Z"/><polygon class="cls-1" points="357 18.67 356.75 18.69 356.81 18.56 357 18.67"/><path class="cls-1" d="M364.25,21.09c.06.07-.33,0-.39,0S364.16,21.14,364.25,21.09Z"/><polygon class="cls-1" points="357.13 24.56 357.2 24.53 357.28 24.82 357.13 24.56"/></svg>