<svg id="레이어_1" data-name="레이어 1" xmlns="http://www.w3.org/2000/svg" viewBox="0 0 45.56 39.97"><defs><style>.cls-1{fill:#fff;}</style></defs><title>line5</title><path class="cls-1" d="M30.34,4.8c.48-.62-.32.28.3-.42A1.18,1.18,0,0,1,30.34,4.8Z"/><path class="cls-1" d="M30.92,2.53C31.51,5,31.75,8.3,32.29,11c.06.31-.14-.07,0,.65.56,2.62,1.05,6.81,1.38,10l-.06-.19c.06.62.28,1.35.36,2,0,0-.06-.21-.07-.05s.2,1.17.29,1.44,0,.24,0,.58l.13.36c.34,1,.35,2.52.65,3.92,0-.07-.06-.21-.06-.09.44,2.25.83,5.09,1.23,7.62,0-.09-.1-.18-.11,0a7.89,7.89,0,0,1,.35,1.57,2.72,2.72,0,0,0,.1.74l.08.37-.22-.32a8.6,8.6,0,0,1-.65-1l.05,0c-.38-.46-.44-.76-.79-1.11l-.15-.35c-.25-.14-.46-.73-.8-1.09v0c-.31-.35-.42-.57-.7-.89l0,0c-.67-.75-1-1.22-1.07-1.14-.18-.31.67.7.39.22A52.33,52.33,0,0,0,25,27.71a6.37,6.37,0,0,1-.52-.48c-.28-.18-1-.71-1.32-.84.09.06-.15-.16-.29-.26-.49-.37-.61-.28-1.15-.68.24.12.33.14.28.06-.52-.24-1.15-.67-1.73-1,.1,0,.24.12.23.08-.66-.32-1.12-.73-1.7-1l.24.08c-.85-.61-.32-.07-1.06-.57.19.09.14,0,.18,0-.76-.36-1.9-1.1-2.63-1.51,0,0,0,0,0,0-.78-.47-1.57-1-2.44-1.5-.29-.22.17-.05-.65-.55,0,.12-1.39-.86-1-.44-.68-.47-1.74-1.23-2.2-1.52.32.18-.25-.34.31,0l-.38-.35c.09,0,.42.32.32.18-.28-.2-1.12-.73-1.35-.93a14,14,0,0,1-1.92-1.2c.41.27-.14-.26.13-.08-.42-.23-.83-.49-1.24-.74s0-.11-.4-.41c0,0-.18-.09-.31-.17S3.35,13,3.32,12.81s.42.37.17.08c-.45-.44-.51-.42-1-.87v0c-.24-.26-1-1-.7-.55s0-.12.31.27A13.65,13.65,0,0,1,.56,10.13a2.65,2.65,0,0,0,.42.35L.29,9.8c0-.05-.16-.15-.13-.15l.18,0,.37.08,1.7.36c0-.06-.37,0-.56-.07.4.12.77.21,1.15.3l.56.13.45.08a12.55,12.55,0,0,1,1.63.4c-.16,0-.07-.1-.06-.08a9.17,9.17,0,0,0,.9.26,5.73,5.73,0,0,0,.86.15c.21,0,.1.05-.24,0,.54.08,2.69.46,3.92.75a6.63,6.63,0,0,1,1.06.09l-.12.05c.25.09,1,.16,1,.23.62,0-2.36-.35-1.53-.27.2.11,1.17.1,1,.16a15.09,15.09,0,0,1,1.68.28c-.16,0-.49,0,0,.09a7.92,7.92,0,0,0,.9.09l.42,0c0-.06.73.12.44,0,.09.07,1.19.15,1.09.25l-.12.07a5,5,0,0,0,.87,0s.14.05.12.06.84.13,1.28.08c.73.16,1.89.25,2.23.38a16.37,16.37,0,0,1,1.76.14,1.27,1.27,0,0,0-.36,0,4,4,0,0,0,.89.07c-.08,0,.82.16,1.27.26s.39-.07.45-.11c.51.18,1.62,0,2.26.22-.2,0-.84,0-.37.07a13.47,13.47,0,0,0,1.9.11l-.2-.12c.37.09,1.25,0,1.15.12.29,0,1,.11.91,0,1.38.16,3.37.11,4.22.32.2,0,.69,0,.59,0-.33-.07-.46,0-.58,0,.18,0,.22,0,.23,0,.43,0,.77.06.36.14,1,.09,1-.17,2.22-.1-.06,0,0,.06.39,0l.68-.06c.79,0,.45.1.47.17a6.53,6.53,0,0,0,1.13-.07l.51.09c-.37-.06.35,0,.55-.06l-.2,0a4.46,4.46,0,0,0,.81,0,3.89,3.89,0,0,0-.83-.07c.22,0,.55,0,.84-.08-.06.08.59,0,1.21,0s.73-.09.88-.08c0,0,.86,0,.36.07a3.73,3.73,0,0,0-.7,0,3,3,0,0,0,.92,0,1,1,0,0,0,.42-.07h.12l0,0-.39.39a2,2,0,0,0,.23-.34l-.73.7.07,0c-.12.09-.06,0-.12.07a4.84,4.84,0,0,1-.59.61c-.14.13-.3.25-.42.35a1,1,0,0,0-.18.17,6.82,6.82,0,0,1-1,.53l.05,0c-.39.17-.89.43-1.21.6l0,0c-.22.09-.73.29-1,.42-.57.14-.27-.18-.85.1s-.85.36-.61.34c-1,.24-2.17.62-3.13.75a1.15,1.15,0,0,1-.33.15c-1.49.33-3,1-4.21,1.32.4-.18,0-.07,0-.1-.32.19-.43.11-.52.25.06,0,0,.08.44-.06-.83.37-2.1.93-2.58,1.08.24-.07.07,0-.11.12,0-.12-.6.15-1.05.39l0,.08-.33.08a1.57,1.57,0,0,1-.64.36.27.27,0,0,0-.16,0,10.57,10.57,0,0,1-1.65.82L24,23.9c-.22.11-.58.33-.17.17a18.17,18.17,0,0,1-1.81.66c-1.47.85-3.71,1.84-5.49,2.65l0-.07c-.5.18-.22.19-.57.31.14-.11-.4.09,0-.13a7.4,7.4,0,0,0-1.28.7c0,.09.34-.2.28-.09a6.3,6.3,0,0,0-1,.53c-.18.05-.08-.07,0-.15l-.39.24c-.56.15,1.07-.72.49-.57l-.38.19c-.41.09,1-.57,0-.15-.4.24-.7.53-.31.39-.85.44-.31.37-1.24.82-.27.08.74-.37.53-.35a13.44,13.44,0,0,0-1.26.64c.45-.19.12.07-.15.23-.49.2.27-.23-.4.09-.09.11-.68.45-.14.21-.18.23-.7.32-1,.59-.25,0,.6-.52-.15-.18.15,0-.85.55-.41.46-.3.13-.35.09-.17-.06-.43.16-.92.63-1.12.57l-.1.14-.56.2c-.36.18-1.1.7-1.12.58-.11.07-.92.5-.57.41.53-.23.55-.37.88-.42a3.64,3.64,0,0,0-1,.58H5.29l-.1.05L.59,36l4-3.73a4.34,4.34,0,0,0,.48-.47c-.1.12,0,.09.1,0l.12-.19c.58-.54.22,0,.8-.55l-.42.43c.09-.09.34-.22.61-.47.07-.15.22-.38.29-.5.3-.31.19-.07.47-.41l-.37.43c0,.08.35-.17.79-.56.26-.26.63-.72.17-.35.22-.2.55-.44.41-.25.48-.46-.11,0,.29-.41.21-.12.78-.57,1.14-.83l-.36.49.29-.27c-.32.41.24-.13.09.13a5,5,0,0,0,.6-.62c-.68.44.52-.75.26-.69.75-.78.71-.24,1.38-1.18-.16.1.15-.34-.31.16.49-.46.24-.41.84-.94-.38.46.54-.36,0,.31,0-.07-.36.31-.45.41.23-.16,0,.14.55-.35.28-.31.69-.73.58-.72s-.45.47-.31.22c.57-.62.75-.64.9-1-.37.39-.51.43-.55.39l.42-.47-.05.12c.72-.68.14-.27.81-1l.38-.26c-.1.23-1,1-.77,1,.43-.46.52-.66,1-1.06l-.28.34a3.36,3.36,0,0,0,1-.93c.27-.37,0-.12,0-.16.66-.76.82-1,1.25-1.5,0,.16.76-.86.37-.25a10.45,10.45,0,0,0-1.4,1.62c.34-.19-.54.58-.6.81.55-.58.61-.48.75-.52a4.31,4.31,0,0,0,.36-.46c0-.12-.19.1-.25.06a13.35,13.35,0,0,0,1.43-1.75c.23-.2.22-.08,0,.19l2.11-2.45c-.51.43.71-.89.34-.61s-.73.7-.58.44,0,0,.14-.05c.23-.37.52-.45.71-.85-.59.78,0,.24-.05.44.4-.58,0,.07.47-.47s.93-1.27,1.4-1.9c.69-.71,1.56-1.94,2.1-2.63.32-.33.21,0,.54-.4s-.36.27.21-.38l0,.08A9.35,9.35,0,0,0,25.76,10l-.07.28a2.68,2.68,0,0,0,.25-.37s.18-.11,0,.12A11.24,11.24,0,0,0,27,8.65l-.29.25c.58-.82,1.05-1.29,1.63-2.06l0,.06.33-.47c0,.15.32-.24.47-.51l-.8,1.27c-.29.3.21-.4,0-.24a4.08,4.08,0,0,0-.76,1A3.52,3.52,0,0,0,28,7.44c.15,0-.18.37-.29.61.11-.14.29-.32.29-.37a10.67,10.67,0,0,1-.76,1c.22-.33-.18.14-.11,0,0,.09-.29.54-.75,1.1-.4.34-.8,1.1-1.34,1.74a7.83,7.83,0,0,1,.65-1.12c-.35.39-.36.46-.72.85a4.24,4.24,0,0,1-.54,1h-.07a9.87,9.87,0,0,1-.8,1.17l-2.41,2.93h-.07a24.69,24.69,0,0,1-1.64,2.14c-.89,1-1.82,2.21-2.35,2.66-1.51,1.77-2.88,3.28-4.6,5l.22-.35c-.25.36-.23.16-.52.47.4-.29-.36.47-.54.72-.81.71-1.78,1.7-2.43,2.4l-.07,0a23.61,23.61,0,0,1-2.49,2.18,3.58,3.58,0,0,0-.59.41,11.51,11.51,0,0,1-.92.93l-.36-.52L5.33,32C5.94,31.71,7,31.2,7.6,30.9c2.25-1.34,4.69-2.46,7.13-3.69l.21,0c2.33-1.26,5.36-2.44,7.39-3.42l-.15.2c.66-.26,1.45-.68,1.26-.69.66-.25,1.59-.77,2-.86.67-.27.78-.41,1.33-.67,1.34-.55,1.82-.79,3.08-1.34l-.32.12c-.13.09-.12.14.2,0s1.76-.68,1.23-.62a31,31,0,0,1,4.67-1.44c-.13,0,.22-.1.36-.16a31.73,31.73,0,0,0,3.49-.91c.2,0-.28.15.21,0,.28-.11,0-.05.33-.19A17.13,17.13,0,0,0,42.76,16l.3-.2.1-.06.18-.13.17-.16H43.1l-.34,0-1.28,0-2.55,0c-1.7,0-3.39-.06-5-.11l0,0c-1.08.07-2.52-.22-3.39-.11-.25,0-1-.07-.78-.12-.86,0-2.39-.23-3.63-.25a1.05,1.05,0,0,0,.31,0c-1.25-.16-2.35-.19-3.66-.39a1.93,1.93,0,0,0,.42,0c-.5-.11-1.22,0-1.48-.19s-.22,0,0,.07c-2.87-.39-5.94-.75-8.92-1.24-2.11-.46-.09-.25-1.78-.46-.13,0-.11,0-.13,0-.65-.08-1-.35-1.44-.36.17.12-.31,0-.33,0a20.93,20.93,0,0,0-2.56-.61l.09,0c-.61-.06-1.26-.2-1.88-.32l-.91-.18-.43-.07a.5.5,0,0,0-.19,0A8.61,8.61,0,0,0,2.39,11l.18.18.36.36a46.18,46.18,0,0,0,3.67,3.2,90.85,90.85,0,0,0,8,5.48c5.44,3.44,11.07,6.59,15.93,11.2,1,1.17,1.13,1.24,2.33,2.47-.06,0-.13-.11-.07,0s.81.9,1,1a30.39,30.39,0,0,1,3.09,4.5l-1.1.37-.26-1.79c.06.39.17.57.1.11l-.13-.48v-.08c-.06-.32-.16-.66-.14-.33-1-6.21-1.67-12.35-2.57-18.44-.16-1.45-.5-3.51-.74-5.08C31.52,8.93,31,4.72,30.24,0A8.83,8.83,0,0,1,30.92,2.53Z"/><path class="cls-1" d="M29.76,5.54c-.14.1-.5.51-.28.13C29.55,5.66,29.76,5.47,29.76,5.54Z"/><path class="cls-1" d="M20.25,16.65a1.52,1.52,0,0,1-.18.17,2.5,2.5,0,0,1,.3-.39C20.25,16.57,20.29,16.57,20.25,16.65Z"/><path class="cls-1" d="M17.83,19.48a9.33,9.33,0,0,1,.79-1.06Z"/><path class="cls-1" d="M15.39,22c-.23.19-.19.12.09-.18C15.51,21.77,15.43,21.88,15.39,22Z"/><path class="cls-1" d="M15.3,22.21a2.45,2.45,0,0,1-.43.38S15.31,22.09,15.3,22.21Z"/><path class="cls-1" d="M9.93,27.47a3.71,3.71,0,0,1-.55.5C9.54,27.86,10,27.33,9.93,27.47Z"/><path class="cls-1" d="M7.39,29.87a2,2,0,0,0-.22.2c-.17.12,0-.05.1-.17Z"/><polygon class="cls-1" points="28.28 14.25 28.66 14.25 28.6 14.29 28.28 14.25"/><path class="cls-1" d="M0,9.64c.45.45.16.24.21.3C-.15,9.55.47,10.15,0,9.64Z"/><polygon class="cls-1" points="12.52 19.74 12.43 19.68 12.51 19.63 12.52 19.74"/></svg>