<svg id="레이어_1" data-name="레이어 1" xmlns="http://www.w3.org/2000/svg" viewBox="0 0 352.72 72.23"><defs><style>.cls-1{fill:#fff;}</style></defs><title>line4</title><path class="cls-1" d="M165.34,68.25c-.41,0-.18.07,1,.07l.8-.09Z"/><path class="cls-1" d="M173,68.41c1.33,0,2.87-.12,2-.2-1.32.09-1.64.05-3.07.16a8.86,8.86,0,0,1-1.79-.06c-.4,0-1.76,0-2.37,0,1.47.07,3.35.08,5.3,0C173.48,68.37,173.07,68.39,173,68.41Z"/><path class="cls-1" d="M283.6,60.91l-.71.1Z"/><path class="cls-1" d="M349,41.3l-.59.5A6.33,6.33,0,0,0,349,41.3Z"/><path class="cls-1" d="M351.57,30.73a5.65,5.65,0,0,1,.35.62A4.15,4.15,0,0,0,351.57,30.73Z"/><path class="cls-1" d="M283.6,60.91l1.82-.25C285.54,60.61,284.48,60.78,283.6,60.91Z"/><path class="cls-1" d="M188.27,68l-1,0,.93,0Z"/><path class="cls-1" d="M253.53,64.75l-.56.06-.46.07Z"/><path class="cls-1" d="M230.34,66.69a3.79,3.79,0,0,0,.91-.17c-.3,0-.68.09-1.14.13C230.1,66.66,230.17,66.68,230.34,66.69Z"/><path class="cls-1" d="M193.49,68.22l-.65,0Z"/><path class="cls-1" d="M270.08,62.89h0Z"/><path class="cls-1" d="M178.1,71.09s0,0,0,0C178.24,71.09,178.28,71.08,178.1,71.09Z"/><path class="cls-1" d="M205.05,70.35l-.37,0s-.08,0-.08,0Z"/><path class="cls-1" d="M334,18.68l.08,0C334.59,18.92,334.29,18.8,334,18.68Z"/><path class="cls-1" d="M138.54,1.59c2.23-.07-3.63.31-.26.17C138,1.75,141.32,1.46,138.54,1.59Z"/><path class="cls-1" d="M188.88,68l1,0Z"/><path class="cls-1" d="M138.28,1.76Z"/><path class="cls-1" d="M285.94,6.78l.5.12Z"/><path class="cls-1" d="M322,14.69l-.88-.27Z"/><path class="cls-1" d="M267,4.3c-.49-.06-.66-.09-1.34-.15l.21,0C266.06,4.2,266.39,4.23,267,4.3Z"/><path class="cls-1" d="M247.11,2.32l.37.05.63,0Z"/><path class="cls-1" d="M117.56,71.6l.92.08C118.17,71.63,121.1,71.65,117.56,71.6Z"/><path class="cls-1" d="M188.29,68.08a4.08,4.08,0,0,1,.59,0l-.67,0C188.16,68.06,188.14,68.07,188.29,68.08Z"/><path class="cls-1" d="M266.08,4.78l-3.15-.36Z"/><path class="cls-1" d="M9,30.82c-.2.14-.37.31-.56.46Z"/><path class="cls-1" d="M253.59,3.47l-1.77-.2-.37,0Z"/><path class="cls-1" d="M118.48,71.68Z"/><path class="cls-1" d="M139.33,71.66c-3,0-1.41.09-2.05.15a9.77,9.77,0,0,1-2.89-.12c-2.25,0-4,.1-5.65.08-.13,0-.45,0-.07,0-2.38.06-7-.06-9.82,0l-.37,0c.45.06.52.11.43.14-1.35,0-2.51,0-3,0,.83,0,.9,0,1.29,0h-1.42c-1.27-.12,1.93,0,1.93-.06-2.76,0-6,0-8.09-.1-.44-.1,5,.09,2.12,0l3.28.1c-2.5-.19,2,0-.31-.15-4.31-.11-4.82-.06-9.12-.21-1,0,.32.09-.65.11-6.11-.12-4.8-.38-9.29-.45a37.16,37.16,0,0,1-4.82-.1l1.1,0c-4.17-.22-2.39,0-6.75-.27.78,0,3.28.15,2.65.1-2.82-.24-2-.06-4.18-.18l-.44-.11c-4.44-.26-9.32-.54-14.23-.93.28,0,1.12,0,0-.09-6.18-.48-13.18-1.28-19.1-2.13l-2.27-.24c-.53-.08-1-.18-.4-.11-2.3-.37-.13,0-1.24-.1-1.31-.19-1.73-.31-.89-.2A156.16,156.16,0,0,1,29.25,63.6l.83.17L26.61,63a30.89,30.89,0,0,1-3.26-.86l.58.15a82.63,82.63,0,0,1-10.51-3.66A31.46,31.46,0,0,1,5.1,53.54c-.21-.16-.65-.54-1.18-1-.23-.28-.5-.58-.77-.9l-.41-.48-.35-.54c-.22-.36-.47-.7-.65-1.05s-.32-.69-.45-1l-.19-.41L1,47.8a2,2,0,0,0-.14-.39,9.49,9.49,0,0,1-.17-3.69A11.72,11.72,0,0,1,1,42a8.54,8.54,0,0,1,.39-1.29c.09-.25.17-.52.29-.81L2.11,39a19,19,0,0,1,2.16-3.62h.09c.55-.67,1.07-1.37,1.69-2l1.07-.91c.44-.41.9-.79,1.35-1.19a11.1,11.1,0,0,1-1.12.88c.54-.46,1.12-1,1.74-1.46s1.25-.94,1.83-1.32c1.16-.76,2-1.31,2.08-1.3,1.89-1.19,3.84-2.31,5.84-3.31-.11.1-1.12.6-1.9,1,3.17-1.7.61-.25,3.53-1.75-.4.17.2-.14.26-.19,1.49-.68,4.94-2.11,7.52-3.11l-.48.24c4.67-1.77,9.94-3.48,15.35-5-1.95.51-1.53.29.06-.15l.65-.1c1-.33-1.66.43.42-.21s1.39-.27.23.06L46.94,15c.15,0-.42.15-.56.22,1-.33,4.28-1,5.73-1.43h.14c5.47-1.27,8-1.79,12.44-2.68.07-.09,1.83-.41,3.16-.72,3.31-.58,7-1.17,11-1.8a12.86,12.86,0,0,0,2.07-.43c.22,0,4.22-.57,2.15-.22,4.8-.71,6.14-.9,12.23-1.74-.67,0-1.41.13-1,.06A20.33,20.33,0,0,1,96.63,6l-.3,0c6.84-1,15.85-1.6,21.31-2.22l-.31,0L123,3.27c2.61-.2-1.56.18.37.06,6.12-.62,9.69-.73,14.73-1.13,3.92-.08,13.88-.82,19.17-.89l-.31,0c1.37-.1,1.66,0,2.66-.07-.14,0-1.48,0-.63,0,11.56-.5,23.89-.61,35.75-.51,4.34,0,2.47-.22,7.94-.05l-1.55.07c8.76,0,17.9.4,26.47.78-.51,0-.53,0-1.36,0,.9.07,2.57.17,4,.24l1.89.09.58,0H233a7.89,7.89,0,0,1,1.12.15c1.81.16,4.56.22,5.52.36.16,0-.51,0-.85,0,1.19.06,5.5.43,4.38.27,3.21.27,6.14.48,8.69.75,1.68,0,5.48.57,6,.5-.24.08,5.6.67,7.63.86-.68,0,1.76.23,1,.19a39,39,0,0,0,4,.41c4.23.64,8.55,1,10.9,1.53,6.84.93,13.14,2,19.23,3.17-.13,0-1.81-.29-3.43-.61a26.37,26.37,0,0,0-3.08-.49c5.8,1,9.15,1.58,14.84,2.9,1.47.36-.85-.14-1.35-.24,5.75,1.24,11,2.7,16.05,4.18l-.35-.09-.72-.2c1,.29,2.29.71,2.19.63l-1-.29c-1.55-.58,3.94,1.1,4.13,1.14-1.7-.45,4.85,1.77,2.17,1a8.39,8.39,0,0,0,1.31.4c.94.37,1.22.51.26.17,3.44,1.34,2.26.77,5.31,2.12,0,0-.64-.25-1-.36.79.32,1.58.62,2.47,1.05s1.92.9,3.14,1.6c-.15-.06.13.11-.61-.29A45,45,0,0,1,346.6,26a17.15,17.15,0,0,1,4.69,5c-.45-.63-.23-.24.12.33A6.46,6.46,0,0,1,352,33a7,7,0,0,1,.21,2.73,4.59,4.59,0,0,0,.1-1.11,8.94,8.94,0,0,1,0,.9l-.16.87a5.47,5.47,0,0,1-.59,1.58,9.84,9.84,0,0,1-2.06,2.51,12.28,12.28,0,0,0,1.23-1.37,17,17,0,0,1-3.43,3.12,23.33,23.33,0,0,0,2.09-1.62c-.94.85-.88.82-.89.86s0,.05-.22.2-.54.44-1.24.9a34.83,34.83,0,0,1-3.28,1.94h0a37.08,37.08,0,0,1-3.9,2c-.45.16.31-.26,0-.15-1.07.62-5.4,2.3-6.84,2.89.48-.2.49-.25.32-.21l-.94.41c-1.1.38-1.27.41-1.1.32-3.32,1.11,1.09-.23-2.86,1l.8-.29c-4,1.28-7.69,2.41-11.4,3.35-1.12.2,3.22-.89,1.95-.63-5.32,1.46-11.07,2.88-16.31,3.93l1-.19c-.7.29-3.91.74-6.56,1.3.65-.13.84-.24.67-.19-3.6.66-7.36,1.4-12.83,2.31l.67-.14c-2.13.31-5.61.86-7.92,1.17-.68.13-2,.31-1.2.25-7.14.8-13.58,1.88-19.94,2.39.76-.08,1.8-.23,1.2-.16l-5.4.59c.43,0,.71,0,1.85-.1-.68.1-2.2.28-3.54.41,2.43-.28,0-.09-1.08,0,.17,0-.18.06-.09.07-2.84.16-.47.17-4.33.45l.2,0c-1.44.14-2.77.29-4.33.42-.65,0,1.53-.17,1.63-.23-2.19.19-4.31.48-6.3.57l3.2-.29c-2.17.09-2.42.13-4,.24h.16l-3.71.23.94,0c-2.73.37-5.58.42-9.27.76,3.59-.34.59-.1.86-.2a17.1,17.1,0,0,1-2,0c-1.74.16-2.92.12-5.38.34a12.08,12.08,0,0,1-1.48,0c-2.27.13.54,0,.35.06-3.5.27-8.24.28-13.27.58-4.35.2-5.15.3-9.18.45-1.37,0,1.11-.12,1.11-.12-2.2,0-3.85.07-5.92.14.42,0,0,0-.65-.06-1.66,0-1.11.12-3.3.12.38,0,.86-.09,1.66-.13l-5.92.18a12.4,12.4,0,0,1,1.94-.12c-2.28,0-5.91.1-6.61.18h1.46c-.83,0-.43-.06.19-.08a18.61,18.61,0,0,1,2.92,0l-1.44,0c1.48.13,5.8-.09,8.71-.15l-1.21.13,3-.14c.63,0,1.07.07-.37.11,2.09,0,1.84-.08,3.64-.06.19,0,.1,0-.08,0l2-.08c-.4,0,.34.07-.91.08,3.65,0,5.89-.24,7.27-.21h-.31c5.07-.21.49-.09,4.29-.32l2.56.09.5-.1a11.67,11.67,0,0,1,1.36,0c2-.14-.33,0,.8-.12,2.52,0,6.93-.37,7.51-.27.9-.11-2.41.07.27-.1.77.09,3.1-.2,5.4-.27-.7.12-2.88.2-.57.13,1.37-.2,4.47-.24,6.41-.4a23.24,23.24,0,0,1,2.54-.23l4.91-.37c-.2,0,6.11-.43,9.13-.68l-.09,0c.58-.15,3.69-.41,6-.66a7.17,7.17,0,0,1-1.72.27l2.13-.2c.5-.08,1.16-.17,2.54-.32l-.52.13,9.33-1.06c.2-.09-2.91.15.93-.34.15,0,.3.06-.71.19.33,0,1.17-.16,1.84-.23l-1.53.25c1.66-.17.86-.16,2.19-.31,0,.05,1-.09.8,0-.34,0-1.16.12-1.67.2,1.5-.17,3.31-.36,3.91-.41-.14,0,0-.06,1.08-.21,2.82-.37,1-.06,2.62-.26.68-.13,2.49-.33,2.53-.42a11.92,11.92,0,0,1,1.3-.12c1.46-.23,6.81-1,5.15-.85l-.37,0,.24,0h0c4.76-.8,9.91-1.54,14.62-2.46v0c2.8-.55,6.24-1.24,8.23-1.71a6.74,6.74,0,0,1,1.62-.27l5.45-1.25a22.12,22.12,0,0,1-2.19.55c2.77-.62,3.41-.73,6.35-1.54a22,22,0,0,0,3.4-.83l-1.94.47,4.05-1.11-.68.29c5.64-1.47,10-3.22,14.19-4.66,1.41-.61-3,1.09-1.71.53,2.51-.92,5.13-1.91,5.89-2.27a31.61,31.61,0,0,0,3.2-1.6c.75-.45,1.54-.88,3.18-1.91-.22.12-.43.23-.3.11s.65-.45,1.8-1.31,1.7-1.34,1.93-1.5.07.06-.57.62a3.91,3.91,0,0,1-.74.58c-.67.55-1.62,1.2-.72.62l.27-.24a20.63,20.63,0,0,0,2.24-1.87c.7-.71,1.13-1.3.88-.93.64-.82.69-1.06.57-.86a10.57,10.57,0,0,1-1,1.31,7.08,7.08,0,0,0,2-4,7.64,7.64,0,0,0-.73-4.5c.2.54.37,1,.15.52a9.61,9.61,0,0,0-1.92-3c-.23-.28-.36-.37-1.62-1.61a11.09,11.09,0,0,0-2.16-1.84c-1.75-1.29-.33-.34.39.15A54.32,54.32,0,0,0,340,21.41c.52.23,1,.51,1.52.77-.9-.49-1.65-.85-2.42-1.22l.85.48-1.16-.58a3.32,3.32,0,0,1-.47-.25c-.95-.41.68.41-1.21-.39-.6-.28-1.53-.68-2.36-1s-1.58-.63-1.78-.75c3.88,1.59-.38-.28,2.89,1.09-.63-.28-1.4-.6-2.33-1-.13-.06.14,0,.4.13-3.7-1.54-1.75-.59-5.65-2,.52.13-.88-.39-1.53-.59,1.59.53.74.32-.73-.12-2.51-.88-2.77-.83-4.09-1.26l1.51.48c-.53-.11-1.79-.52-3.58-1-.14-.08,1.62.44,1,.24-2-.48-4.45-1.35-7.25-2-1.28-.35-.1-.11-1.23-.42-3.14-.68-3.37-.88-6.68-1.55.94.26,1.11.28-1.23-.16q2.72.54,5.43,1.17c-1.17-.23-2.33-.49-3.5-.71l4.44,1c-1.67-.33-1.5-.31-.73-.08-2.21-.62-4.44-1-7-1.56l.11-.14c-3.89-.87-7-1.31-12.05-2.24l1.63.32c-.69-.08-3.15-.53-4.81-.78a9.05,9.05,0,0,0-1.56-.36c.08,0-3.75-.57-4.23-.55l-2.27-.41c-4.14-.58-4.74-.53-8.73-1a10.63,10.63,0,0,1,2.08.13l-1.77-.22a4.26,4.26,0,0,0-.78-.07c-.78-.13-3.7-.4-4.92-.57-.57,0-.76,0-2.25-.18-.16,0,0,0,0,0s-2.35-.23-1.05,0c-4.08-.63-11.48-1.14-15-1.58L238.4,1.7a2.46,2.46,0,0,1,.51,0c-3.66-.3-2.26,0-6.42-.34-2.12-.23,2.22.1.89,0-.56-.21-5-.3-7.82-.53l.68,0C224.1.69,221,.66,217.51.52c0,0,.17,0,0,0L207.23.33c1.05,0,1.53,0,.89-.08-1.51,0,.44.11-2.57.07-1,0-3.16-.13-3.45-.2L205,.17C203.49,0,201.27.1,199.77.08L200,0c-4.36,0-4.42.07-9.11,0l.49,0c-2.56.11-2.15-.06-4.71,0l-.77-.09-9,.22c1.72-.11,5.26-.19,7.46-.26-1.68,0-5.69.07-6.57.14.68,0,1.53-.06,2.2,0-2.06.11-4.76.19-8.1.27.59-.23-8.69.18-11.12.12-5.9.29-11.7.45-18.57.86,2.44,0-2,.12-1.58.26-1.59.11-2.2.14-2.35.14L133.43,2c-1.15,0,1.52-.14,1.37-.16-3.5.23-1.47,0-3.79.15a19.11,19.11,0,0,1-3.21.3l2.81-.14c-4.88.45-4.23.19-9.15.68L123,2.64c-2.52.23-9.32.82-11.78,1.2-.45,0-1,.05.07-.08-6,.58-13.4,1.59-18.08,2.12l.45-.1c-1.12.16-1.94.34-3.35.48.07,0,.44-.1-.08,0s-3,.48-4.45.67l1.26-.23c-5.86.79-9,1.43-13.84,2.29a16,16,0,0,0-2.59.33c-1.44.23-3.16.52-4.3.74l.08,0c-6.77,1.28-11.46,2.4-17.64,4a181.83,181.83,0,0,0-19,5.54c.92-.31-.12.14-1.18.54-1.41.49-3.82,1.57-3.64,1.38l.5-.19a59.14,59.14,0,0,0-6.08,2.58l-.3.3a50,50,0,0,0-9.49,5.58,33.23,33.23,0,0,0-6.39,6.2A23.8,23.8,0,0,0,1.88,38c-.19.39-.36.78-.53,1.16-.09.19-.17.38-.25.56l-.18.56,0-.1A13,13,0,0,0,0,45.54a10.09,10.09,0,0,0,2.16,5.81l-.63-.88A8.2,8.2,0,0,0,2.67,52a14.25,14.25,0,0,0,1,1C4.4,53.6,5,54.2,6.15,55l.59.58a44.88,44.88,0,0,0,6.77,3.7,62.46,62.46,0,0,0,7.19,2.59,6.18,6.18,0,0,1-1-.28l2.33.75,2.88.83a12.15,12.15,0,0,0,2.91.64,21,21,0,0,0,2.91.72c1.62.37,3.58.7,4.93,1h-.43c2.3.34,2.37.35,5.57.87.76.13.66.17-.35,0,2.53.45,2,.28,5,.78L44.33,67c2.6.39,2.4.35,3.84.49,1.65.2,4.95.69,5.33.79s1.8.13,3.34.32c.21,0-.36,0-.64,0,4.37.54,6.52.61,9.53,1a2.52,2.52,0,0,0,.51.09l-6-.6c0,.07,2.81.36.56.23,2.26.18,6.14.44,8.88.7L70,70h-.28l1.74.12,2.27.21c.32.08,3.23.26,4.64.36-.11-.08,1.73,0,0-.12l-1.21-.07-.6,0h.1l-3.49-.25c1.11.06,2.27.1,3.82.25l2,0c1.91.23,5.62.51,6.14.6,4.3.21,10.13.48,12.84.45a14.43,14.43,0,0,1,1.86.13l-1.93,0c2.44.06,7.24.24,7.83.16a19.42,19.42,0,0,0,2.5.14l-.57,0c8.33.36,13.55,0,22.79.32-.64,0-1,0-1.09,0,10.53.16,21.71-.09,32.11-.15,2.95,0,3.27-.09,5.07-.18l.64.06,3.08-.16c4.37-.18,7.58,0,13.11-.32l-.72,0c2-.05,6.3-.25,6-.18a13.35,13.35,0,0,1,1.42-.09l.06,0L195,70.9c3.79-.13-.58.2,4.94-.05,2.05-.11,5.83-.41,5.06-.4s-2.12.08-2.18,0l1.88-.12c.33-.15,1.76-.34-2.84-.19l-3.21.23h-1l2.7-.13c-1.54,0-2.51.11-3.59.19q-.39,0-1.35,0l-3.15.25c-.38,0,1.41-.16-.7-.1-1.48.12,1.42.06-1,.19a26.48,26.48,0,0,0-2.9,0c-.25,0,.13,0,.84-.09-1.6.1-4.24.17-5.07.26-1.6,0-5.41.19-5.26.07-.5.05-2.82.18-4.3.22,2.69-.21-5.52.14-4.81,0-2,.17-7.2.22-10.73.34.2,0,.59,0,.9,0-2,0-2.56,0-3.84,0-.26.11-3.35.17-5,.25-2.44-.07,1.48-.14.71-.22.13.08-4.23.12-3.4.18-1.86,0-1.6,0-2.57-.09-.32.13-1.73,0-3.27.11-2.7,0-.7-.11-3.66-.07C136.7,71.7,139.33,71.66,139.33,71.66ZM69,69.42h0l1.45.11Zm-5.89-.54,2.55.25c.21,0,0,0-.61,0C65.32,69.14,63.93,69,63.06,68.88ZM75.5,70.44a12.84,12.84,0,0,1-1.38-.12l1.64.11H75.5Z"/><path class="cls-1" d="M77.18,70.47l.39,0L77,70.43h-.33Z"/><path class="cls-1" d="M282.76,61l.13,0-.26,0Z"/><polygon class="cls-1" points="4.38 35.38 4.36 35.37 4.07 35.79 4.38 35.38"/><path class="cls-1" d="M250.37,64.72l-.43,0Z"/><path class="cls-1" d="M236.33,65.9l-2,.12Z"/><path class="cls-1" d="M225.52,66.6l-.21,0h0Z"/><path class="cls-1" d="M322.54,15.38l-.4-.12C321.2,15,321.84,15.18,322.54,15.38Z"/><path class="cls-1" d="M343.73,44.47c.47-.26.92-.55,1.4-.84A15,15,0,0,0,343.73,44.47Z"/><path class="cls-1" d="M266.42,4.82h0l-.35,0Z"/><path class="cls-1" d="M347.13,42.34c-.75.51-1.4.91-2,1.29A23.47,23.47,0,0,0,347.13,42.34Z"/><path class="cls-1" d="M178.62,68.16h-.52s0,0-.06,0Z"/><path class="cls-1" d="M178,68.18h0Z"/><path class="cls-1" d="M176.24,68.22l1.22,0C177,68.19,176.51,68.2,176.24,68.22Z"/><path class="cls-1" d="M193,68l.17,0Z"/><path class="cls-1" d="M197.31,67.84c-1,0-2.61,0-4.06.07l-.13,0C193.8,67.88,196.32,67.92,197.31,67.84Z"/><path class="cls-1" d="M215.49,67.47l-3.64.15c.63,0,1.47,0-.18.08C216.27,67.57,210.71,67.68,215.49,67.47Z"/><path class="cls-1" d="M226.8,66.88c-2,.13,0,0-.07.06C228,66.84,228.27,66.81,226.8,66.88Z"/><path class="cls-1" d="M307.91,56.48l-.18.11C309.2,56.25,307.74,56.56,307.91,56.48Z"/><polygon class="cls-1" points="322.99 52.34 321.56 52.7 320.9 52.95 322.99 52.34"/><polygon class="cls-1" points="331.94 49.99 331.32 50.22 333.69 49.35 331.94 49.99"/><path class="cls-1" d="M250.65,2.57l.45.12C252.12,2.77,252.34,2.7,250.65,2.57Z"/><path class="cls-1" d="M191.38.05c-.64,0-2.31-.07-3.34,0Z"/><path class="cls-1" d="M16.37,25.37c.34-.2.69-.4,1.05-.58-.68.33-1.32.72-2,1.09Z"/></svg>