<svg id="레이어_1" data-name="레이어 1" xmlns="http://www.w3.org/2000/svg" viewBox="0 0 86.07 38.69"><defs><style>.cls-1{fill:#fff;}</style></defs><title>line3</title><path class="cls-1" d="M.22.05C-.11,0,.37.17,0,0A.24.24,0,0,1,.22.05Z"/><path class="cls-1" d="M82.6,36.18c-1-.42-2.08-1.4-3.15-1.94-.12-.07.1-.08-.18-.23a32.72,32.72,0,0,1-3.67-2.35h.09c-.21-.16-.55-.23-.79-.38,0,0,.1,0,.06-.05S74.5,31,74.37,31s0-.12-.15-.22H74c-.48-.07-.93-.57-1.51-.8,0,0,.1,0,.06,0-.89-.43-2-1-3-1.49.05,0,.11,0,.07-.09s-.4-.09-.67-.22c-.07-.14-.48-.17-.76-.38h0c-.27,0-.31-.22-.54-.23l-.11-.13c-.16.05-.3-.24-.51-.28v0c-.19-.06-.25-.17-.42-.24v0c-.39-.17-.58-.36-.62-.27-.1-.14.39.17.23,0C65,26,63.69,25.34,62.42,24.69c-.13-.11-.22-.17-.24-.22s-.49-.22-.62-.24c0,0-.07-.08-.13-.12-.22-.15-.3,0-.54-.2.11,0,.16,0,.14,0a5,5,0,0,1-.8-.3s.11,0,.11,0c-.32-.06-.5-.27-.78-.34h.12c-.37-.26-.17.05-.49-.16.09,0,.07,0,.09,0a12.62,12.62,0,0,1-1.21-.47,0,0,0,0,0,0,0c-.36-.15-.71-.35-1.12-.49-.13-.09.1-.1-.28-.26,0,.11-.66-.25-.49,0a9.45,9.45,0,0,0-1-.5c.16,0-.1-.19.17-.08L55.17,21s.2.11.16,0-.54-.2-.66-.27a4.21,4.21,0,0,1-1-.22c.21.05-.05-.16.08-.12l-.64-.06c-.14-.06,0-.1-.2-.16,0,0-.09,0-.16,0s-.57-.23-.58-.35.23.08.1,0-.28-.08-.52-.19v0c-.16-.09-.5-.17-.35,0s0-.08.14,0a2.68,2.68,0,0,1-.69-.21c.1,0,.1,0,.14,0a7.32,7.32,0,0,1-1.12-.32s.18,0,.22,0c-.44-.27-1-.34-1.38-.61.07,0,0,.09,0,.07-.23-.1-.19-.17-.35-.21,0-.05-.19-.07-.35-.12s0,0,.1,0a9.49,9.49,0,0,1-1.59-.64,1.27,1.27,0,0,1-.46-.09l.08,0c-.09-.09-.39-.17-.39-.23-.27,0,1,.35.62.26-.07-.09-.51-.1-.4-.15a3.14,3.14,0,0,1-.68-.28c.06,0,.23,0,0-.08s-.1,0-.38-.11l-.17-.05c0,.06-.29-.13-.2,0,0-.07-.49-.17-.41-.25l.08-.07a1.38,1.38,0,0,0-.4,0s0,0,0,0-.34-.15-.55-.13a5.92,5.92,0,0,1-.86-.45,2.87,2.87,0,0,1-.72-.23s.13,0,.15,0a.83.83,0,0,0-.36-.13,5.07,5.07,0,0,0-.46-.33c-.25-.05-.19.05-.23.08-.16-.21-.68-.19-.89-.41.08,0,.35.08.18,0s-.46-.08-.77-.28l0,.13c-.13-.12-.52-.14-.44-.23-.13,0-.39-.2-.39-.08-.51-.32-1.36-.5-1.63-.81-.09,0-.28-.11-.26,0s.2,0,.23.09-.1,0-.11,0-.29-.15-.1-.16c-.36-.22-.46,0-.93-.22,0,0,0-.07-.14-.12l-.3,0c-.31-.14-.14-.17-.12-.24a1.66,1.66,0,0,0-.48-.12l-.17-.16c.12.12-.16,0-.24,0h.08a1,1,0,0,0-.32-.13s.2.15.3.21c-.1,0-.23-.07-.36-.08.07,0-.25-.15-.38-.21s-.2,0-.25,0-.24-.11-.11-.11.11.08.21.09c-.09-.07-.06-.13-.28-.16s0,.15-.3,0a1,1,0,0,0,.18,0l-.27-.15,0,.06s0,0,0,0-.44-.15-.53-.1-.28-.16-.42-.22h0a1.39,1.39,0,0,0-.53-.18h0a1.76,1.76,0,0,0-.44-.12c-.21-.13,0-.26-.27-.28s-.41,0-.33.05A11.22,11.22,0,0,1,29,10.56c-.07,0,0,0-.17,0a11,11,0,0,1-1.77-.73c.18.05,0-.05,0-.09-.17,0-.15-.13-.24-.05s0,.08.13.17a5.17,5.17,0,0,1-1.12-.45c.09.07,0,.06-.08,0s-.21-.19-.42-.24l-.05,0-.12-.11c-.08,0-.13.08-.31-.05a.12.12,0,0,0,0-.08,2.31,2.31,0,0,1-.77-.2l-.16-.15c-.1,0-.29,0-.12.05a3.37,3.37,0,0,1-.73-.4,11.65,11.65,0,0,1-2.52-.73l0,0c-.2-.12-.14,0-.27,0,.08,0-.14-.15.05-.14-.29-.15-.42-.07-.62-.12s.17,0,.11.08-.41-.2-.49-.13,0-.1.07-.12l-.2,0c-.19-.17.58,0,.39-.18l-.18,0c-.13-.15.49.06.07-.12-.2,0-.41,0-.25.13-.4-.12-.25.13-.67,0-.09-.08.34.11.29,0s-.41-.1-.58-.18c.18.1,0,.12-.14.09s.16,0-.14-.14c-.06,0-.35,0-.12.09-.15.06-.31-.14-.5-.12s.37-.07.05-.22c0,.09-.44,0-.3.13-.13-.07-.12-.13,0-.14-.17-.11-.5,0-.51-.19l-.09,0c-.05,0-.12-.09-.2-.17s-.57-.08-.51-.19-.43-.14-.31,0,.28,0,.38.18c-.14-.14-.34-.1-.49-.12v0c-.09,0-.27-.09-.34-.06s.05,0,0-.07l-.1,0c-.34-.08,0-.14-.36-.23l.25,0a1.22,1.22,0,0,0-.3-.14l-.28.11c-.19,0-.05-.1-.25-.1h.25s-.12-.16-.36-.24-.42,0-.19.09c-.12,0-.28-.13-.17-.15-.27-.07,0,.08-.23,0-.08-.07-.36-.23-.52-.35l.28,0L13,4.71c.24,0-.09-.1.06-.14a1.17,1.17,0,0,0-.37-.08c.28.25-.42.06-.37.22-.46-.12-.18-.4-.71-.36.07.06-.18.08.11.14-.27-.11-.23.06-.54-.1.26,0-.22-.22.16-.17,0,0,.18.09.24.1-.1-.09.07-.12-.22-.21s-.41-.13-.4-.05.27.08.13.12c-.35-.1-.37-.22-.56-.15.22.07.25.16.23.21l-.26-.06.07,0c-.4-.17-.15,0-.54-.1L9.83,3.9c.12,0,.56.23.53.07a3.66,3.66,0,0,1-.59-.17l.19,0c-.09,0-.12-.24-.52-.26-.2,0-.07,0-.09.08-.41-.12-.55-.11-.82-.19.09-.08-.46-.17-.14-.17a1.91,1.91,0,0,0,.89.25c-.11-.16.31.13.44,0-.33-.11-.27-.22-.3-.31a.92.92,0,0,0-.25,0c-.06.06.06.1,0,.17a2.93,2.93,0,0,0-1-.21c-.11-.08,0-.14.1-.09C7.91,3,7.45,2.8,7,2.64c.23.2-.47-.13-.32,0s.38.24.24.25,0,0,0-.09-.24-.19-.45-.15c.41.1.12-.11.23-.18-.31,0,0-.06-.25-.15a9.94,9.94,0,0,1-1-.21A6.89,6.89,0,0,0,4.08,1.7c-.17-.11,0-.17-.21-.25s.14.17-.2,0h0c-.11,0-.62-.28-.77-.17l.14-.07a.42.42,0,0,0-.19,0s-.06-.1.06-.09a2.33,2.33,0,0,0-.71-.2L2.38,1C2,.92,1.7.77,1.3.67l0-.06-.25,0C1.16.53,1,.43.82.44l.66,0c.15.09-.21,0-.13.11a.88.88,0,0,0,.53.14.71.71,0,0,0-.27,0c0-.11.19,0,.32-.06-.08,0-.17-.08-.2-.06a1.71,1.71,0,0,1,.55.12c-.18,0,.07.08,0,.08s.28,0,.57.1.57.12.91.25a1.59,1.59,0,0,1-.58,0c.2.11.24.07.44.18a.94.94,0,0,1,.52,0v.07c.27,0,.3,0,.61.08L6.28,2V2a6.31,6.31,0,0,1,1.13.27,13.88,13.88,0,0,1,1.43.52c1,.27,1.8.51,2.77.86l-.19,0c.2,0,.1.09.27.13-.17-.13.27,0,.41,0a5.45,5.45,0,0,0,1.41.4v.06a5.39,5.39,0,0,1,1.34.47.62.62,0,0,0,.27.18,3.93,3.93,0,0,1,.84.13,9.63,9.63,0,0,1,1,.42c1.11.24,2.17.7,3.29,1l.06.1c1.12.24,2.38.85,3.32,1.1l-.13.09c.27.13.66.2.61.09.28.14.74.21.89.37a2.65,2.65,0,0,0,.62.15A8.59,8.59,0,0,0,27,8.91l-.13-.05c-.07,0-.09,0,0,.1s.74.32.59.1c.56.3,1.39.46,1.92.78,0-.06.11,0,.18,0a12.67,12.67,0,0,0,1.47.56c.07,0-.16,0,.05.1s0-.05.18,0c.86.25,1.65.73,2.41,1,1.37.45,2.75,1,4,1.53l0,0c.47.06,1,.52,1.36.5.09.07.38.17.29.19.37.07.92.47,1.45.58l-.13,0c.47.27,1,.36,1.45.64-.06,0-.16-.05-.19,0,.18.14.53.09.59.26s.11,0,0-.05c1.13.53,2.39.93,3.59,1.43.81.45,0,.24.67.44,0,.05.06,0,.06,0,.27.07.34.32.55.33,0-.11.13,0,.16,0a3.42,3.42,0,0,0,1,.51l0,0c.53.09,1.06.4,1.52.44,2.67,1.11,5.19,2.26,7.77,3.41s5,2.41,7.46,3.72a4.8,4.8,0,0,0,1.25.74s-.08,0,0,0,.45.24.56.19c.91.51,1.77.94,2.72,1.46-.16-.08-.27-.05-.09.05l.22,0v0c.13.05.29.08.18,0,2.45,1.16,4.6,2.78,6.9,4.09.52.36,1.32.77,1.89,1.15a51.89,51.89,0,0,0,4.84,3.41A2,2,0,0,1,82.6,36.18Z"/><path class="cls-1" d="M.61.16C.66.22.88.32.68.33.67.28.57.19.61.16Z"/><path class="cls-1" d="M6.43,2.55s.08.05.1.06-.16,0-.21,0S6.39,2.56,6.43,2.55Z"/><path class="cls-1" d="M8,3.08A1.71,1.71,0,0,1,7.38,3Z"/><path class="cls-1" d="M9.31,3.72c.11.08.07.08-.1,0C9.21,3.72,9.27,3.73,9.31,3.72Z"/><path class="cls-1" d="M9.44,3.66a.49.49,0,0,1,.22.13S9.38,3.72,9.44,3.66Z"/><path class="cls-1" d="M12.47,4.82c.07,0,.24,0,.3.11S12.39,4.86,12.47,4.82Z"/><path class="cls-1" d="M13.92,5.25l.11,0c.08,0,0,0-.09,0Z"/><polygon class="cls-1" points="39.66 14.73 39.5 14.69 39.54 14.65 39.66 14.73"/><path class="cls-1" d="M50.72,19.43c.16,0,.08.09.11.1C50.69,19.48,50.9,19.51,50.72,19.43Z"/><polygon class="cls-1" points="56.7 21.94 56.65 21.92 56.71 21.85 56.7 21.94"/><path class="cls-1" d="M68.75,38.47s0,.09,0,.07v-.1Z"/><path class="cls-1" d="M69,38.62a.21.21,0,0,0,0-.23c0,.1,0,.06-.08.18s-.07,0-.07-.06-.06,0-.08.05a.11.11,0,0,0,.19,0S69,38.6,69,38.62Z"/><path class="cls-1" d="M72.89,38.32h0Z"/><path class="cls-1" d="M75.28,38.14s0,0,0,0S75.29,38.15,75.28,38.14Z"/><path class="cls-1" d="M75.7,38.22h0Z"/><path class="cls-1" d="M72.89,38.32l.07,0S72.93,38.32,72.89,38.32Z"/><path class="cls-1" d="M69.53,38.31l0,0h0Z"/><path class="cls-1" d="M71.85,38.51h0v0Z"/><path class="cls-1" d="M71.05,38.62s0-.08,0-.12a.09.09,0,0,1,0,.06A.42.42,0,0,1,71.05,38.62Z"/><path class="cls-1" d="M69.76,38.63h0Z"/><path class="cls-1" d="M72.43,38.47v0S72.44,38.47,72.43,38.47Z"/><path class="cls-1" d="M81.05,29h0Z"/><polygon class="cls-1" points="81.12 28 81.13 28.01 81.18 27.99 81.12 28"/><path class="cls-1" d="M76.45,38.26Z"/><path class="cls-1" d="M83.3,37.84c-.08-.08.12-.1,0-.18S83.2,37.79,83.3,37.84Z"/><path class="cls-1" d="M69.55,38.32h0Z"/><path class="cls-1" d="M83.3,37.66h0Z"/><path class="cls-1" d="M78.17,38.09s0,0,0,0S78.15,38.07,78.17,38.09Z"/><path class="cls-1" d="M76.88,38.06h0Z"/><path class="cls-1" d="M78.82,37.93h0S78.84,37.94,78.82,37.93Z"/><polygon class="cls-1" points="79.52 37.89 79.5 37.87 79.48 37.88 79.52 37.89"/><path class="cls-1" d="M81.86,31l.06-.06S81.81,30.88,81.86,31Z"/><path class="cls-1" d="M69.54,38.36s0,0,0,0h0A0,0,0,0,0,69.54,38.36Z"/><path class="cls-1" d="M78.81,37.26h0Z"/><path class="cls-1" d="M84,35.51h0Z"/><path class="cls-1" d="M79.25,37.23a.13.13,0,0,0,.07.06v0Z"/><path class="cls-1" d="M81.92,30.93Z"/><path class="cls-1" d="M81.46,30.33c0,.1.12,0,.18,0s0,.09-.09.15.18.08.2.14,0,0,0,0,.1.22.24.27,0,0,0,0l.13-.07s.1.05,0,.1,0,0-.06,0l0,0c-.08.08-.06,0-.13,0s.19.15.19.23-.1-.15-.14,0V31c-.12.14,0-.07-.15.07,0,.15.12.13.15.29.07,0,.07,0,.14,0,.18.16-.17.26,0,.35s.2,0,.18.1h-.12c.05.14.19,0,.18.18,0,0-.08-.08-.09-.06s.09,0,.12.11l-.08.05c.07.14.21.27.3.42,0,0-.07,0-.08,0a1.4,1.4,0,0,1,.22.64l.11,0s0,.05,0,0,.05,0,.1,0a0,0,0,0,1-.06.06c.13.1.32.3.31.48h0c0,.12.22,0,.2.17h0c.07.25.28.46.25.7.13,0,.07.25.23.18,0,.17,0,.15,0,.36,0,0,.14,0,.18.07l-.08,0,.13,0-.07.09,0,0a.07.07,0,0,1,0-.08.23.23,0,0,1,0,.27l.18.17s-.06,0-.1,0c.14.06-.07.07.06.13s0,0,.07,0a.32.32,0,0,0,.11.26l-.07,0c.08.16.21.31.31.48,0-.08.1-.12.13-.07l-.07.07c.07,0,0-.08.11,0s-.08.1-.12.08l.07.06s-.05,0-.08,0,0,.21.09.13h0s.05,0,.07,0a.78.78,0,0,1,.21.09s0,0,0,0-.1,0-.11,0,.08.07.13.12c-.11-.07-.17-.06-.2-.12s-.06,0-.13.08,0,0,.06.07-.08,0-.09-.07h0c0,.11-.44-.22-.62-.06h0l-.19.08c-.1,0,0,0,0-.1-.21.13-.34,0-.51.08-.15-.22-.49,0-.68-.11v0c0,.06,0,0-.09,0s0,0,0,.08a4.84,4.84,0,0,1-1.25-.08c-.15,0-.08.28-.27.16l0-.1c-.3.13-.63,0-.92.14,0,0,0-.05,0-.05s-.23,0-.23.06,0-.05,0-.08-.15.1-.19,0l0,0s-.19,0-.15.09c-.11,0-.21,0-.3,0s-.2,0-.21.1c0-.14-.2-.1-.27,0s-.06,0,0-.1-.15,0-.14.11c-.16-.15-.29.15-.39-.06a3.62,3.62,0,0,1-.67.2c0-.13.24,0,.22-.17-.2.07-.31.2-.51.18s0-.06,0-.09c-.2.07-.4,0-.58.11l0,0s-.09,0-.08,0l0,0c.06.08-.13.19-.13.24,0-.18-.19,0-.11-.26a.09.09,0,0,0,0,.09s0,0,0-.08c-.12,0-.07.1-.19.11s0-.05,0-.08a.24.24,0,0,1-.21.11s0,0,0,0c-.17,0-.27.18-.46.14,0-.13-.07,0-.09-.15l-.1,0,0,.05c-.09,0-.16.09-.24.06l.06,0-.16,0,.1,0c-.09.06,0,.14-.1.12s-.09,0-.14-.06h0s-.08.08-.15.06,0-.13,0-.15-.2,0-.24.15a.14.14,0,0,0,0-.09l0,.08a.07.07,0,0,1,0-.08c-.12,0,.06.13-.1.09,0,0,0,0,0,0-.15,0-.27.07-.41,0s.11,0,.06-.12-.39.17-.57.16h0c0,.16-.14-.06-.23,0s0-.09,0-.07a1,1,0,0,0-.45.13l0,0a1.31,1.31,0,0,0-.28,0s-.07,0,0,.1c-.28-.21-.47.17-.71,0,0,0,.06,0,0,0l-.18.06c0,.07,0,0,.07.09a.19.19,0,0,1-.12.09c.08-.06,0-.11,0-.15s0,0,0,.07,0,.14-.14.07v0s-.09.08-.14.08,0,0,0-.11-.13.17-.21.1a.6.6,0,0,1,.11-.06c-.09-.09-.09-.06-.15-.07h0l-.14,0,0,0c-.07.22-.19.07-.3.22.1-.15,0-.08,0-.17s-.09,0-.08-.07-.11,0-.18.07-.07,0-.06-.07,0,.05,0,.09-.3-.09-.46.07-.16.18-.29.24,0-.11,0-.11a.18.18,0,0,0-.2,0s0,0,0-.08,0,.11-.11.08a.65.65,0,0,1,0-.13c-.06,0-.12.1-.19.14s0-.08,0-.12-.2.07-.21.16l.06,0s0-.07,0-.09.1,0,.11,0l0,0c.08.17.2-.05.3-.06l0,.13.08-.11s0,.09,0,.12.06-.05.13,0v0l.06-.05s0,.09,0,.08c.14.05.19-.12.25,0h0c.17-.06,0-.09.13-.21l.11.21v-.09s0,0,0,0,0,0,0-.1.23-.07.27.07c0-.07-.09,0,0-.1,0,.15.1,0,.19,0s-.1.05,0,.11c0-.14.16,0,.22,0s.15-.06.25-.11.22,0,.33.06v0c0-.11.12-.1.2-.14s0,.1,0,.13h.07a.14.14,0,0,1,.08-.07v.08c.09,0,.18-.12.32-.08,0-.07-.13-.2,0-.26s0,.11,0,.13,0,0,.06,0l0,.08c.06,0,0-.06.07-.06s0,0,0,.08,0,0,0,0a.16.16,0,0,1,.14.08s0-.08,0-.1,0,.07.1.1.09,0,.08-.1,0,0,0,.06.24,0,.17-.12h0c.16-.11.35,0,.51,0v0c.09,0,.21,0,.28-.12a.08.08,0,0,1,.06.09c.08,0,.08-.07.2,0-.07.06,0,0-.08,0,.1,0,.13.07.23,0,0,.08.08.09.13.07l-.08-.05a.38.38,0,0,1,.15,0l0,.1c.21.1.35-.24.52-.05,0-.08-.12,0-.08-.13s.21.14.24.14.1-.16.24-.13a.11.11,0,0,1,0-.17c.1,0,.13.14.07.17s0,0,0,0-.07,0,0,.06v0c.05,0,.18,0,.15.08s0-.06,0-.08c.13,0,.19,0,.31,0s0-.06,0-.06c.19,0,.08-.07.2-.1s0,.13.1.08,0,.09,0,.12.21,0,.27,0l0,0a.15.15,0,0,1,.09,0l0-.07s.06,0,.07,0,0-.12,0-.19.13,0,.16,0c-.15,0,0,.1-.1.12a.14.14,0,0,1,.09,0l0,0c.15.08.06-.11.2-.12,0,.06,0,.1.07.09s0-.09,0-.13.1,0,.15,0l-.06,0s.06,0,.13-.07-.06,0,0,.05.17.08.27,0,0,.1,0,.13.13.06.24,0,0,0,0-.12l-.19.06.12-.11c-.06,0-.12.05-.15,0s0,0,0-.1c.09.1.16-.07.25,0v.18c.15.07.24-.11.43-.07l-.06,0c0-.07.11,0,.16-.05s0,.08.07.11.13,0,.14-.12l.08.07c.15,0,.16-.18.3-.17,0,.07,0,.11-.06.16s.08,0,.08,0,.13-.09.17,0,0-.09.08-.09v0s.08,0,0-.1c.15.17.4,0,.53.11a2,2,0,0,1,.32-.06s0,0,0,0c.13.05.07-.17.22-.12s-.08.06,0,.09c0,.2.18,0,.28.08h0c.07.06.17-.08.3-.08s0,0,0,0a.64.64,0,0,1,.35-.17c0,.08-.05,0,0,.12s0-.13.09-.15.11.07.12.15H81c.06.11.13,0,.18,0v0c.15,0,.15-.14.31-.13l0,0c.09-.12.08.06.17,0l0,.12a2.09,2.09,0,0,1,.3-.15c0,.09-.17.14-.25.2s.2,0,.23-.08-.05,0-.08,0a.32.32,0,0,1,.28-.15c0,.23.3,0,.39.22.21-.09.41,0,.65,0-.09-.17.07,0,0-.19h.08l.17.11c0,.05,0,0,0,.08s0,.08.13.12,0-.09.11-.07l-.1-.08c.17-.1.16.15.33,0l-.06.06c.09,0,.33,0,.41-.16,0,0,0,.08,0,.09.17,0,.55-.17.83-.08v0c.06,0,0-.08.16,0s0,0,0,0a.24.24,0,0,1,.2-.06l0,.05c.39,0,.41-.09.45-.19.23.13.15-.09.11-.21l0,0a5,5,0,0,0-.73-.9c.06-.19-.18-.43-.22-.66,0,0-.09.05-.12,0s-.15-.08,0-.13h0c.08-.09,0-.16,0-.24l-.14.07c.1-.3-.35-.46-.22-.66-.06,0-.09-.09-.15-.12l.07,0a1.06,1.06,0,0,0-.17-.36h.07c0-.09-.28,0-.32-.08l.1-.08c-.09-.16-.07-.36-.25-.47,0,0,0,0,.07,0s-.06-.33-.21-.22c.1-.06-.07-.17-.16-.24l.09,0c-.14,0-.16,0-.24-.1s0,0,0,0-.1,0-.11-.15l.07,0c0-.09-.06-.07-.14-.09a.15.15,0,0,1,0-.21s-.13,0-.13-.07a0,0,0,0,1,.06,0c0-.16-.18-.17-.15-.3l0,0a1.24,1.24,0,0,1,.08.19c.07,0,0-.12.17-.1-.08,0-.26-.11-.26-.22l0,0h0s0,0,0,0a.17.17,0,0,0,0-.08s0-.12,0-.17-.09,0-.13.06l0,0a0,0,0,0,0,0,0h0l.05.11c-.05,0-.1,0-.08-.11h-.15c.08-.11.08-.25.14-.3-.1-.11-.17-.3-.35-.33s0-.06,0-.08,0,0,.06,0-.12-.22-.23-.2.12,0,0-.11h0c0-.33-.44-.32-.35-.7l0,.05c-.05-.38-.37-.67-.35-1.07,0-.1-.08-.09-.15-.13l.08,0-.14-.06c-.12-.12.12-.33-.08-.46l-.05,0c0-.06-.11-.19,0-.2s-.07,0,0,0l0,0-.14-.13c0-.13.19,0,.13-.23s-.19-.14-.22-.11a.09.09,0,0,1,0,.1l-.05,0c-.13,0-.29,0-.32.21l.11.08,0,.06,0-.09c0,.07,0,.09.07.11a.13.13,0,0,0-.06.07l.17.06s-.12,0-.13.07.1-.09.17,0-.1.07,0,.11-.06,0-.08,0,.06.14.14.14.09.17,0,.21a.39.39,0,0,1,.16.1c-.18,0,0,.19-.11.22.15,0,.15.22.26.31s0,0,0,0,0,.1,0,.15.18.06.27.09c-.08.12-.15,0-.24.07.08,0,.14.1.2,0s0,.07-.09.13c.14,0,0,.05.15.07s-.12.07,0,.15S81.46,30.33,81.46,30.33Zm1.21,2.17h0l0,0Zm.09.19,0-.08s0,0,.06,0S82.76,32.65,82.76,32.69Zm.34-.64s0,0,0,.05l0,0h0Z"/><path class="cls-1" d="M83,32h0v0h0Z"/><path class="cls-1" d="M72.86,38.31h0Z"/><polygon class="cls-1" points="83.9 35.33 83.91 35.32 83.89 35.31 83.9 35.33"/><path class="cls-1" d="M71.7,38.14l0,0S71.69,38.13,71.7,38.14Z"/><path class="cls-1" d="M71.21,38.18l-.07,0Z"/><path class="cls-1" d="M70.83,38.18v0h0Z"/><path class="cls-1" d="M76.81,37.5h0S76.83,37.48,76.81,37.5Z"/><path class="cls-1" d="M75,37.84l0,0S75,37.79,75,37.84Z"/><polygon class="cls-1" points="78.8 37.26 78.8 37.26 78.81 37.26 78.8 37.26"/><path class="cls-1" d="M75.18,37.79a.09.09,0,0,0-.09,0S75.15,37.81,75.18,37.79Z"/><path class="cls-1" d="M69.2,38.35h0Z"/><path class="cls-1" d="M69.18,38.36l0,0Z"/><path class="cls-1" d="M69.12,38.4l0,0S69.13,38.38,69.12,38.4Z"/><path class="cls-1" d="M69.7,38.32v0Z"/><path class="cls-1" d="M69.85,38.3s-.1-.06-.15,0v0S69.82,38.35,69.85,38.3Z"/><path class="cls-1" d="M70.53,38.59H70.4s.06.07,0,.09C70.57,38.74,70.36,38.6,70.53,38.59Z"/><path class="cls-1" d="M70.92,38.59c-.06,0,0,0,0,.07S71,38.61,70.92,38.59Z"/><path class="cls-1" d="M73.76,38.28v.08S73.75,38.33,73.76,38.28Z"/><polygon class="cls-1" points="74.26 37.84 74.2 37.79 74.19 37.87 74.26 37.84"/><polygon class="cls-1" points="74.63 38.35 74.61 38.36 74.69 38.33 74.63 38.35"/><path class="cls-1" d="M79.4,38l0-.1S79.34,38,79.4,38Z"/><path class="cls-1" d="M81.46,37.77s.08.07.11,0S81.48,37.76,81.46,37.77Z"/><polygon class="cls-1" points="84.82 35.45 84.87 35.47 84.81 35.41 84.82 35.45"/></svg>