<svg id="레이어_1" data-name="레이어 1" xmlns="http://www.w3.org/2000/svg" viewBox="0 0 143.36 61.57"><defs><style>.cls-1{fill:#fff;}</style></defs><title>line2</title><path class="cls-1" d="M1.08,50.89c-1.65-.69.83.49-1.08-.44C.23,50.53.54,50.66,1.08,50.89Z"/><path class="cls-1" d="M128.85,60.77c-1.44-.21-3-.49-4.62-.75l-5-.75c-1.7-.25-3.43-.53-5.12-.76s-3.37-.38-5-.52c-.74-.08.21-.11-1.47-.27-3.09-.32-7.07-.59-11.21-1-2.07-.22-4.19-.33-6.26-.49l-6-.43.46,0c-1.43-.08-3.2,0-4.72-.1,0,0,.49,0,.14-.06s-2.76-.06-3.4,0-.54-.11-1.32-.16l-.88.07c-2.43.17-5.89-.13-9.2,0,.16,0,.49,0,.23,0-5.32.12-12,.17-17.9.47.24,0,.46-.1.11-.12s-2.13.19-3.71.28c-.72,0-2.72.22-4.59.27l.16,0c-1.38.16-2,.06-3.16.25h-.88c-.6.16-2,.06-3.13.22l0,0c-1.07.11-1.63.1-2.62.2h-.1a32.88,32.88,0,0,0-3.61.38c-.83,0,2.25-.24,1-.23l-2.88.31c-.44,0-1.13.35-1.15-.37l-.47-1.38a26.53,26.53,0,0,1-.87-2.79C21.46,52,21.19,51,21,50.09c-.86-3.82-1.56-7.67-2.08-11.51-.08-.87-.16-1.43-.14-1.63-.11-.76-.37-2.88-.5-3.58a8.1,8.1,0,0,0,0-.9c-.11-1.41-.26-1.52-.38-3.06.09.6.14.81.16.6-.22-1.3-.37-3.06-.52-4.61,0,.24.08.61.11.55-.24-1.69-.25-3.1-.4-4.58l.09.55c-.1-2.4-.16-.7-.27-2.78.05.5.06.33.09.41-.22-1.92-.37-5.06-.49-7,0,.11,0,.08,0,.08L16.32,6a7.81,7.81,0,0,0,.07-2,9.37,9.37,0,0,1-.12-1.75V2.15h.85c.17,0,.19,0-.17-.07,1.93.06,4.93.14,6.2.09-.86,0,.93.14-.65.15l1.19.07c-.17,0-1.23,0-.85,0,.8,0,3.11,0,3.82,0,1.47-.07,2.82-.21,5.2-.23-1.12,0,.64.12-.13.14l3.32-.23c.8,0,.18.08,1.32,0A4.34,4.34,0,0,1,37.16,2c.3,0,3.29-.06,3.64.05s-1.29,0-.41.06l3-.07,0,0c1,0,2.85-.09,1.8-.13-.67,0,.26.06-.74,0,.68-.07,2.38-.11,3.84-.13a2,2,0,0,0-.64.09c2-.12,4.05-.17,6.25-.24,0-.05-.82.11-1.14.09,2.81,0,5.81-.19,8.15-.12-.38,0-.21-.07-.18-.06,1.35,0,1.29.06,2.18,0,.08,0,1.1,0,2-.06.47,0,.24,0-.55,0,1.26-.06,6.33-.22,9.26-.2-.06,0,1.8-.14,2.47-.15l-.26.08c.61,0,2.25-.05,2.37,0,1.43-.1-5.54.17-3.59.08.5,0,2.7-.16,2.28-.06,1.36,0,2.66-.13,4-.09-.38,0-1.1.12,0,.09,1.92,0,.55,0,2.11-.09l1-.05c.07-.07,1.72,0,1-.08.24.05,2.8-.09,2.6,0l-.26.09c.83,0,1.35-.12,2-.17a1.4,1.4,0,0,1,.28,0c.13-.13,2,0,3-.15C94.29,1,97,.91,97.79,1c1.34-.07,2.56-.14,4.09-.14-.3,0-.72,0-.81.06,1,0,1.2,0,2.07-.06-.19,0,1.92,0,3,.07,1.33-.07.87-.13,1-.18,1.22.11,3.75-.16,5.28-.08-.46,0-1.94.11-.84.12S114,.62,116,.64l-.49-.1c.88,0,2.89-.12,2.69,0a14.78,14.78,0,0,0,2.1-.12c3.22,0,7.83-.22,9.81-.08a7.66,7.66,0,0,0,1.38-.08c-.77,0-1.07.07-1.36,0a1.49,1.49,0,0,0,.55-.06c1,0,1.79,0,.85.1,2.23,0,2.29-.23,5.13-.25-.13.05.09.06.92,0L139.15,0c1.83,0,1,.08,1.09.15,1,0,2,0,2.88-.13.42-.11.18.31.13.56L143,1.3c.06-.19.1-.31.09-.24s0,.21-.07.39c-.07.35-.18.87-.23,1.09l.08-.45a11.26,11.26,0,0,0-.29,1.85c.08-.12.19-1.27.37-1.87-.09.48-.18,1.26-.23,1.91a12.22,12.22,0,0,0-.35,2.34,10.27,10.27,0,0,0,0,1.27s-.14,1.45-.13.75c0-.3.1-.69.11-1.19a10,10,0,0,0-.2,1.72c0,.92.15-.22,0,1.52,0-.46,0-.55,0-.9L142,11.11l.06.08c0,.22,0,.06,0,.16,0,.49-.14,2.49-.07,2.87,0,.82-.12,1.73-.16,2.52v-.15a29.18,29.18,0,0,0-.08,3.05v-.05c0,.53-.05,1.77,0,2.43-.08,1.32-.26.44-.21,1.91s.08,2.11.14,1.57c-.11,2.42,0,5.18-.14,7.42a6,6,0,0,1,.06.85c-.05,3.56.06,7.51-.05,10.34,0-1-.07-.07-.11,0a10.35,10.35,0,0,0,0,1.32c.06-.08.09,0,.11-1,0,2.12.08,5.35,0,6.53,0-.59,0-.14.07.33a10.67,10.67,0,0,0,0,2.6l.06.16,0,.77c0,.23,0,.36.07.57a13.61,13.61,0,0,1,0,1.68,1.7,1.7,0,0,0-.05.46v.19c0,.06,0,0,0,0l-.07,0-.3-.22-.66-.48-.35-.26-.2-.13-.12-.06-.48-.24a7.22,7.22,0,0,0-1-.45l-.95-.4-1-.41c-.53-.18-1.47-.35-.52-.08-2.15-.64-3.58-.91-4.27-1.12-3.85-.55-9.47-1.16-14-1.47l.14,0c-1.21-.12-.64,0-1.48,0,.39,0-.92-.15,0-.14-1.73-.17-2.24-.05-3.38-.1-.17,0,.92,0,.69.07s-2.4-.17-2.68-.08c-.43-.06-.09-.11.15-.13h-1.07c-1.3-.16,3-.06,1.61-.24l-1,0c-.93-.13,2.6,0,.14-.13-1.07,0-2,.09-1,.17-2.23-.07-1,.16-3.43.08-.66-.07,1.91,0,1.46,0-1.13-.1-2.27,0-3.27-.08,1.11.06.17.12-.55.13-1.22-.07.79-.07-.94-.11-.28,0-1.87,0-.5.11-.62.1-1.79-.07-2.73,0-.56-.09,1.78-.17-.12-.23.3.08-2.34.08-1.34.2-.74,0-.82-.09-.28-.13a25.64,25.64,0,0,1-2.92,0l-.37.08-1.35-.09a20.54,20.54,0,0,1-2.93,0c-.3,0-2.43,0-1.61.11a18.85,18.85,0,0,1,2.27,0,18,18,0,0,0-2.69.07l-.12,0c-.46,0-1.51,0-1.79.08.35,0,.16-.06-.2-.07l-.48.08c-1.86.07-.44-.11-2.25-.06l1.38-.08c-.3,0-.92,0-1.78,0L82,51.87c-1,.05-.45-.06-1.45,0l1.31-.11a11.9,11.9,0,0,0-2.25,0c-.87,0-2.22.17-.84.17-.69,0-1.64,0-1.1,0-1.55.07.2.06-1.13.14l-3.28-.06,1.39-.15-.92,0c1.19-.13-.61,0,.06-.16-.63,0-1.4.07-2,.11,1.86.08-2.06.28-1.52.4-2.53.14-1.59-.27-4.23.07.44,0-.8.17.79.06-1.57.06-1.06.18-2.92.22,1.37-.12-1.48-.07.5-.24a9.73,9.73,0,0,0,1.41-.05,4.08,4.08,0,0,0-1.48-.06,11.51,11.51,0,0,0-2.13.2c0,.07,1.5-.09.87,0A23,23,0,0,0,60,52.6c1.23-.08,1.55,0,1.53,0l-1.44.11.28-.07c-2.31.1-.68.13-2.91.25l-1.06,0c.53-.12,3.26-.16,2.85-.28-1.45.09-1.93.18-3.3.23l1-.09a18.51,18.51,0,0,0-3.11.12c-1.07.12-.28.07-.31.13-2.32.17-3,.28-4.52.4.31-.12-2.65.2-1,0,.77,0,4.14-.26,5-.42-.85-.06,1.84-.1,2.33-.26-1.87.12-1.79,0-2.1-.06-.51,0-1,.1-1.32.14s.46,0,.5.11c-2.08.12-4.09.32-5.23.49-.7,0-.48-.07.34-.15-2.48.23-5.13.45-7.49.61,1.53,0-2.63.23-1.58.25,1.26-.08,2.36-.08,1.67,0s0,0-.32,0c-1,.14-1.57,0-2.55.19,2.27-.2.43-.18.84-.3-1.63.16.07-.06-1.55,0s-3.63.32-5.45.37c-1.14,0-2.59,0-4,0l-3.83,0c-1.06-.07-.34-.16-1.49-.21-1.36,0,1,.14-1,0l.19,0c-.61,0-3.67-.23-4.28-.13L17.3,54c-.37,0-.72,0-1,0,0,0-.45-.1.16-.09-1.23-.15-2.59-.22-3.94-.34l.86.15c-2.31-.19-3.83-.48-6-.85l.07,0-1.3-.23c.32,0-.86-.28-1.55-.41,1.13.23,2.27.4,3.41.56.93.2-1-.1-.47.07a19.65,19.65,0,0,0,2.88.44l-1.43-.19c-.24-.14.94.08,1.54.08-.41,0-1-.17-1.08-.15.8.09,1.62.17,3,.35-.91-.09.49.12.14.1a20.16,20.16,0,0,1,3.07.21c1.19.16,3.14.19,5.07.25a23.28,23.28,0,0,1-3,0c1.21.12,1.35.1,2.57.17a22.48,22.48,0,0,1,2.6-.11l.09.06c1.44,0,1.44-.11,3.27-.09,3.14,0,6.37-.08,8.76-.22l.09,0c.66-.1,1.77-.16,2.94-.24s2.38-.18,3.27-.28c3-.18,6.62-.62,8.19-.62,5.37-.46,10.08-.79,15.66-1l-.93.13c1-.11.65,0,1.63,0-1.13,0,1.36-.16,2-.24,2.49,0,5.68-.24,7.88-.37l.09,0C78,51,80.71,51,83.48,51a13.88,13.88,0,0,0,1.65,0c1.51-.13,2.3-.12,4.51-.21,1.61,0,4.23,0,5.87.05,6.08-.12,12.28.08,18.59.34l.45.1a120.43,120.43,0,0,1,18.8,2.06h-.53a21,21,0,0,0,3.28.67c.79.27,1.79.54,2.69.94a8,8,0,0,1,1.24.6l.45.27a1.59,1.59,0,0,1,.13.13c.35.39.19-.13.2-.24s0-.32,0-.57,0-.54,0-.89c0-3.36,0-4.6-.08-7.77v.78c0,.35.08.38.08-.41,0-1.18,0-4.34-.14-3.16.06-3.39-.08-7.89,0-11.18,0,.28,0-.55-.06-.9,0-3,.15-6.09.14-8.46,0-.47.05.75.08-.45,0-.72-.05,0-.05-.9.05-4.81.41-9.74.77-14.11a52.34,52.34,0,0,1,.71-5.88l.21-1v0h-.66L138.84.9l-11.53.26.09,0c-2.49.17-5.85,0-7.83.22a11.79,11.79,0,0,1-1.82,0c-2,.12-5.56,0-8.42.2.26,0,.41,0,.72,0-2.9,0-5.45.14-8.51.14.31,0,.87,0,1-.07-1.18,0-2.79.18-3.45.05s-.48.08-.06.07c-6.7.08-13.84.3-20.8.46-5,0-.31-.23-4.25-.06-.32,0-.23.06-.29,0-1.52.07-2.37-.11-3.43,0,.44.08-.7.06-.73.11-3.06,0-3.67-.07-6.08,0l.18,0c-2.82.17-6.09.15-8.48.34l-23,.32c-3.79,0-7.57,0-11.35,0l-2.84,0H17s0,0,0,0v.56l.18,5.67c.27,7.49.77,14.9,1.55,22.29a142.34,142.34,0,0,0,3.82,22.1c.2.87.44,1.5.59,2.06s.3.94.44,1.37c0,0,0,.07,0,.09l.15,0,.74-.08,2.35-.26c-.15,0-.4.06-.14.06s2.76-.27,3.13-.38c5.62-.46,10.81-.79,16.61-1-.92.05-1.37.15-.28.1l1.14-.11.18,0c.75,0,1.56-.12.79-.12a408.47,408.47,0,0,1,43.2.62c3.38.19,8.19.66,11.87.93,10.86,1.24,20.59,2.75,31.5,4.83A46.92,46.92,0,0,1,128.85,60.77Z"/><path class="cls-1" d="M3.13,51.58c.35.16,1.57.51.58.31C3.6,51.81,3,51.58,3.13,51.58Z"/><path class="cls-1" d="M36.77,54.17s.48,0,.59,0c-.42,0-.81.09-1.14.08A2.82,2.82,0,0,0,36.77,54.17Z"/><path class="cls-1" d="M45.41,53.53c-.12,0-2,.26-3.06.34Z"/><path class="cls-1" d="M53.47,53.09c.7,0,.5,0-.43.09C53,53.16,53.28,53.13,53.47,53.09Z"/><path class="cls-1" d="M54,53a11.43,11.43,0,0,1,1.33,0S53.81,53,54,53Z"/><path class="cls-1" d="M71.52,52.16c.42,0,1.33-.09,1.72-.06C72.8,52.09,71.2,52.23,71.52,52.16Z"/><path class="cls-1" d="M79.65,51.83c.26,0,.37,0,.68,0,.48,0,0,0-.44.07Z"/><polygon class="cls-1" points="114.07 0.6 114.95 0.57 114.82 0.61 114.07 0.6"/><path class="cls-1" d="M49.13,1.77c-.88,0-.61,0-.76,0C49.17,1.72,48.08,1.79,49.13,1.77Z"/><polygon class="cls-1" points="16.27 4.44 16.26 4.17 16.36 4.26 16.27 4.44"/></svg>