<svg id="레이어_1" data-name="레이어 1" xmlns="http://www.w3.org/2000/svg" viewBox="0 0 173.52 88.8"><defs><style>.cls-1{fill:#fff;}</style></defs><title>line7</title><path class="cls-1" d="M100.39,88.79a16.23,16.23,0,0,1,1.8-.08A12.54,12.54,0,0,1,100.39,88.79Z"/><path class="cls-1" d="M156.74,67.76c1.51-1.62,3.11-3.4,4.69-5.32a75.54,75.54,0,0,0,4.65-6.12,39.1,39.1,0,0,0,6.39-13.92,13.57,13.57,0,0,0,.47-2.22,19.6,19.6,0,0,0-.82-7.83,19.21,19.21,0,0,0-.81-2l-1.09-2-1.39-1.84a5.78,5.78,0,0,0-.77-.87l-.84-.84-.83-.84-.94-.73c-.63-.48-1.24-1-1.89-1.45l-2-1.26-1-.62-1.06-.53a41.86,41.86,0,0,0-4.22-1.94c-1.41-.56-2.78-1.15-4.16-1.55l.68.17c-1-.33-2.21-.67-3.39-1s-2.41-.56-3.52-.86c0,0,.72.14.21,0s-4.07-1-5-1.13-.78-.28-1.93-.59c-.43-.08-.87-.16-1.31-.2-1.83-.23-4-.62-6.38-1.06-1.18-.2-2.4-.48-3.64-.63s-2.51-.29-3.76-.42c.25,0,.74.06.35,0a172.75,172.75,0,0,0-27.07-1c.35,0,.68-.11.16-.12s-3.22.19-5.63.39c-1.08,0-4.11.42-6.93.63l.24-.05c-2.07.36-3.09.35-4.75.67l-1.33.11c-.9.2-3,.42-4.69.76h.06c-1.6.31-2.45.36-3.92.71l-.14,0-4,.85a5.12,5.12,0,0,0-1.34.38c-.61.11.22-.1,1-.3s1.41-.33.45-.19A124.06,124.06,0,0,0,32.5,25.52c-1.18.62-1.91,1-2.18,1.18-1,.61-3.73,2.36-4.55,3a13.47,13.47,0,0,0-1.15.75,20.29,20.29,0,0,0-1.77,1.4L21,33.45c.69-.62.91-.85.65-.68a55.12,55.12,0,0,0-5,4.95,4.66,4.66,0,0,0,.53-.66c-.87.95-1.54,1.92-2.27,2.8a23.36,23.36,0,0,0-1.76,2.86l.35-.78c-1.73,3.21-.5,1-1.69,3.86.25-.71.14-.47.17-.6-.12.35-.27.71-.38,1.11s-.19.84-.29,1.28A15.53,15.53,0,0,0,11,50.37a7.58,7.58,0,0,0,0,1.43c0,.47,0,.93.08,1.38.19.88.36,1.71.51,2.42,0-.17,0-.12,0-.12a23.6,23.6,0,0,0,4.86,8.66,12,12,0,0,0,1.89,2.28,24.73,24.73,0,0,1,1.9,1.72,8.53,8.53,0,0,0,1.07.92c.22.15.23.13-.14-.2L23,70.38l1,.82c.36.26.73.5,1.09.74a35,35,0,0,0,3.67,2.28c-1.16-.59,1.16.79-.95-.35l1.56.92c-.26-.08-1.63-.9-1.15-.58l2.6,1.39c1,.57,2.09,1,2.57,1.22,2,.89,4,1.5,7.41,2.67-1.64-.45.88.4-.23.08,1.64.41,3.25.87,4.88,1.23,1.17.28.23.15,1.93.53a10,10,0,0,1,1.17.21c.42.19,4.88,1,5.38,1.18s-1.93-.34-.63,0c2.17.43,2.29.34,4.48.67l0,0c.72.11,1.79.27,2.48.33s1,0,.23-.06c-1-.12.37.13-1.12-.11,1,.1,3.59.29,5.79.52a6.11,6.11,0,0,0-1,0c1.49.13,3,.14,4.59.22s3.19.12,4.85.13c.06-.06-1.24.07-1.72,0,4.25.19,8.79,0,12.33-.12-.58,0-.32-.06-.28,0,2-.1,2,0,3.29-.12.14.05,1.68-.15,3-.28.7-.1.35,0-.84.1,1.91-.16,9.53-1,13.9-1.77,0,0,.62-.14,1.42-.31l2.24-.47-.38.14c.92-.14,3.35-.65,3.52-.63,2.12-.49-8.2,1.67-5.33,1,.76-.09,4-.89,3.4-.68,2-.36,3.92-.94,5.84-1.3-.56.12-1.6.47,0,.09,2.83-.68.8-.22,3.07-.84l1.42-.41c.08-.09,2.51-.67,1.45-.46.37,0,4-1.28,3.77-1.07l-.35.2c1.19-.39,1.94-.69,2.86-1a2.22,2.22,0,0,1,.41-.11c.15-.19,2.83-1,4.2-1.6l4.16-1.67c1.39-.57,2.58-1.16,3.16-1.37,1.84-.85,3.44-1.79,5.49-2.84-.4.23-1,.53-1.06.61a21.89,21.89,0,0,0,2.73-1.52c-.25.15,2.55-1.39,3.91-2.26,1.63-1.17,1-.84,1.16-1a23.46,23.46,0,0,0,3.09-2.23c1.13-1,2.34-1.88,3.19-2.66-.26.24-.76.77-1.1,1.05s-.42.39.24-.11a27.07,27.07,0,0,0,2.13-2c.37-.39.81-.76,1.2-1.24s.86-1,1.36-1.5l-.56.46c.45-.47,1.19-1.27,1.74-2s.91-1.27.87-1.11c.27-.41.8-1.11,1.21-1.68s.63-1.07.51-.95l1-1.63.51-.86c.14-.31.29-.62.44-.93a27.22,27.22,0,0,0,1.47-3.85,26.43,26.43,0,0,0,1-6.54c0-.34-.06-.95-.09-1.42s-.13-.8-.13-.63c.11,1.14.16,1.6.17,2a3.89,3.89,0,0,0-.09-.81c-.1-1.49-.3-2.66,0-1.27a13.09,13.09,0,0,0-.83-3.39A31.1,31.1,0,0,0,166,27.7c.11.15,0-.17-.67-1.2A21.93,21.93,0,0,0,164,24.62c-.85-1.08-1.1-1.38-1.12-1.44s.21.12.21.07a24.57,24.57,0,0,0-2.82-2.76c-.41-.43-.85-.85-1.29-1.24,1,.88-1-.76-1.54-1.14l.56.41a26.27,26.27,0,0,0-2.3-1.68c.15.15,1.56,1.17,2.3,1.77-.62-.43-1.55-1.14-2.4-1.67a25.24,25.24,0,0,0-3-2,15.09,15.09,0,0,0-1.69-.89c0-.07-1.94-1.05-1-.6.41.19.9.53,1.58.87a16.22,16.22,0,0,0-2.29-1.29,13.21,13.21,0,0,1-2.09-.92c.63.28.76.31,1.26.52-.74-.36-1.47-.74-2.22-1.09H146c-.3-.15-.09-.06-.22-.13-.7-.25-3.47-1.48-4-1.59-1.16-.46-2.44-1-3.56-1.38l.22.07c-1.36-.52-3.21-1.09-4.39-1.4h.06c-.76-.23-2.56-.76-3.53-1-1.93-.57-.59-.43-2.77-.89-2-.49-3.14-.61-2.35-.39-3.56-.87-7.67-1.53-11-2.14-.52,0-.2,0-1.28-.12-5.32-.82-11.29-1.23-15.56-1.58,1.56.05.11-.06.08-.1a18.7,18.7,0,0,0-2-.06c.12.06,0,.09,1.5.19C94,.94,89.09.87,87.31.83c.89,0,.2,0-.5.07a21.94,21.94,0,0,0-3.93,0L82.63,1l-1.17,0a20.68,20.68,0,0,1-2.53.17,2.44,2.44,0,0,0-.52,0L72,1.61l-1.65.07c-.85.1-2.28.3-.77.17-3.42.3-5.61.62-6.7.7A178.91,178.91,0,0,0,42.06,7.39l.18-.1A22.2,22.2,0,0,0,40.12,8c.55-.24-1.36.37,0-.15-2.5.84-3.21,1.14-4.79,1.8-.22.15,1.27-.54,1-.35s-3.41,1.3-3.76,1.53c-.62.21-.17,0,.15-.2-.5.2-1,.44-1.47.67-.91.36.09-.15,1.09-.63s2-.91,1-.58L32,10.66c-1.35.44,3.63-1.55.14-.2-1.47.69-2.68,1.38-1.35.83-3.06,1.41-1.36.77-4.59,2.4-.91.4,2.58-1.32,1.92-1.07-1.54.72-3.06,1.53-4.37,2.29,1.48-.81.28,0-.65.53-1.62.87,1-.67-1.27.62-.37.22-2.34,1.58-.59.48-.72.61-2.3,1.42-3.41,2.3-.75.41,2.1-1.68-.28-.08.41-.2-2.78,2.16-1.49,1.36-.92.64-1,.66-.42.15a23.56,23.56,0,0,0-2,1.66,15.34,15.34,0,0,1-1.39,1.13l-.35.43-1.54,1.33c-.49.5-1.23,1.36-1.86,2.06s-1.06,1.31-1.08,1.21c-.13.18-.69.9-1.13,1.45s-.64,1-.26.52a28.86,28.86,0,0,1,2.11-2.65,21.05,21.05,0,0,0-2.38,3.22l-.14.13L4.8,32c-.25.47-.48.91-.56,1.11.23-.47.07-.25-.2.22L3.75,34A11.81,11.81,0,0,1,3,35.46,6.45,6.45,0,0,0,2.3,37c.22-.65.51-1.27.75-1.91-.08.21-.23.52-.42.92l-.32.68c-.09.26-.18.55-.27.85-.09.51-.33,1.41-.38,1.84-.29,1.48-.21.65-.46,2.11l.33-1.92c0-.15-.07.17-.22.77-.08.3-.17.67-.27,1.09S.93,42.3.87,42.8c-.19,1.29.05,3.29,0,1.26,0,1,0,2.42-.07,1.62,0,1.15.1,1.07.08,1s0-.26.15.71A20.75,20.75,0,0,0,2,52.09c-.13-.32-.29-.63-.4-1l-.29-1c.12.45.19.91.35,1.34-.3-.84-.23-.63-.18-.31s.21.72,0,.26L2,52.85a9.11,9.11,0,0,0,.6,1.37c-1-2.56,1.5,2.73,1.33,1.9,1,1.59,1.24,2.15,1.59,2.65a10,10,0,0,0,.62.91,10.31,10.31,0,0,0,1.42,1.59c-.41-.51.92.8-.72-.93.78.87,1.09,1.14,1.41,1.46s.67.68,1.69,1.63c-1.56-1.36,1.53,1.6-.72-.37.1,0-.22-.22-.56-.58l-.89-1c.64.73-.28,0,1.45,1.69l1.69,1.52c.5.42.87.66.77.55a9.08,9.08,0,0,0-.78-.68c-.32-.3-.55-.51-.18-.22,1.11,1,1.81,1.47,2.3,1.89a6.36,6.36,0,0,0,1.4.94,10.22,10.22,0,0,1-1.48-1.13c-.25-.23-.32-.32-.29-.33.58.43,1.13.89,1.75,1.27l-.38-.2a21.33,21.33,0,0,0,1.86,1.23c.23.1.39.26,1.85,1.1L19,70c-.37-.16-1.42-.79-2.32-1.32s-1.6-1.08-1.39-.85a22.7,22.7,0,0,0,2.15,1.35c.62.35,1.23.69,2.11,1.23l-1.34-.76A20.49,20.49,0,0,0,22.32,72c1.47.69.41.15.47.12l3.5,1.71c.9.41,1.69.69,2.73,1.13-.47-.08,3.7,1.57,1.34.69-.52-.25-1.95-.87-3.41-1.47s-2.85-1.38-3.43-1.61c1.09.69-2.48-1.25-3.21-1.48,2.53,1.27,2.36,1.31,2.73,1.59.7.35,1.4.67,1.83.87s-.6-.38-.62-.48l2.09,1c.68.32,1.37.58,2,.84,1.28.52,2.39,1,3.21,1.26s.62.39-.53-.09l2.64,1.09,2.73,1c1.82.62,3.58,1.34,5.29,1.84-2.17-.77,3.83,1.11,2.35.57-1.82-.58-3.38-1.13-2.35-.88s0,0,.42.21c1.48.37,2.24.78,3.7,1.1-3.3-.94-.68,0-1.31-.14,2.39.66-.12,0,2.23.74s5.36,1.26,8,1.93c1.68.39,3.82.83,5.92,1.25s4.18.7,5.69,1,.49.25,2.22.53c2,.28-1.49-.32,1.52.14l-.3,0c.92.1,5.52.84,6.44.74l-.95,0c.57.07,1.09.1,1.56.13,0,0,.67.15-.25.07,1.86.28,3.93.42,6,.56l-1.3-.17,4.64.34c1.44.09,2.87.19,4.55.26l-.1.06,2,0a8.73,8.73,0,0,0,2.42.13c-1.75,0-3.49,0-5.24,0-1.45-.12,1.59,0,.68-.11s-3.89-.26-4.4-.22c1.19.07,1.25.06,2.18.09a13.46,13.46,0,0,1-2.33,0c.63,0,1.52.11,1.66.09-1.24,0-2.48-.1-4.53-.27,1.39.08-.75-.12-.22-.1a30.72,30.72,0,0,1-4.66-.35c-.9-.14-2.08-.25-3.41-.37s-2.79-.32-4.25-.53c1.19.07,2.71.23,4.49.42-1.82-.27-2-.27-3.86-.56A30.6,30.6,0,0,1,67,86.27l-.12-.08c-2.16-.33-2.18-.24-4.92-.72L55,84l-6.05-1.5-.11-.09a41.52,41.52,0,0,1-4.33-1.15c-1.69-.52-3.49-1-4.78-1.44l-6.66-2.39c-2.06-.86-3.87-1.61-4.94-2.12-1.92-.73-3.66-1.69-5.42-2.53s-3.5-1.69-5.15-2.71A45,45,0,0,1,8,62.77a12.15,12.15,0,0,0,1.09.93,12.09,12.09,0,0,1-1.71-1.8c1.12,1.31-1.52-1.42-2.12-2.3-.28-.39-.6-.77-.86-1.2s-.54-.86-.81-1.31a25,25,0,0,1-1.5-2.8c-.46-.95-.77-2-1.13-2.89S.44,49.53.29,48.7l0-.14A22.12,22.12,0,0,1,1.48,37c.14-.47.54-1.14,1-2.3a28.34,28.34,0,0,1,3.41-6,45,45,0,0,1,6.14-6.51C19,16,27.56,11.7,36.49,8.29l.68-.16c8.7-3.35,20-5.59,27.83-6.65l-.75.22a42.82,42.82,0,0,0,5-.72C71.72.73,75.43.36,77,.37L82.24.06c5.1-.08,7-.09,11.8,0L92.85,0c-.53,0-.57.06.62.11,1.8,0,6.59.33,4.82.09a169,169,0,0,1,16.87,1.83c-.42-.11.83.08,1.36.14,4.45.72,9.07,1.81,12.57,2.64.69.2-1.12-.21.65.25,1.06.27,0,0,1.34.28A91.11,91.11,0,0,1,151,13.21c5.2,2.8,10.27,6.4,13.94,11.26a25.53,25.53,0,0,1,2.4,3.85,22.82,22.82,0,0,1,1.58,4.22,22.17,22.17,0,0,1,.6,4.41,21.82,21.82,0,0,1-.36,4.36v-.14a23.17,23.17,0,0,1-1.87,6l-.69,1.43L165.86,50c-.5.84-.9,1.64-1.29,2.3-.56.71-2.06,2.77-1.7,2.2a50.82,50.82,0,0,1-9.19,9c.32-.24.5-.39.85-.69-1.71,1.4-3.47,2.51-5.19,3.73-.88.58-1.8,1.11-2.73,1.68s-1.9,1.14-2.94,1.65c.41-.24,1.16-.65,1.27-.73-1.62.78-3.7,2.11-4.65,2.41s-.64.38-.07.1a130.2,130.2,0,0,1-14.52,5.87,155.77,155.77,0,0,1-15.39,4.23c-7.47,1.36-.49-.12-6.36,1.08-.49,0-.34.11-.43.09-2.28.39-3.58.43-5.16.71.67,0-1,.18-1.1.24-4.6.54-5.54.47-9.18.87l.27-.07c-2.13.21-4.44.34-6.67.45l-6.19.18A132.53,132.53,0,0,1,57.94,84a96.59,96.59,0,0,1-17-3.75A64.11,64.11,0,0,1,25.3,73c-.6-.4-1.22-.78-1.81-1.21l-1.7-1.36c-.56-.46-1.16-.88-1.69-1.37L18.53,67.5A33.58,33.58,0,0,1,13,60.69a19.71,19.71,0,0,1-2.71-8.28,17.24,17.24,0,0,1,1.54-8.56,28.8,28.8,0,0,1,4.82-7.15A45.56,45.56,0,0,1,23,30.92,87.58,87.58,0,0,1,37.6,22a118.27,118.27,0,0,1,16-6.47c5.23-1.5,5.63-1.57,11.4-3-.22.07-.59.17-.2.09s4.11-.88,4.65-1.09a171.9,171.9,0,0,1,25.07-3c-1.39.07-2.09.18-.43.11l1.73-.13h.28c1.13-.06,2.37-.15,1.2-.14a167.43,167.43,0,0,1,32.86,2.21c2.68.51,5.38.94,8,1.52L146.15,14a64.56,64.56,0,0,1,15.26,5.81l1.74,1.08.92.58.89.69c.6.47,1.23.93,1.84,1.44l1.71,1.69a19,19,0,0,1,4.54,8.17,22.25,22.25,0,0,1-1,12.24,46.66,46.66,0,0,1-5.51,10.61,82.85,82.85,0,0,1-7.46,9.35,100.58,100.58,0,0,1-8.86,8.61l1.41-1.4C152.7,71.85,154.34,70.26,156.74,67.76Z"/><path class="cls-1" d="M97.08,88.8c-.59,0-2.51-.11-1-.15C96.29,88.7,97.28,88.76,97.08,88.8Z"/><path class="cls-1" d="M46.46,81.3c-.07,0-.69-.22-.85-.28.61.18,1.19.31,1.66.48A7,7,0,0,0,46.46,81.3Z"/><path class="cls-1" d="M34,77.19c.2,0,2.85.93,4.41,1.48Z"/><path class="cls-1" d="M23,72.08c-.93-.5-.66-.39.61.25A4.75,4.75,0,0,1,23,72.08Z"/><path class="cls-1" d="M22.16,71.79c-.91-.46-1.35-.7-1.78-.94C20.4,70.9,22.49,71.87,22.16,71.79Z"/><path class="cls-1" d="M3.12,54.49c-.13-.28-.39-.71-.56-1.16s-.34-.92-.41-1.2a15.43,15.43,0,0,0,.6,1.59C3,54.27,3.25,54.69,3.12,54.49Z"/><path class="cls-1" d="M1,42.81c0-.39.06-.55.1-1,.1-.71,0,0,0,.65Z"/><path class="cls-1" d="M158.6,58.09a11.75,11.75,0,0,0,.9-1l-.1.17A7.55,7.55,0,0,1,158.6,58.09Z"/><path class="cls-1" d="M66.47,84c-1.32-.05-.92-.09-1.14-.12C66.53,84,64.89,84,66.47,84Z"/><polygon class="cls-1" points="17.97 65.94 18.26 66.22 18.09 66.19 17.97 65.94"/></svg>